<svg id="Layer_1" data-name="Layer 1" xmlns="http://www.w3.org/2000/svg" viewBox="0 0 3312 864"><defs><style>.cls-1{fill:#ffffff;}.cls-2{font-size:418.2px;font-family:Myriad Pro;font-weight:700;}.cls-11,.cls-2{fill:#231f20;}.cls-3,.cls-4,.cls-5,.cls-7,.cls-8,.cls-9{font-size:349.67px;}.cls-3,.cls-7{letter-spacing:1.12px;}.cls-12,.cls-5{fill:#fff;}.cls-6,.cls-7,.cls-8{fill:#ed1c24;}.cls-9{letter-spacing:-24.72px;}.cls-10{fill:#39c5f2;}.cls-13{fill:#eb2127;}.cls-14{fill:#eb2627;}.cls-15{fill:none;stroke:#fff;stroke-width:3px;}</style></defs><title>White Background</title><rect class="cls-1" width="3312" height="864"/><text class="cls-2" transform="translate(850.19 370.03) scale(0.89 1)">B<tspan class="cls-3" x="252.59" y="0">L</tspan><tspan class="cls-4" x="433.36" y="0">ANK</tspan><tspan class="cls-5" x="1118.69" y="0"> </tspan><tspan class="cls-6" x="1189.33" y="0">E</tspan><tspan class="cls-7" x="1412.64" y="0">X</tspan><tspan class="cls-8" x="1629.08" y="0">TREME</tspan><tspan x="0" y="377.16">E</tspan><tspan class="cls-4" x="223.31" y="377.16">NTER</tspan><tspan class="cls-9" x="1050.26" y="377.16">T</tspan><tspan class="cls-4" x="1216.7" y="377.16">AINMENT</tspan></text><path class="cls-10" d="M568.52,321.29c11.81-5.44,18.51-14.82,10.18-22.08-13.51-11.73-41.62-21.91-54.67-30.51C533.46,289.49,551.88,306.06,568.52,321.29Zm25.6,22.25c22.37,30.12,81.37,42.63,72.84,91.16-2.66,15.23-6.78,36.23-9.72,53.31-4.33,25.07-6,44.25,19.4,58.14C698,557.84,712.46,572,723.79,594.88c14.49,29.21,25.86,37.43,49.31,48.47,6.56,3.09,11.09,6.92,5.72,14.73a48.91,48.91,0,0,0-8.12,20.81c-2.54,15.95,10.3,29.79,2.87,43.25-7.88,14.22-41.14,25.79-49.43,12.07-4.24-7,14-10.42,14.34-10.66,8-5.72-3.66-32.38-.65-43.18,4-14.44-.67-19.11-13.17-28.76C677.07,614.9,625,576.71,596.85,522.3c-9.79,2.61-14.13,14.51-18.49,22.92a4.81,4.81,0,0,1,0,.57c7.83,14.87,19.54,31.49,25.1,47.58,7,20.28,8.79,51.13,11.57,73.42,2.8,22.56,15.92,34.7,21.24,51.39,2.42,7.62,4.62,26.75-.84,33.5-11.37,14.1-32.18-9.75-50.91-4.17-8.26,2.44-24,12.43-32.09,9.67-11.66-4-18.65-16.28-22.94-25.58-1.25-2.71-6.66-14.25-2.61-16.43,8.38-4.57,24.59,10.44,37.55,6.73C583.63,716.41,595,710.5,587.13,693c-15.88-35.23-45.83-72.75-60.34-108.31-0.36-10.34-12.5-20.69-14.89-29.72-2.13-8.09,4.91-17.74,7.42-24.67C533,493.11,537,456.57,552.28,418c3.11-7.88-22.61-15.92-31-21.79-32.54-22.65-57.42-59.75-89.73-91.74-44.59,8.79-83.62,16.12-125.81-3-19-8.62-35.92-20.71-57.35-26.27-12.55-3.26-23,4-38.36,10,6.75-68.58,86.83-29.74,130.29-27.95,36.61,1.51,65.47-13.39,102.18-10.13-20.88-16.43-44.88-12.6-65.85-21.22-29.36-12-38.58-39.39-41.24-64.34-5.56-52.25,55.51-71,89.42-43.89,28.14,22.49,25.67,48.08,34.67,82.11,3.33,12.69,26.8,5.56,39.85,7.66,24,3.88,60.13,27.54,76,46.65,6,7.21,9,13.27,19.54,15.37,24.07,4.81,53.21,11.25,25.5,44.18C612.1,323.45,600.23,334.08,594.12,343.54Z" transform="translate(0 0)"/><path class="cls-11" d="M521.25,396.2c8.43,5.87,34.15,13.91,31,21.79-15.3,38.58-19.25,75.12-33,112.31-2.51,6.92-9.55,16.57-7.42,24.67,2.39,9,14.54,19.37,14.89,29.72-3.71,55.58-43.82,97.25-82.14,130.39-13,11.25-26.53,18.1-41.38,24.23C338.32,766.17,255.88,767.68,191,727.6c-115-71-148-207.55-87.81-326.08,16.26,6.73,31.9,14.85,47.32,23.4-11.66,25-20.57,48.83-26.56,75.74-20.76,93.15,39.75,197.78,132.45,215.9,18.7,3.66,52.54,3.86,75.34.84,9.05-1.2,26.92-6,36.93-13.07-57.26,4.74-118.32-7.33-164.68-42.51-43-32.62-56.87-99.52-50.19-148.61,9.53-69.71,58.07-136.06,129.55-150.62,42.84-8.74,80.24-6.54,117.1,8.12,35.08,13.89,61.28,40,86.09,67.17-45-109.17-220.57-161.88-299.11-58.57-8.91-25.19-5.44-54.5.67-80.29,5.41-5.05,15.21-8.38,22-13.82,15.33-6.06,25.81-13.27,38.36-10,21.43,5.56,38.36,17.65,57.35,26.27,42.19,19.13,81.23,11.81,125.81,3C463.83,336.45,488.71,373.55,521.25,396.2ZM463,628.86c70.21-68.58,16.76-181.2-52.42-224.28-32.42-20.19-104.41-21.41-134.27,7.54-12.07,11.71-20.86,27.32-26.87,42.84-17.94,46.31,18,103.66,65,98.88,14.68-1.51,36.37-18.8,44.59-37.67,1.84-4.26,7.78-21.43-2.27-23.3-7.16-1.34-19.59,15.57-25.34,19.61a27.14,27.14,0,0,1-16.88,4.41C283,513.18,275.44,468.45,291,445.1a61.56,61.56,0,0,1,48.63-27.18C445.68,414.11,508.51,537.22,463,628.86ZM436.7,546c23-18.94-21.22-48.66-22.75-13.67C412.46,544.38,427.76,553.31,436.7,546Zm-26.58,64.82c14.2,39.73,51.15-24.43,15.64-27.68C413.16,581.93,406.83,600.32,410.12,610.78Zm1.77-130.08c12.52-24.71-32.5-30.17-30.2-3.07C383.7,494.62,405.81,492.75,411.89,480.71Zm-19.4,174.81c5-26.92-41.74-30.48-33.69.79C362.92,673.93,389.59,671.11,392.49,655.52Zm-34.2-68.58c16.81,36.52,55-26.63,19.32-30.24C363.92,555.3,355.09,574.51,358.3,586.93ZM322.52,468.69c12,23.95,36.78-10.87,18.39-21.72C331.6,441.48,320.6,460.23,322.52,468.69Zm-11.71,209c22.87-4.24,13.15-43-7.45-36.9-7.81,2.3-11.64,11.73-10.3,20.76C293,671.44,301.3,679.49,310.81,677.72Zm-2.49-61.81C331,614,325.18,571.8,304.78,578c-8.52,2.56-13.39,11.14-11.71,21.7C295.17,606.62,301.3,616.51,308.32,615.91Zm-42.5-31.15c5.89-5.32,10.92-35-6.2-33.45-9.36.81-18.7,14.73-16.5,23.83C246.3,585.21,256.72,593,265.82,584.75ZM238.09,663c25.36,5.08,30-38.34,2.47-37.6-11.45.29-21.24,17.1-16.4,27.68C229.23,657.72,232.41,661.86,238.09,663ZM219.62,531.4c9.29-26-37.38-39.51-30-5.77C187.94,540.26,212.58,551.06,219.62,531.4ZM184.3,600c19.9,38,46.6-23.71,15.92-29C188.71,569.09,180.66,588.42,184.3,600Z" transform="translate(0 0)"/><path class="cls-12" d="M410.59,404.58c69.18,43.08,122.63,155.7,52.42,224.28,45.5-91.64-17.34-214.75-123.42-210.95A61.56,61.56,0,0,0,291,445.1c-15.52,23.35-8,68.08,23.56,71.79a27.14,27.14,0,0,0,16.88-4.41c5.75-4,18.18-21,25.34-19.61,10.06,1.87,4.12,19,2.27,23.3-8.21,18.87-29.91,36.16-44.59,37.67-47,4.79-82.9-52.56-65-98.88,6-15.52,14.8-31.13,26.87-42.84C306.19,383.17,378.17,384.39,410.59,404.58Z" transform="translate(0 0)"/><path class="cls-12" d="M486.48,437.87c-24.81-27.13-51-53.28-86.09-67.17-36.85-14.66-74.26-16.86-117.1-8.12-71.48,14.56-120,80.92-129.55,150.62-6.68,49.09,7.21,116,50.19,148.61C250.3,697,311.36,709.06,368.62,704.32c-10,7.09-27.87,11.88-36.93,13.07-22.8,3-56.63,2.83-75.34-.84-92.7-18.13-153.21-122.75-132.45-215.9,6-26.92,14.89-50.72,26.56-75.74-15.42-8.55-31.06-16.67-47.32-23.4a151.93,151.93,0,0,1,10.7-20.67c9.46,4,54.19,38.82,55.53,15.25,0.48-8.07-4.29-15.95-5.8-23.28-3.62-17.36-.5-33.29-0.29-49.11a4.7,4.7,0,0,0-.57-1.92c7.78-8,15-18.06,25.31-22.8-6.11,25.79-9.58,55.1-.67,80.29C265.91,276,441.46,328.69,486.48,437.87Z" transform="translate(0 0)"/><path class="cls-13" d="M413.95,532.29c1.53-35,45.74-5.27,22.75,13.67C427.76,553.31,412.46,544.38,413.95,532.29Z" transform="translate(0 0)"/><path class="cls-13" d="M425.75,583.1c35.51,3.26-1.44,67.41-15.64,27.68C406.83,600.32,413.16,581.93,425.75,583.1Z" transform="translate(0 0)"/><path class="cls-13" d="M381.69,477.64c-2.3-27.11,42.72-21.65,30.2,3.07C405.81,492.75,383.7,494.62,381.69,477.64Z" transform="translate(0 0)"/><path class="cls-13" d="M358.8,656.31c-8-31.27,38.67-27.71,33.69-.79C389.59,671.11,362.92,673.93,358.8,656.31Z" transform="translate(0 0)"/><path class="cls-14" d="M377.62,556.69c35.66,3.62-2.51,66.76-19.32,30.24C355.09,574.51,363.92,555.3,377.62,556.69Z" transform="translate(0 0)"/><path class="cls-14" d="M340.91,447c18.39,10.85-6.39,45.67-18.39,21.72C320.6,460.23,331.6,441.48,340.91,447Z" transform="translate(0 0)"/><path class="cls-13" d="M303.36,640.81c20.59-6.06,30.32,32.66,7.45,36.9-9.51,1.77-17.84-6.27-17.74-16.14C291.72,652.55,295.56,643.11,303.36,640.81Z" transform="translate(0 0)"/><path class="cls-13" d="M304.78,578c20.4-6.18,26.2,36,3.54,37.93-7,.6-13.15-9.29-15.25-16.24C291.39,589.11,296.25,580.54,304.78,578Z" transform="translate(0 0)"/><path class="cls-13" d="M259.61,551.3c17.12-1.51,12.09,28.14,6.2,33.45-9.1,8.21-19.52.45-22.7-9.63C240.91,566,250.25,552.12,259.61,551.3Z" transform="translate(0 0)"/><path class="cls-13" d="M240.55,625.42c27.56-.74,22.89,42.67-2.47,37.6-5.68-1.15-8.86-5.29-13.94-9.91C219.31,642.51,229.11,625.7,240.55,625.42Z" transform="translate(0 0)"/><path class="cls-13" d="M189.64,525.63c-7.4-33.74,39.27-20.23,30,5.77C212.58,551.06,187.94,540.26,189.64,525.63Z" transform="translate(0 0)"/><path class="cls-13" d="M200.23,571.06c30.68,5.24,4,66.91-15.92,29C180.66,588.42,188.71,569.09,200.23,571.06Z" transform="translate(0 0)"/><path class="cls-11" d="M163.59,372.83c1.51,7.33,6.27,15.21,5.8,23.28-1.34,23.56-46.07-11.25-55.53-15.25a250.94,250.94,0,0,1,48.87-59.05,4.7,4.7,0,0,1,.57,1.92C163.09,339.54,160,355.47,163.59,372.83Z" transform="translate(0 0)"/><path class="cls-15" d="M293.07,599.67c2.11,6.94,8.24,16.83,15.25,16.24C331,614,325.18,571.8,304.78,578,296.25,580.54,291.39,589.11,293.07,599.67Z" transform="translate(0 0)"/><path class="cls-15" d="M568.52,321.29c11.81-5.44,18.51-14.82,10.18-22.08-13.51-11.73-41.62-21.91-54.67-30.51C533.46,289.49,551.88,306.06,568.52,321.29Z" transform="translate(0 0)"/><path class="cls-15" d="M113.85,380.85a250.94,250.94,0,0,1,48.87-59.05" transform="translate(0 0)"/><path class="cls-15" d="M113.85,380.85c9.46,4,54.19,38.82,55.53,15.25,0.48-8.07-4.29-15.95-5.8-23.28-3.62-17.36-.5-33.29-0.29-49.11a4.7,4.7,0,0,0-.57-1.92" transform="translate(0 0)"/><path class="cls-15" d="M188,299c-6.11,25.79-9.58,55.1-.67,80.29,78.54-103.31,254.09-50.6,299.11,58.57-24.81-27.13-51-53.28-86.09-67.17-36.85-14.66-74.26-16.86-117.1-8.12-71.48,14.56-120,80.92-129.55,150.62-6.68,49.09,7.21,116,50.19,148.61C250.3,697,311.36,709.06,368.62,704.32" transform="translate(0 0)"/><path class="cls-15" d="M188,299c-10.3,4.74-17.53,14.75-25.31,22.8" transform="translate(0 0)"/><path class="cls-15" d="M594.12,343.54c-10.49-4.21-18.7-13.67-25.6-22.25" transform="translate(0 0)"/><path class="cls-15" d="M596.85,522.3c19.42-33.12,40.92-78.43,18.08-114.56" transform="translate(0 0)"/><path class="cls-15" d="M596.85,522.3c28.11,54.41,80.22,92.6,127.83,129.31,12.5,9.65,17.22,14.32,13.17,28.76-3,10.8,8.67,37.45.65,43.18-0.31.24-18.58,3.66-14.34,10.66,8.29,13.72,41.55,2.16,49.43-12.07,7.42-13.46-5.41-27.3-2.87-43.25a48.91,48.91,0,0,1,8.12-20.81c5.36-7.81.84-11.64-5.72-14.73-23.44-11-34.82-19.25-49.31-48.47-11.33-22.87-25.84-37-47.15-48.73-25.36-13.89-23.73-33.07-19.4-58.14,2.95-17.07,7.06-38.08,9.72-53.31,8.52-48.54-50.48-61-72.84-91.16" transform="translate(0 0)"/><path class="cls-15" d="M103.15,401.52a151.93,151.93,0,0,1,10.7-20.67" transform="translate(0 0)"/><path class="cls-15" d="M103.15,401.52c16.26,6.73,31.9,14.85,47.32,23.4-11.66,25-20.57,48.83-26.56,75.74-20.76,93.15,39.75,197.78,132.45,215.9,18.7,3.66,52.54,3.86,75.34.84,9.05-1.2,26.92-6,36.93-13.07" transform="translate(0 0)"/><path class="cls-15" d="M210,285.18c-6.75,5.44-16.55,8.76-22,13.82" transform="translate(0 0)"/><path class="cls-15" d="M210,285.18c6.75-68.58,86.83-29.74,130.29-27.95,36.61,1.51,65.47-13.39,102.18-10.13-20.88-16.43-44.88-12.6-65.85-21.22-29.36-12-38.58-39.39-41.24-64.34-5.56-52.25,55.51-71,89.42-43.89,28.14,22.49,25.67,48.08,34.67,82.11,3.33,12.69,26.8,5.56,39.85,7.66,24,3.88,60.13,27.54,76,46.65,6,7.21,9,13.27,19.54,15.37,24.07,4.81,53.21,11.25,25.5,44.18-8.26,9.82-20.14,20.45-26.25,29.91" transform="translate(0 0)"/><path class="cls-15" d="M526.78,584.68c14.51,35.56,44.47,73.09,60.34,108.31,7.9,17.5-3.5,23.42-22.68,28.93-13,3.71-29.17-11.3-37.55-6.73-4,2.18,1.36,13.72,2.61,16.43,4.29,9.29,11.28,21.58,22.94,25.58,8.07,2.75,23.83-7.23,32.09-9.67,18.73-5.58,39.54,18.27,50.91,4.17,5.46-6.75,3.26-25.89.84-33.5C631,701.49,617.85,689.35,615,666.8c-2.78-22.29-4.6-53.14-11.57-73.42-5.56-16.09-17.27-32.71-25.1-47.58a4.81,4.81,0,0,0,0-.57c4.36-8.41,8.69-20.31,18.49-22.92" transform="translate(0 0)"/><path class="cls-15" d="M526.78,584.68c-3.71,55.58-43.82,97.25-82.14,130.39-13,11.25-26.53,18.1-41.38,24.23C338.32,766.17,255.88,767.68,191,727.6c-115-71-148-207.55-87.81-326.08" transform="translate(0 0)"/><path class="cls-15" d="M526.78,584.68c-0.36-10.34-12.5-20.69-14.89-29.72-2.13-8.09,4.91-17.74,7.42-24.67C533,493.11,537,456.57,552.28,418c3.11-7.88-22.61-15.92-31-21.79-32.54-22.65-57.42-59.75-89.73-91.74-44.59,8.79-83.62,16.12-125.81-3-19-8.62-35.92-20.71-57.35-26.27-12.55-3.26-23,4-38.36,10" transform="translate(0 0)"/><path class="cls-15" d="M293.07,661.58c-0.1,9.87,8.24,17.91,17.74,16.14,22.87-4.24,13.15-43-7.45-36.9C295.56,643.11,291.72,652.55,293.07,661.58Z" transform="translate(0 0)"/><path class="cls-15" d="M358.8,656.31c4.12,17.62,30.79,14.8,33.69-.79C397.47,628.6,350.75,625,358.8,656.31Z" transform="translate(0 0)"/><path class="cls-15" d="M224.15,653.1c5.08,4.62,8.26,8.76,13.94,9.91,25.36,5.08,30-38.34,2.47-37.6C229.11,625.7,219.31,642.51,224.15,653.1Z" transform="translate(0 0)"/><path class="cls-15" d="M410.12,610.78c14.2,39.73,51.15-24.43,15.64-27.68C413.16,581.93,406.83,600.32,410.12,610.78Z" transform="translate(0 0)"/><path class="cls-15" d="M184.3,600c19.9,38,46.6-23.71,15.92-29C188.71,569.09,180.66,588.42,184.3,600Z" transform="translate(0 0)"/><path class="cls-15" d="M358.3,586.93c16.81,36.52,55-26.63,19.32-30.24C363.92,555.3,355.09,574.51,358.3,586.93Z" transform="translate(0 0)"/><path class="cls-15" d="M243.11,575.13c3.18,10.08,13.6,17.84,22.7,9.63,5.89-5.32,10.92-35-6.2-33.45C250.25,552.12,240.91,566,243.11,575.13Z" transform="translate(0 0)"/><path class="cls-15" d="M413.95,532.29c-1.48,12.09,13.82,21,22.75,13.67C459.68,527,415.48,497.3,413.95,532.29Z" transform="translate(0 0)"/><path class="cls-15" d="M189.64,525.63c-1.7,14.63,22.94,25.43,30,5.77C228.91,505.4,182.24,491.89,189.64,525.63Z" transform="translate(0 0)"/><path class="cls-15" d="M381.69,477.64c2,17,24.11,15.11,30.2,3.07C424.41,456,379.39,450.53,381.69,477.64Z" transform="translate(0 0)"/><path class="cls-15" d="M322.52,468.69c12,23.95,36.78-10.87,18.39-21.72C331.6,441.48,320.6,460.23,322.52,468.69Z" transform="translate(0 0)"/><path class="cls-15" d="M463,628.86c70.21-68.58,16.76-181.2-52.42-224.28-32.42-20.19-104.41-21.41-134.27,7.54-12.07,11.71-20.86,27.32-26.87,42.84-17.94,46.31,18,103.66,65,98.88,14.68-1.51,36.37-18.8,44.59-37.67,1.84-4.26,7.78-21.43-2.27-23.3-7.16-1.34-19.59,15.57-25.34,19.61a27.14,27.14,0,0,1-16.88,4.41C283,513.18,275.44,468.45,291,445.1a61.56,61.56,0,0,1,48.63-27.18C445.68,414.11,508.51,537.22,463,628.86Z" transform="translate(0 0)"/></svg>