<svg xmlns="http://www.w3.org/2000/svg" version="1.1" x="0" y="0" viewBox="0 0 533.2 225.8" enable-background="new 0 0 533.2 225.8" xml:space="preserve"><path fill="#FFFFFF" d="M0.8 226.5c0-75.4 0-150.5 0-225.7 177.7 0 355.5 0 533.2 0 0 75.2 0 150.5 0 225.7C356.3 226.5 178.6 226.5 0.8 226.5zM186.1 134.2c15.9 0 31.5 0 47.1 0 0.9-2.1 1.1-3.9 0.1-5.8 -2.8-0.3-5.5-0.6-8.3-0.8 -3.4-0.2-5.3-2.3-5.7-5.4 -0.5-4.1-0.9-8.2-0.9-12.3 -0.1-27.4 0-54.7 0-82.1 0-0.9 0-1.8 0-2.6 0.1-3.1 0.9-3.9 4.1-3.9 2.2-0.1 4.4 0 6.9 0 0-1.7 0-2.9 0-4.2 0-0.6-0.2-1.2-0.3-1.8 -15.8 0-31.5 0-47.2 0 0 2.2 0 4.1 0 6.3 1.5 0 2.6 0 3.7 0 1.2 0 2.5 0 3.7 0 3.3 0.2 5.3 1.6 6.2 4.9 0.6 2.4 1.1 4.9 1.2 7.3 0.2 9.7 0.1 19.5 0.2 29.2 0 0.7-0.2 1.4-0.3 2 -7.8 0.8-49 0.5-51.7-0.4 -0.1-0.1-0.2-0.2-0.2-0.3 -0.1-12.5-0.1-25-0.2-37.4 0-0.9 0.2-1.7 0.3-2.6 0.2-1.9 1.3-2.9 3.3-2.8 2.4 0 4.7 0 7 0 0.4-0.7 0.8-1.1 0.9-1.5 1-3.9 0.1-5-3.8-5 -11.1 0-22.2 0-33.4 0 -3.2 0-6.3 0-9.5 0 -0.5 2.5-0.9 4.5 0.3 6.5 2.2 0 4.4-0.1 6.5 0 3.5 0.2 6 2.3 6.4 5.7 0.6 5.1 1.3 10.2 1.3 15.3 0.1 26.4 0.1 52.7 0.1 79.1 0 1-0.1 2-0.3 3 -0.6 2.5-1.5 3.3-4.1 3.5 -1.4 0.1-2.7 0-4.1 0 -2.7 0-3 0.3-2.7 3 0.1 1 0.2 1.9 0.3 3 16 0 31.8 0 47.8 0 0-2 0-3.8 0-5.9 -1.2 0-2.2 0.1-3.1 0 -2.2-0.2-4.5-0.3-6.7-0.7 -3.1-0.6-4.7-2.8-5-5.8 -0.5-6.2-1.1-12.4-1.3-18.6 -0.2-8.6-0.1-17.2 0-25.9 0-1.1 0.1-2.2 0.2-3.2 3-0.8 48-0.9 51.9-0.2 0.1 0.4 0.3 0.9 0.3 1.3 0 16.2 0 32.5-0.1 48.7 0 3.2-0.8 4-3.9 4.2 -2.1 0.1-4.2 0-6.5 0C186.1 130.3 186.1 132.2 186.1 134.2zM341.7 134.4c16.7 0 33 0 49.4 0 0-2 0-3.7 0-5.5 0-1.4-1.2-1.9-2-1.6 -2.3 0.7-4.3 0.1-6.5-0.1 -4.6-0.4-4.8-0.7-6.6-4.8 -1.6-3.5-1.1-7.2-1.3-10.7 -0.4-12.1-0.2-24.2-0.1-36.4 0-2.5 0.6-3.1 3.1-3.2 3.2-0.1 6.5-0.1 9.7 0 6.4 0.2 12.9 0.5 19.3 0.8 2.9 0.1 4.7 2.1 4.8 5.1 0 0.9 0.1 1.8 0 2.6 -0.4 2.3 0.5 3.8 2.2 4.9 1.5-0.3 2.9-0.6 4.7-0.9 0.1-1.2 0.3-2.5 0.3-3.9 0-4.4-0.2-8.8 0-13.1 0.2-4.3-0.7-8.5-0.1-12.9 0.6-3.9-1.5-5.1-5.2-3.8 -0.7 0.2-1.3 0.7-1.9 1.1 0 2.2-0.1 4.3 0 6.5 0.1 2.7-1.3 4.2-3.6 5 -1.1 0.3-2.2 0.7-3.3 0.8 -9.2 1.2-18.4 0.7-27.7 0.5 -0.7 0-1.5-0.2-2.4-0.4 -0.1-1-0.3-2-0.3-2.9 0-11.5 0-23 0-34.5 0-0.7 0-1.5 0-2.2 0.1-1.5 0.8-2.3 2.3-2.4 0.7 0 1.5-0.1 2.2-0.1 9.4 0.2 18.8-0.6 28 0.9 6.5 1.1 13.3 1.8 15.9 9.7 0.2 0.7 1.7 1.3 2.7 1.5 1.4 0.2 1.8-1.1 2-2.3 0.8-4.8 1.6-9.6 2.3-14.4 0.1-0.8-0.2-1.6-0.3-2.5 -0.9 0-1.5-0.1-2.1-0.1 -28 0-56 0-84 0 -5.7 0-5.7 0-5 5.6 0 0.2 0.3 0.4 0.6 0.9 1.9 0 4-0.1 6.1 0 3.4 0.1 5.2 1.7 6.2 4.9 1 3.1 1.3 6.3 1.3 9.6 0 24.4 0 48.7 0.1 73.1 0 5 0 10 0 15 0 2.9-0.8 3.8-3.7 4 -1.6 0.1-3.2 0-4.9 0 -0.8 0-1.6 0.3-2.4 0.5C341.7 130.7 341.7 132.5 341.7 134.4zM276.9 64.9c-0.2-1.1-0.3-1.8-0.3-2.6 0-12 0-24 0-36 0-0.6-0.2-1.4 0.1-1.8 0.5-0.8 1.1-1.6 1.9-2 0.7-0.4 1.7-0.3 2.6-0.3 6 0 12-0.2 18 0.1 4.7 0.2 9.5 0.7 14.1 1.7 4.9 1 9.8 2.4 11.4 8.2 0.4 1.3 1.5 2.5 3.1 2.2 1.5-0.3 2-1.7 2.2-3.1 0.5-4.2 1.1-8.4 1.7-12.6 0.5-3.4 0.4-3.6-3-3.6 -21.1 0-42.2 0-63.3 0 -7.2 0-14.5 0-21.7-0.1 -3.1 0-3.4 0.3-3.4 3.5 0 0.2 0 0.5 0 0.7 -0.1 1.5 0.6 2.3 2.2 2.3 1.6 0 3.2 0 4.9 0.1 3.6 0.2 5.9 2 6.5 5.5 0.6 3.8 1.2 7.6 1.3 11.5 0.2 10.9 0.1 21.7 0.1 32.6 0 17.5 0 35 0 52.5 0 3.5-0.6 4.2-4 4.5 -1.5 0.1-3 0-4.5 0 -2.2 0.1-2.6 0.4-2.7 2.6 -0.1 2.9 0.2 3.5 2.5 3.5 2.7 0.1 5.4 0 8.2 0 12 0.1 23.9 0.2 35.9 0.3 2 0 2.5-0.7 2.6-3.1 0.1-2.6-0.3-3.3-2.3-3.4 -1.9-0.1-3.8 0.3-5.6 0 -5.3-0.7-7.4-1.8-8-7.6 -0.4-4-0.6-8-0.6-11.9 -0.1-10.7 0-21.5 0-32.2 0-1.2 0-2.5 0-3.9 1.5-0.2 2.7-0.5 3.9-0.5 5.5 0.1 11 0.5 16.4 0.3 4.3-0.2 8.4 0 12.6 0.9 3.9 0.8 4.8 1.9 4.8 5.8 0 1.8 0.1 3.6 0.2 5.4 2.1 0 3.8 0 5.9 0 0-3.8 0-7.4 0-11 0-3.7 0-7.5 0-11.2 -0.1-3.5 0.4-7.1-0.4-11 -2.1 0.2-3.8 0.4-5.6 0.6 0 2.2 0.1 4.1 0 6 -0.1 3.3-1.8 5.5-5 6.1 -3.3 0.6-6.7 1.1-10 1.2 -6.4 0.2-12.7 0.1-19.1 0.1C279.2 65.1 278.2 65 276.9 64.9zM14.4 215.1c1.3 0 2.2 0 3 0 45.4 0 90.7 0 136.1 0 121.8 0 243.7 0 365.5 0 1.4 0 2.8 0.2 4.1-0.1 0.6-0.1 1.5-1.1 1.5-1.7 0-0.6-1-1.5-1.6-1.6 -1.6-0.2-3.2 0-4.9 0 -80.3 0-160.7 0-241 0 -84.7 0-169.4 0-254.2 0 -2.8 0-5.6 0-8.5 0C14.4 213 14.4 213.9 14.4 215.1zM268.8 151C268.8 151 268.8 151.1 268.8 151c3.1 0 6.2 0 9.4 0 42.9 0 85.7 0 128.6 0 37.9 0 75.7 0 113.6 0 0.6 0 1.3 0.2 1.9 0 0.6-0.2 1.1-0.7 1.7-1.1 -0.5-0.6-0.9-1.5-1.5-1.7 -0.9-0.3-2-0.2-3-0.2 -12.5 0-25 0-37.5 0 -152.1 0-304.2 0-456.2 0 -2.5 0-5 0-7.5 0.1 -1 0-2 0.1-2.9 0.4 -0.4 0.2-1 0.9-0.9 1.4 0 0.4 0.6 1 1.1 1.2 0.4 0.2 1 0 1.5 0 32 0 64 0 96 0C164.9 151 216.8 151 268.8 151zM14.5 163.1c-0.1 0.3-0.2 0.5-0.3 0.8 3 0.5 3.6 2.4 3.6 4.9 -0.1 5.7 0 11.5 0 17.2 0 3.3 0 3.3-2 5.5 3.4 0.9 7.8 0.8 9.9-0.5 -1.4-0.6-3.5-0.2-3.6-2.2 -0.3-3.9-0.9-7.8 0.4-11.5 4.7 0 9 0 13.5 0 0 3.9 0 7.5 0 11.1 0 1.1-0.3 1.9-1.6 2.2 -0.4 0.1-0.8 0.6-1.4 1 4.2 0.7 8.3 0.6 10.4-0.2 -3.2-2.1-3.2-2.1-3.2-6.4 0-5.2 0-10.5 0-15.7 0-3.5 0-3.5 2.6-6.2 -3.7 0-7-0.5-10.9 0.3 2 1.4 4.1 1.8 4.1 4.1 0 2.3 0 4.7 0 7.3 -4.7 0-9.1 0-13.9 0 0.9-3.9-2.2-8.3 3.1-11.5C21.1 163.1 17.8 163.1 14.5 163.1zM277.1 171.8c-3.4 0-7-0.1-10.5 0 -4.2 0.1-7.6 4.1-6.9 8.3 0.3 1.8 1.4 3.5 2.4 5.7 -0.6 1-1.4 2.5-2.1 3.9 0.6 0.9 1.1 1.6 1.6 2.4 -0.5 0.6-0.9 1.1-1.3 1.5 -2.7 2.7-3.2 7.4 2.3 9 4.5 1.4 9.4 1.3 13.5-2.1 1-0.8 2.2-1.9 2.5-3 0.8-3-1.9-6.5-5.1-7 -2-0.3-4-0.4-5.9-0.7 -1.3-0.2-2.5-0.8-3.7-1.2 1.3-2.3 1.3-2.3 3.8-2.4 5-0.2 8.1-3.5 7.8-8.4 0-0.6-0.2-1.2-0.2-1.6C275.8 174.7 277.9 174.2 277.1 171.8zM122.5 191.2c-2.6-0.6-2.7-2.4-2.7-4.3 0-6.6 0-13.2 0-19.8 0-2.3 0-4.6 0-7.4 -1.8 0-3.8-0.1-5.9 0 -0.3 0-0.9 0.6-0.9 1 0 0.5 0.3 1.2 0.7 1.5 0.5 0.4 1.3 0.5 2 0.7 0 3.1 0 6 0 9 -2 0-3.7-0.1-5.4 0 -1.3 0.1-2.7 0.5-3.9 1 -5.5 2.6-6.6 11.1-3.5 16 1.4 2.2 3.3 3.5 5.9 3.2 2.3-0.3 4.5-1 6.8-1.5C117.3 192.5 118.5 192.7 122.5 191.2zM510.7 178.6c3.1 1.3 5.5 0.2 8-0.3 3-0.5 5.2-3.1 5.6-6.2 0.5-3.9-0.9-6.4-4-7.9 -2-1-4-1.4-6.1-1.4 -3.2 0-6.5-0.1-9.7 0 -0.6 0-1.1 0.5-2.4 1 1.3 0.5 1.9 0.5 2.3 0.9 0.8 0.8 2 1.8 2 2.8 0.2 6.1 0.2 12.2 0.1 18.3 0 2.1-0.1 4.5-2.8 5.7 3.4 0.4 6.5 0.6 9.7 0.7 0.4 0 0.8-0.9 1.2-1.5 -1.4-0.9-3.6-0.2-3.7-2.4C510.6 185.2 510.7 182.1 510.7 178.6zM384.3 193c2.4-4.5 3.1-8.8 6.5-12.1 1.5 4 2.9 7.5 4.5 11.6 0.9-1.3 1.7-2 2.1-2.9 2-4.3 3.9-8.6 5.9-12.9 0.5-1 1.2-1.8 1.9-2.7 0.4-0.5 0.8-1 1.3-1.7 -2.7 0-5 0-8.2 0 2.1 1.6 3.2 2.9 2.4 4.8 -1.1 2.8-2.4 5.5-3.9 9.1 -1.3-3.2-2-5.5-3.1-7.7 -1-2.1-1.5-4.1 0.4-6.4 -2.5 0.2-5.1 0.3-8.5 0.5 3.3 2.4 4.1 4.8 2.8 7.7 -0.7 1.5-1.7 2.9-2.7 4.7 -0.6-0.8-1.2-1.4-1.6-2.1 -0.9-1.9-1.5-3.9-2.4-5.8 -0.8-1.7-0.9-3.2 0.9-4.6 -2.9 0-5.4 0-8 0 1.4 2.3 2.9 4.3 3.9 6.5 1.4 3 2.3 6.3 3.5 9.4C382.4 189.8 383.2 191 384.3 193zM352.1 171.1c-0.7 1.7-1.1 2.6-1.5 3.5 -2.9 0-5.7 0-8.4 0 -0.6-5.4-0.5-7.3 0.5-9.8 4-0.2 8.1-0.5 11.6 2.2 1.3-1.9 1.3-1.9 0.7-4 -6.8 0-13.5 0-20.3 0 3.6 1.9 2.9 5.1 2.9 8 0 5 0 10 0 15 0 3.5 0 3.5-3.2 5.8 4.2 0.2 7.7 0.4 11.4-0.8 -1.2-0.5-2.3-1.1-3.7-1.7 -0.1-2-0.2-3.9-0.3-5.9 0-2.1 0-4.1 0-6.4 3.3 0 6.2 0 8.9 0 0.4 0.9 0.7 1.6 1.1 2.3C353.1 176.8 353.6 174.4 352.1 171.1zM174 163.1c3.8 3.3 3.8 3.3 3.7 8.7 0 4.2-0.1 8.5 0 12.7 0.1 2.8 0.3 5.5-3 7.1 2.1 0.3 3.9 0.4 5.7 0.3 1.8-0.1 3.7 0.9 5.6-0.9 -1.5-0.5-2.7-0.8-4.2-1.3 -0.1-3.6-0.2-7.2-0.3-10.8 0-1.2 0.6-2 1.8-1.9 3.3 0.1 7-1.3 9.7 2.5 0-2.6 0-4.7 0-7.6 -3.5 4.5-7.5 2.8-11.4 2.8 0-2.6 0-4.7 0-6.8 0-2.4 1.1-3.7 3.3-3.4 3.3 0.5 7-0.1 10 3.4 0.3-2 0.5-3.2 0.7-4.8C188.3 163.1 181.3 163.1 174 163.1zM222.5 191.8c0.1-0.3 0.3-0.6 0.4-0.9 -3.2-0.2-3.4-2.3-3.3-4.5 0.1-2.1 0.1-4.2 0.1-6.3 0-3.5 1.2-4.9 4.7-5.4 2.3-0.3 3.3 0.1 3.8 2.5 0.5 2.4 0.5 4.9 0.5 7.4 0 2.5 0.8 5.4-2.2 7.2 3 0.1 5.7 0.7 8.6-0.4 -2.5-0.9-2.7-2.7-2.6-4.8 0.1-3.1 0-6.2-0.1-9.3 -0.1-3.7-1.7-5-5.3-5.3 -2.6-0.3-4.4 1.4-6.5 2.2 -2.3-2.4-5.2-2.7-7.6-0.9 2.4 1.5 2.6 1.5 2.9 4.5 0.2 2.6 0.1 5.2 0.1 7.8 0 3.9 0 3.9-2.2 6.4C216.8 191.8 219.6 191.8 222.5 191.8zM154.1 185.3c-1.2 0.2-1.8-0.6-2.1-1.6 -0.6-1.6-1.3-3.2-1.9-4.9 -1.4-3.4-1.4-3.4 0-6.8 -2.8 0.9-5.5-0.4-8.2 0.6 1.2 1.6 2.4 2.7 3.1 4.1 2 4.3 3.8 8.6 5.6 13 0.3 0.8 0.3 2 0 2.8 -1.5 3.6-3.1 7.1-6.9 8.9 -0.4 0.2-0.5 0.7-0.9 1.1 3.2 1.3 5.6 0.4 7.1-2.6 0.8-1.6 1.5-3.4 2.2-5.1 2.4-5.5 4.7-11.1 7.1-16.6 0.9-2 2.1-3.9 3.3-6 -2.5-0.2-4.8-0.5-7.3 0.3 0.4 0.6 0.5 1 0.7 1.1 2 0.8 2.1 2 1.2 3.8C156 180 155.1 182.7 154.1 185.3zM310.3 192.4c1.9 0.1 4.1-0.1 5.9-1.8 3.5-3.1 4.8-7 3.9-11.4 -1.5-7.7-10-9.3-14.9-5.9 -3.8 2.7-5.4 7.5-4.2 12.2C302.4 190.6 304.9 192.5 310.3 192.4zM135.9 189.7c0.9 0.7 1.9 1.7 3.1 2.2 0.7 0.3 1.8-0.3 2.7-0.5 -0.2-0.8-0.1-2-0.5-2.3 -1.8-1-1.6-2.7-1.7-4.3 0-3.1 0-6.2 0-9.4 0-1.8-0.7-3.3-2.6-3.6 -3.5-0.6-7 0-10 1.9 -1.7 1.1-1.9 2.5-0.8 4.8 1.5-0.2 2.5-1.2 2.7-2.6 0.2-1.4 1.2-1.9 2.3-2.2 3.3-0.9 4.9 0.9 4.4 5.1 -1.1 0.6-2.3 1.2-3.5 1.8 -1.6 0.9-3.4 1.6-4.9 2.6 -2.2 1.5-3 4.3-2.1 6.5 0.8 2 2.6 2.8 5.7 2C132.5 191.6 134 190.6 135.9 189.7zM236.8 182.8c0.3 1.3 0.4 2.7 0.8 4 1.4 3.6 4.2 5.7 7.5 5.7 4.4 0 8.2-1.1 10.1-5.5 0.8-1.9 1.4-4.1 1.3-6.1 0-3.9-2-7-5.7-8.5 -3.4-1.4-6.7-1-9.8 1.3C238 176 236.9 179.1 236.8 182.8zM211 178.3c-2.4-7-9-8.7-13.4-4.2 -4.1 4.1-4.6 9.8-1.8 14.7 0.6 1 1.6 1.9 2.7 2.5 3.2 1.9 9.3 1.3 11.9-1.2 0.5-0.4 0.5-1.3 1-2.5 -3.7 1.6-6.9 3.9-10.2 0.9 -2-1.8-3.2-4-2.5-6.8C202.8 180.6 206.8 179.5 211 178.3zM478.4 163.3c-2.4-0.6-7.5-0.4-8.9 0.3 2.5 1.9 2.5 1.9 2.5 4.8 0 5.6 0 11.2-0.1 16.9 0 2.2 0.5 4.6-2.5 6.7 6.6 0 12.2 0 17.8 0 3.1 0 3.1-0.2 3.7-4 -2.3 0.7-4.4 1.7-6.7 2.1 -2.3 0.4-4.7 0.1-7.4 0.1 -0.2-1.5-0.5-3-0.5-4.4 0-6 0-12 0-18C476.4 164.9 476.4 164.9 478.4 163.3zM363.6 192.2c3.9 1 6.4-1.3 8.2-4.2 1.8-2.8 2.3-6 1.5-9.3 -1.9-7.6-10.4-8.5-14.8-5.1 -2.2 1.7-3.4 3.9-4.2 6.4C352.4 186.6 356.8 192.3 363.6 192.2zM55.6 192.4c1.5-0.4 3.2-0.5 4.6-1.2 4.4-2.1 5.4-6.1 5.4-10.5 -0.1-4.7-2.2-7.3-6.7-8.8 -4.2-1.4-8.7 0.8-11.1 4.4 -1.5 2.3-1.5 4.7-1.4 7.1C46.4 189.4 49.7 192.4 55.6 192.4zM410.2 133.5c5 0 8.9-3.2 8.9-7.4 0-5.1-3.1-8.3-8.4-8.3 -4.8 0-8.5 3.3-8.6 7.8C402.2 129.9 405.8 133.5 410.2 133.5zM78.6 160c-0.1 0.4-0.2 0.7-0.4 1.1 2.2-0.3 2.8 1 3.1 2.6 0.2 1 0.3 2 0.3 2.9 0 5.9 0 11.7 0 17.6 0 2.7 0.1 5.3-2.5 7.4 3.4 0 6.3 0 9.6 0 -3.4-2.8-3.4-2.8-3.4-7.4 0-2.4 0-4.7 0-7.1 0-4.9 0-9.7 0-14.6 0-1.3 0-2.7-1.7-2.8C81.9 159.8 80.2 160 78.6 160zM416.4 191.2c-3.6-1.2-3.9-1.5-3.9-4.9 0-6.5 0-13 0-19.4 0-2.2 0-4.4 0-6.8 -2.5-0.1-4.5-0.6-6.1 0.3 0.7 1.1 1.5 1.9 1.9 2.8 0.4 1 0.5 2.2 0.5 3.3 0 6.6 0 13.2 0 19.8 0 2 0.1 3.9-2.5 4.9C409.1 192.2 413.6 192.2 416.4 191.2zM434.3 178.1c-0.4-0.9-0.6-1.3-0.8-1.7 -1.3-2.8-3.3-4.5-6.6-4.5 -3.6 0-6.4 1-8.1 4.6 -1.2 2.5-1.3 5.1-1.2 7.7 0.4 7.1 6.2 9.7 12.9 7.5 0.1 0 0.1-0.4 0.2-0.6 -2.3-0.8-4.8-1.2-6.7-2.5 -2.2-1.4-2.5-4.1-2.9-6.7C425.4 180.6 429.6 179.4 434.3 178.1zM288.2 191.6c-3.3-2.2-3.3-2.2-3.3-6.1 0-7.5 0-15-0.1-22.4 0-1-0.2-2.1-0.4-3.2 -1.9 0.1-3.3 0.2-4.5 0.3 0.5 2 1.2 3.7 1.3 5.5 0.1 7 0 14 0 20.9 0 3 0 3-2.5 5.2C282 192 284.9 192.3 288.2 191.6zM77.2 191.8c0.1-0.3 0.2-0.6 0.4-0.8 -2.6-0.4-3.2-2-3.1-4.2 0.1-7.1 0-14.2 0-21.3 0-1.8 0-3.7 0-5.8 -1.9 0.4-3.3 0.7-4.6 1 0.3 1.8 0.7 3.4 0.7 5 0.1 6.4 0.1 12.7 0.1 19.1 0 2.4 0.7 5-1.9 7.1C71.8 191.8 74.5 191.8 77.2 191.8zM436 172.2c-0.1 0.3-0.3 0.5-0.4 0.8 3.7 1.1 3.5 3.9 3.4 6.7 -0.1 1.4 0 2.7 0 4.1 0 2.8 0.6 5.8-3 8.3 3.7 0 6.4 0 9.2 0 0.3 0 0.6-0.3 1-0.5 -0.3-0.4-0.5-0.8-0.7-0.8 -2.5-0.5-3-2.2-2.9-4.5 0.1-2.4 0-4.7 0-7.1 0.1-2.3 1.7-3.9 4-3.8 1 0 1.9 0.4 2.9 0.7 0.8-1.1 1.9-2.5 0.5-3.5 -0.9-0.6-2.6-0.5-3.8-0.3 -0.9 0.2-1.5 1.2-2.3 1.8 -0.3 0.2-0.6 0.3-0.9 0.5 -0.3-1-0.6-1.9-0.9-2.8C439.8 171.9 437.9 172 436 172.2zM296 171.6c-2.6 0.7-4.7-0.3-6.6 1.2 2.7 2.3 2.7 2.3 2.7 5.7 0 2.1 0 4.2 0 6.3 0 2.4 0.7 5.1-2.3 6.8 3.3 0.1 6.3 0.7 9.3 0 0-0.4 0-0.5 0-0.6 -0.2-0.2-0.3-0.4-0.5-0.5 -2.4-0.5-2.6-2.2-2.5-4.3 0.1-1.9 0-3.7 0-5.6C296 177.9 296 175.1 296 171.6zM90.1 172.2c-0.2 0.3-0.5 0.7-0.7 1 3.6 0.8 3.2 3.4 3.2 5.7 0 2.5-0.1 5-0.1 7.5 0 1 0.3 2.1-0.1 2.9 -0.4 0.8-1.4 1.4-2.2 2.2 4.8 0.9 7.4 0.7 9.3-0.3 -0.2-0.2-0.3-0.5-0.5-0.5 -2.4-0.2-2.6-1.7-2.6-3.7 0.1-4.9 0-9.9 0-14.7C94.1 172.2 92.1 172.2 90.1 172.2zM449.2 197.9c3.1 0.4 3.3 0.3 4.3-3.5 0.9-3.7 0.1-5.2-3.7-6.6 -2.2 2.5-2.1 2.9 1.8 4.9C450.9 194.4 450.1 196 449.2 197.9zM293.7 163c-1.2 0-2.3 1.5-2.2 2.9 0.1 1.5 1.1 1.6 2.3 1.7 1.6 0 2.3-0.8 2.3-2.2C296 164.1 294.9 163 293.7 163zM520 187.8c-0.5 0.5-1.6 1.1-2 2.1 -0.5 1.3 1 2.6 2.5 2.6 1.3 0 2.1-0.5 2.1-2C522.6 188.7 522 187.8 520 187.8zM498.3 190.1c0.1-1.2-0.7-1.9-2-2.1 -1.3-0.2-2.5 1-2.5 2.4 0 1.5 1.1 1.8 2.2 2C497.2 192.6 498.2 191.5 498.3 190.1zM91.7 164.8c0.5 1.5 1 2.9 2.7 2.4 0.8-0.2 1.8-1.1 1.9-1.8 0.1-0.7-0.7-1.8-1.5-2.2C93.2 162.4 92.6 164 91.7 164.8zM431 190.2c1.3 0.9 2.1 0.7 2.6-0.9C432.3 188.7 431.5 188.8 431 190.2z"/><path fill="#023067" d="M186.1 134.2c0-2 0-3.9 0-6.1 2.3 0 4.4 0.1 6.5 0 3.2-0.2 3.9-1 3.9-4.2 0.1-16.2 0.1-32.5 0.1-48.7 0-0.5-0.2-0.9-0.3-1.3 -3.9-0.7-48.9-0.6-51.9 0.2 -0.1 1-0.2 2.1-0.2 3.2 0 8.6-0.2 17.3 0 25.9 0.2 6.2 0.8 12.4 1.3 18.6 0.3 3 1.8 5.2 5 5.8 2.2 0.4 4.4 0.5 6.7 0.7 1 0.1 1.9 0 3.1 0 0 2.1 0 3.9 0 5.9 -16 0-31.8 0-47.8 0 -0.1-1.1-0.2-2-0.3-3 -0.3-2.7 0-2.9 2.7-3 1.4 0 2.8 0.1 4.1 0 2.6-0.2 3.5-0.9 4.1-3.5 0.2-1 0.3-2 0.3-3 0-26.4 0.1-52.7-0.1-79.1 0-5.1-0.7-10.2-1.3-15.3 -0.4-3.3-2.9-5.5-6.4-5.7 -2.1-0.1-4.2 0-6.5 0 -1.2-2-0.8-4-0.3-6.5 3.2 0 6.4 0 9.5 0 11.1 0 22.2 0 33.4 0 4 0 4.9 1.1 3.8 5 -0.1 0.5-0.5 0.8-0.9 1.5 -2.3 0-4.6 0-7 0 -2 0-3 0.9-3.3 2.8 -0.1 0.9-0.3 1.7-0.3 2.6 0 12.5 0.1 25 0.2 37.4 0 0.1 0.1 0.2 0.2 0.3 2.7 0.8 43.9 1.1 51.7 0.4 0.1-0.6 0.3-1.3 0.3-2 0-9.7 0-19.5-0.2-29.2 0-2.5-0.6-4.9-1.2-7.3 -0.8-3.3-2.8-4.8-6.2-4.9 -1.2-0.1-2.5 0-3.7 0 -1.1 0-2.2 0-3.7 0 0-2.2 0-4.1 0-6.3 15.7 0 31.4 0 47.2 0 0.1 0.6 0.3 1.2 0.3 1.8 0.1 1.2 0 2.4 0 4.2 -2.5 0-4.7 0-6.9 0 -3.2 0.1-4 0.8-4.1 3.9 0 0.9 0 1.7 0 2.6 0 27.4 0 54.7 0 82.1 0 4.1 0.4 8.2 0.9 12.3 0.4 3.1 2.3 5.2 5.7 5.4 2.7 0.2 5.4 0.5 8.3 0.8 1.1 1.8 0.8 3.7-0.1 5.8C217.6 134.2 202 134.2 186.1 134.2z"/><path fill="#023067" d="M341.7 134.4c0-2 0-3.7 0-5.7 0.8-0.2 1.6-0.5 2.4-0.5 1.6-0.1 3.3 0.1 4.9 0 2.9-0.3 3.7-1.1 3.7-4 0.1-5 0-10 0-15 0-24.4 0-48.7-0.1-73.1 0-3.3-0.3-6.4-1.3-9.6 -1-3.1-2.9-4.7-6.2-4.9 -2.1-0.1-4.2 0-6.1 0 -0.3-0.5-0.6-0.7-0.6-0.9 -0.7-5.6-0.7-5.6 5-5.6 28 0 56 0 84 0 0.6 0 1.2 0.1 2.1 0.1 0.1 0.9 0.4 1.7 0.3 2.5 -0.7 4.8-1.5 9.6-2.3 14.4 -0.2 1.2-0.6 2.4-2 2.3 -1-0.1-2.5-0.7-2.7-1.5 -2.5-7.8-9.4-8.6-15.9-9.7 -9.3-1.5-18.7-0.8-28-0.9 -0.7 0-1.5 0.1-2.2 0.1 -1.5 0.1-2.3 0.9-2.3 2.4 0 0.7 0 1.5 0 2.2 0 11.5 0 23 0 34.5 0 1 0.2 1.9 0.3 2.9 1 0.2 1.7 0.4 2.4 0.4 9.2 0.2 18.5 0.7 27.7-0.5 1.1-0.1 2.2-0.5 3.3-0.8 2.4-0.8 3.8-2.3 3.6-5 -0.1-2.1 0-4.2 0-6.5 0.7-0.4 1.2-0.9 1.9-1.1 3.7-1.3 5.8-0.1 5.2 3.8 -0.6 4.3 0.3 8.6 0.1 12.9 -0.2 4.4 0 8.7 0 13.1 0 1.3-0.2 2.6-0.3 3.9 -1.8 0.4-3.2 0.6-4.7 0.9 -1.7-1.1-2.6-2.7-2.2-4.9 0.2-0.8 0.1-1.7 0-2.6 -0.1-3-1.9-4.9-4.8-5.1 -6.4-0.3-12.9-0.6-19.3-0.8 -3.2-0.1-6.5-0.1-9.7 0 -2.5 0.1-3.1 0.7-3.1 3.2 -0.1 12.1-0.3 24.3 0.1 36.4 0.1 3.5-0.3 7.2 1.3 10.7 1.8 4.1 2 4.4 6.6 4.8 2.2 0.2 4.3 0.8 6.5 0.1 0.8-0.2 2 0.2 2 1.6 0 1.7 0 3.5 0 5.5C374.7 134.4 358.4 134.4 341.7 134.4z"/><path fill="#023067" d="M276.9 64.9c1.3 0.1 2.3 0.2 3.3 0.2 6.4 0 12.7 0.1 19.1-0.1 3.3-0.1 6.7-0.6 10-1.2 3.2-0.6 4.9-2.8 5-6.1 0.1-1.9 0-3.7 0-6 1.9-0.2 3.5-0.4 5.6-0.6 0.8 3.8 0.3 7.4 0.4 11 0.1 3.7 0 7.5 0 11.2 0 3.6 0 7.2 0 11 -2.1 0-3.8 0-5.9 0 -0.1-1.8-0.1-3.6-0.2-5.4 -0.1-3.9-0.9-5-4.8-5.8 -4.1-0.8-8.3-1.1-12.6-0.9 -5.5 0.2-11-0.2-16.4-0.3 -1.2 0-2.4 0.3-3.9 0.5 0 1.5 0 2.7 0 3.9 0 10.7-0.1 21.5 0 32.2 0 4 0.2 8 0.6 11.9 0.6 5.7 2.7 6.8 8 7.6 1.8 0.2 3.7-0.1 5.6 0 2 0.1 2.4 0.8 2.3 3.4 -0.1 2.5-0.7 3.1-2.6 3.1 -12-0.1-23.9-0.2-35.9-0.3 -2.7 0-5.5 0.1-8.2 0 -2.3-0.1-2.6-0.6-2.5-3.5 0.1-2.2 0.5-2.6 2.7-2.6 1.5 0 3 0.1 4.5 0 3.4-0.3 4-1 4-4.5 0-17.5 0-35 0-52.5 0-10.9 0.1-21.7-0.1-32.6 -0.1-3.8-0.6-7.7-1.3-11.5 -0.6-3.5-2.9-5.3-6.5-5.5 -1.6-0.1-3.2-0.1-4.9-0.1 -1.6 0-2.3-0.8-2.2-2.3 0-0.2 0-0.5 0-0.7 0-3.2 0.3-3.5 3.4-3.5 7.2 0 14.5 0.1 21.7 0.1 21.1 0 42.2 0 63.3 0 3.4 0 3.5 0.2 3 3.6 -0.6 4.2-1.2 8.4-1.7 12.6 -0.2 1.5-0.7 2.8-2.2 3.1 -1.6 0.4-2.7-0.9-3.1-2.2 -1.6-5.8-6.5-7.2-11.4-8.2 -4.6-0.9-9.4-1.4-14.1-1.7 -6-0.3-12-0.1-18-0.1 -0.9 0-1.9-0.1-2.6 0.3 -0.8 0.4-1.4 1.2-1.9 2 -0.3 0.5-0.1 1.2-0.1 1.8 0 12 0 24 0 36C276.6 63.1 276.8 63.8 276.9 64.9z"/><path fill="#023067" d="M14.4 215.1c0-1.3 0-2.1 0-3.4 2.9 0 5.7 0 8.5 0 84.7 0 169.4 0 254.2 0 80.3 0 160.7 0 241 0 1.6 0 3.3-0.2 4.9 0 0.6 0.1 1.6 1 1.6 1.6 0 0.6-0.8 1.6-1.5 1.7 -1.3 0.3-2.7 0.1-4.1 0.1 -121.8 0-243.7 0-365.5 0 -45.4 0-90.7 0-136.1 0C16.5 215.1 15.7 215.1 14.4 215.1z"/><path fill="#023067" d="M268.8 151c-52 0-104 0-156 0 -32 0-64 0-96 0 -0.5 0-1.1 0.2-1.5 0 -0.5-0.2-1.1-0.8-1.1-1.2 0-0.5 0.5-1.2 0.9-1.4 0.9-0.3 1.9-0.4 2.9-0.4 2.5-0.1 5-0.1 7.5-0.1 152.1 0 304.2 0 456.2 0 12.5 0 25 0 37.5 0 1 0 2.1-0.1 3 0.2 0.6 0.2 1 1.1 1.5 1.7 -0.6 0.4-1.1 0.9-1.7 1.1 -0.6 0.2-1.2 0-1.9 0 -37.9 0-75.7 0-113.6 0 -42.9 0-85.7 0-128.6 0C275.1 151.1 271.9 151.1 268.8 151 268.8 151.1 268.8 151 268.8 151z"/><path fill="#023067" d="M14.5 163.1c3.3 0 6.6 0 10.6 0 -5.3 3.3-2.2 7.6-3.1 11.5 4.9 0 9.3 0 13.9 0 0-2.6 0-4.9 0-7.3 0-2.3-2.1-2.7-4.1-4.1 4-0.8 7.3-0.3 10.9-0.3 -2.5 2.6-2.6 2.6-2.6 6.2 0 5.2 0 10.5 0 15.7 0 4.3 0 4.3 3.2 6.4 -2.1 0.8-6.2 1-10.4 0.2 0.6-0.5 1-1 1.4-1 1.3-0.3 1.6-1.1 1.6-2.2 0-3.6 0-7.2 0-11.1 -4.6 0-8.9 0-13.5 0 -1.2 3.7-0.6 7.6-0.4 11.5 0.1 2 2.2 1.6 3.6 2.2 -2.1 1.3-6.5 1.5-9.9 0.5 1.9-2.1 1.9-2.1 2-5.5 0-5.7 0-11.5 0-17.2 0-2.5-0.6-4.4-3.6-4.9C14.3 163.6 14.4 163.4 14.5 163.1z"/><path fill="#023067" d="M277.1 171.8c0.8 2.4-1.3 2.8-2 4.3 0.1 0.4 0.2 1 0.2 1.6 0.3 4.9-2.7 8.2-7.8 8.4 -2.5 0.1-2.5 0.1-3.8 2.4 1.3 0.4 2.5 1 3.7 1.2 2 0.4 4 0.4 5.9 0.7 3.2 0.5 5.9 4 5.1 7 -0.3 1.2-1.5 2.2-2.5 3 -4 3.4-9 3.4-13.5 2.1 -5.5-1.7-5-6.4-2.3-9 0.4-0.4 0.8-0.9 1.3-1.5 -0.5-0.8-1-1.5-1.6-2.4 0.7-1.3 1.6-2.8 2.1-3.9 -0.9-2.2-2.1-3.9-2.4-5.7 -0.7-4.2 2.7-8.2 6.9-8.3C270.1 171.8 273.6 171.8 277.1 171.8zM267.8 201.2c1.6 0.6 3.3 0.3 4.9-0.9 1.3-0.9 2.4-2 2.1-3.6 -0.3-1.6-1.5-2.6-3.1-2.9 -1.9-0.4-3.9-0.7-5.9-0.8 -2.1-0.1-4.5 2.4-4.5 4.3 0 1.9 1.9 3.7 4.2 3.9C266.2 201.3 266.9 201.2 267.8 201.2zM271.6 178.9c-0.3-0.7-0.6-2.2-1.3-3.4 -0.8-1.4-2.2-1.8-3.9-1.7 -1.8 0.2-2.6 1.6-2.9 3 -0.3 1.4-0.1 3 0.3 4.3 0.7 2.3 2.9 3.6 4.8 3.2C270.2 184 271.5 181.8 271.6 178.9z"/><path fill="#023067" d="M122.5 191.2c-4 1.5-5.2 1.4-6.9-0.5 -2.3 0.5-4.5 1.2-6.8 1.5 -2.6 0.3-4.5-1-5.9-3.2 -3.1-5-2-13.5 3.5-16 1.2-0.6 2.6-0.9 3.9-1 1.7-0.2 3.4 0 5.4 0 0-3 0-5.9 0-9 -0.7-0.2-1.4-0.3-2-0.7 -0.4-0.3-0.7-1-0.7-1.5 0-0.3 0.6-1 0.9-1 2-0.1 4.1 0 5.9 0 0 2.8 0 5.1 0 7.4 0 6.6 0 13.2 0 19.8C119.8 188.8 119.9 190.6 122.5 191.2zM115.9 181.4C115.9 181.4 116 181.4 115.9 181.4c0.1-1.4 0-2.7 0.1-4.1 0.1-1.6-0.8-2.6-2.1-3.3 -1.6-0.9-5-0.3-6.3 1 -3.2 2.9-3.4 9.9-0.4 12.9 1.8 1.8 4 1.5 6.2 0.8 2-0.6 2.6-2 2.5-4C115.8 183.7 115.9 182.5 115.9 181.4z"/><path fill="#023067" d="M510.7 178.6c0 3.5-0.1 6.6 0 9.7 0.1 2.2 2.3 1.4 3.7 2.4 -0.4 0.6-0.8 1.5-1.2 1.5 -3.2 0-6.3-0.2-9.7-0.7 2.6-1.3 2.7-3.6 2.8-5.7 0.1-6.1 0.1-12.2-0.1-18.3 0-1-1.2-1.9-2-2.8 -0.3-0.4-1-0.4-2.3-0.9 1.3-0.6 1.9-1 2.4-1 3.2 0 6.5 0 9.7 0 2.2 0 4.1 0.4 6.1 1.4 3.1 1.6 4.5 4.1 4 7.9 -0.4 3.1-2.6 5.7-5.6 6.2C516.2 178.8 513.7 179.9 510.7 178.6zM510.8 176.2c3.1 1.2 6.2 0.8 7.9-1.1 1.4-1.5 1.7-4.6 0.6-6.5 -1.5-2.8-4.5-4-8.5-3.3C510.8 168.9 510.8 172.5 510.8 176.2z"/><path fill="#023067" d="M384.3 193c-1.1-2-1.9-3.2-2.4-4.6 -1.2-3.1-2.1-6.4-3.5-9.4 -1-2.2-2.5-4.2-3.9-6.5 2.5 0 5.1 0 8 0 -1.8 1.4-1.7 2.9-0.9 4.6 0.9 1.9 1.6 3.9 2.4 5.8 0.3 0.7 0.9 1.3 1.6 2.1 1.1-1.8 2-3.2 2.7-4.7 1.3-2.8 0.5-5.3-2.8-7.7 3.4-0.2 6-0.4 8.5-0.5 -1.8 2.3-1.4 4.3-0.4 6.4 1 2.2 1.8 4.5 3.1 7.7 1.5-3.6 2.8-6.4 3.9-9.1 0.8-1.9-0.4-3.2-2.4-4.8 3.2 0 5.4 0 8.2 0 -0.6 0.7-1 1.2-1.3 1.7 -0.6 0.9-1.4 1.7-1.9 2.7 -2 4.3-3.9 8.6-5.9 12.9 -0.4 0.9-1.2 1.7-2.1 2.9 -1.6-4.1-2.9-7.7-4.5-11.6C387.4 184.2 386.7 188.4 384.3 193z"/><path fill="#023067" d="M352.1 171.1c1.5 3.3 1 5.7-0.4 8.3 -0.3-0.7-0.7-1.5-1.1-2.3 -2.8 0-5.6 0-8.9 0 0 2.2 0 4.3 0 6.4 0 2 0.2 4 0.3 5.9 1.4 0.6 2.5 1.2 3.7 1.7 -3.7 1.2-7.2 1-11.4 0.8 3.1-2.3 3.2-2.3 3.2-5.8 0-5 0-10 0-15 0-2.9 0.7-6.1-2.9-8 6.8 0 13.5 0 20.3 0 0.6 2 0.6 2-0.7 4 -3.5-2.7-7.6-2.4-11.6-2.2 -1 2.5-1.1 4.4-0.5 9.8 2.8 0 5.6 0 8.4 0C350.9 173.7 351.3 172.8 352.1 171.1z"/><path fill="#023067" d="M174 163.1c7.3 0 14.3 0 21.7 0 -0.2 1.6-0.4 2.8-0.7 4.8 -3-3.5-6.7-2.9-10-3.4 -2.2-0.3-3.3 1-3.3 3.4 0 2.1 0 4.2 0 6.8 3.9 0 7.9 1.7 11.4-2.8 0 2.9 0 5 0 7.6 -2.7-3.8-6.3-2.4-9.7-2.5 -1.2 0-1.8 0.7-1.8 1.9 0.1 3.6 0.2 7.2 0.3 10.8 1.6 0.5 2.7 0.9 4.2 1.3 -1.9 1.8-3.9 0.9-5.6 0.9 -1.8 0.1-3.6 0-5.7-0.3 3.3-1.6 3-4.3 3-7.1 -0.1-4.2-0.1-8.5 0-12.7C177.8 166.3 177.8 166.3 174 163.1z"/><path fill="#023067" d="M222.5 191.8c-2.9 0-5.7 0-8.8 0 2.2-2.5 2.2-2.5 2.2-6.4 0-2.6 0.2-5.2-0.1-7.8 -0.3-3-0.5-3-2.9-4.5 2.3-1.8 5.3-1.5 7.6 0.9 2.1-0.8 3.9-2.5 6.5-2.2 3.5 0.4 5.1 1.7 5.3 5.3 0.1 3.1 0.2 6.2 0.1 9.3 -0.1 2.1 0.1 3.9 2.6 4.8 -2.9 1.1-5.6 0.5-8.6 0.4 3.1-1.8 2.2-4.7 2.2-7.2 0-2.5 0-5-0.5-7.4 -0.5-2.3-1.5-2.8-3.8-2.5 -3.5 0.5-4.7 1.9-4.7 5.4 0 2.1 0 4.2-0.1 6.3 -0.1 2.3 0.1 4.3 3.3 4.5C222.8 191.2 222.6 191.5 222.5 191.8z"/><path fill="#023067" d="M154.1 185.3c1-2.6 1.9-5.3 3.1-7.8 0.8-1.8 0.8-3.1-1.2-3.8 -0.3-0.1-0.4-0.6-0.7-1.1 2.5-0.8 4.9-0.5 7.3-0.3 -1.2 2.1-2.4 4-3.3 6 -2.5 5.5-4.8 11.1-7.1 16.6 -0.7 1.7-1.4 3.4-2.2 5.1 -1.5 3-4 3.9-7.1 2.6 0.3-0.4 0.5-0.9 0.9-1.1 3.8-1.8 5.4-5.4 6.9-8.9 0.3-0.8 0.3-2 0-2.8 -1.8-4.4-3.6-8.7-5.6-13 -0.6-1.4-1.9-2.5-3.1-4.1 2.7-1 5.4 0.3 8.2-0.6 -1.3 3.4-1.3 3.4 0 6.8 0.6 1.6 1.3 3.2 1.9 4.9C152.4 184.7 152.9 185.5 154.1 185.3z"/><path fill="#023067" d="M310.3 192.4c-5.4 0.1-7.9-1.8-9.2-6.8 -1.2-4.7 0.4-9.5 4.2-12.2 4.9-3.4 13.3-1.8 14.9 5.9 0.9 4.4-0.5 8.3-3.9 11.4C314.4 192.3 312.3 192.5 310.3 192.4zM316.6 182.8c-0.6-2.1-1-4.3-1.9-6.3 -1.2-2.5-3.2-3.3-5.9-2.8 -1.8 0.3-3.8 2.7-3.9 4.9 -0.1 2-0.1 4 0.3 5.9 0.2 1.4 0.9 2.9 1.7 4 2.1 2.7 5.7 2.6 8 0C316.2 186.9 316.2 185 316.6 182.8z"/><path fill="#023067" d="M135.9 189.7c-1.9 0.9-3.5 2-5.2 2.4 -3.1 0.8-4.9 0-5.7-2 -0.9-2.3-0.2-5 2.1-6.5 1.5-1 3.2-1.8 4.9-2.6 1.2-0.6 2.4-1.2 3.5-1.8 0.5-4.2-1.1-6-4.4-5.1 -1.1 0.3-2 0.8-2.3 2.2 -0.3 1.4-1.2 2.4-2.7 2.6 -1.1-2.4-1-3.7 0.8-4.8 3-2 6.5-2.5 10-1.9 1.9 0.3 2.6 1.8 2.6 3.6 0 3.1 0 6.2 0 9.4 0 1.6-0.1 3.2 1.7 4.3 0.5 0.3 0.4 1.5 0.5 2.3 -0.9 0.2-2 0.8-2.7 0.5C137.8 191.4 136.8 190.4 135.9 189.7zM135.3 181.6c-2.5 0.3-4.4 1.9-6.1 3.6 -0.6 0.6-0.8 2.1-0.5 3 0.2 0.6 1.6 1.1 2.4 1.1C135.1 189.3 137 185.7 135.3 181.6z"/><path fill="#023067" d="M236.8 182.8c0.1-3.7 1.2-6.8 4.3-9.1 3.1-2.3 6.4-2.7 9.8-1.3 3.7 1.5 5.6 4.6 5.7 8.5 0 2-0.5 4.2-1.3 6.1 -1.9 4.4-5.8 5.5-10.1 5.5 -3.3 0-6.2-2.1-7.5-5.7C237.2 185.6 237.1 184.2 236.8 182.8zM252.7 182.9c0.3-2.2-0.4-4.4-1.7-6.5 -1.3-2.3-3.4-2.8-5.7-2.5 -1.8 0.2-3.7 2.2-3.9 4.4 -0.2 2 0.1 4 0 6 -0.1 2.5 1.4 4.2 3.2 5.6 2 1.5 4.4 1 6.3-0.8C252.7 187.3 252.7 185.3 252.7 182.9z"/><path fill="#023067" d="M211 178.3c-4.2 1.2-8.2 2.3-12.4 3.5 -0.7 2.8 0.5 5 2.5 6.8 3.4 3 6.5 0.7 10.2-0.9 -0.4 1.1-0.5 2-1 2.5 -2.6 2.5-8.8 3.1-11.9 1.2 -1-0.6-2.1-1.5-2.7-2.5 -2.8-4.9-2.2-10.5 1.8-14.7C202 169.6 208.6 171.4 211 178.3zM205.9 177.6c-0.8-3.4-1.1-3.7-5.1-3.7 -1 1.6-3.2 2.8-1.7 5.9C201.2 179.1 203.4 178.4 205.9 177.6z"/><path fill="#023067" d="M478.4 163.3c-2 1.6-2 1.6-2 4.4 0 6-0.1 12 0 18 0 1.4 0.3 2.9 0.5 4.4 2.7 0 5.1 0.3 7.4-0.1 2.2-0.3 4.4-1.3 6.7-2.1 -0.5 3.8-0.6 4-3.7 4 -5.6 0.1-11.2 0-17.8 0 3-2.1 2.4-4.5 2.5-6.7 0-5.6 0-11.2 0.1-16.9 0-3 0-3-2.5-4.8C470.9 162.9 476 162.7 478.4 163.3z"/><path fill="#023067" d="M363.6 192.2c-6.8 0.2-11.2-5.6-9.2-12.2 0.8-2.5 1.9-4.8 4.2-6.4 4.4-3.4 13-2.5 14.8 5.1 0.8 3.3 0.3 6.5-1.5 9.3C370 190.8 367.5 193.2 363.6 192.2zM370.3 182.9c-0.7-2.2-1.3-4.3-2.1-6.3 -0.9-2.4-3-2.8-5.2-2.7 -2.1 0.1-3.5 1.2-4.2 3 -1.6 4.1-1.1 8.1 1.4 11.6 2 2.9 6.2 2.9 8.2-0.1C369.4 186.9 369.7 184.9 370.3 182.9z"/><path fill="#023067" d="M55.6 192.4c-6-0.1-9.2-3-9.3-8.9 0-2.5-0.1-4.8 1.4-7.1 2.4-3.7 6.9-5.8 11.1-4.4 4.4 1.4 6.6 4.1 6.7 8.8 0.1 4.5-1 8.4-5.4 10.5C58.8 192 57.1 192.1 55.6 192.4zM49.7 181.2c0.5 1.9 0.8 3.7 1.5 5.4 1.3 3.1 3 4.2 5.9 4 2.2-0.2 4.1-2.3 4.6-5.2 0.5-3 0.1-6-1.4-8.6 -2.2-4-7.3-4.1-9.2-0.1C50.4 178 50.2 179.6 49.7 181.2z"/><path fill="#023067" d="M410.2 133.5c-4.4 0-8.1-3.6-8-7.9 0.1-4.5 3.8-7.8 8.6-7.8 5.2 0 8.4 3.2 8.4 8.3C419.1 130.3 415.2 133.6 410.2 133.5zM413.2 120.8c-0.3-0.4-0.5-1.3-0.7-1.3 -1.4 0.1-2.8 0.4-4.2 0.6 0 0.2 0 0.4 0 0.6C410 120.7 411.6 120.7 413.2 120.8c0.2 1.9 1.5 3.8-0.3 5.7 1 0.9 1.8 1.5 2.6 2.2C417.8 125.1 416.9 122.4 413.2 120.8zM406.7 129.7c0.7-3 1.3-5.3-0.1-7.8C403.3 124.6 403.2 126 406.7 129.7zM410.8 127.2c-1 1.5-1.8 2.8-2.9 4.4 2.1-0.1 3.8-0.2 5.5-0.3 0.1-0.3 0.2-0.6 0.3-0.9C412.8 129.4 411.8 128.3 410.8 127.2zM410.7 122.1c-1.1 0.8-1.8 1.7-0.9 2.8 0.2 0.3 1 0.4 1.3 0.3C412.2 124.3 411.9 123.3 410.7 122.1z"/><path fill="#023067" d="M78.6 160c1.7-0.1 3.4-0.3 5.1-0.2 1.7 0.1 1.7 1.5 1.7 2.8 0 4.9 0 9.7 0 14.6 0 2.4 0 4.7 0 7.1 0 4.5 0 4.5 3.4 7.4 -3.2 0-6.1 0-9.6 0 2.6-2.1 2.5-4.8 2.5-7.4 0-5.9 0-11.7 0-17.6 0-1-0.2-2-0.3-2.9 -0.3-1.6-0.9-2.9-3.1-2.6C78.3 160.8 78.4 160.4 78.6 160z"/><path fill="#023067" d="M416.4 191.2c-2.8 1-7.3 1-10.1 0 2.6-0.9 2.5-2.9 2.5-4.9 0-6.6 0-13.2 0-19.8 0-1.1-0.1-2.3-0.5-3.3 -0.4-1-1.1-1.8-1.9-2.8 1.6-1 3.6-0.5 6.1-0.3 0 2.4 0 4.6 0 6.8 0 6.5 0 13 0 19.4C412.6 189.7 412.8 190 416.4 191.2z"/><path fill="#023067" d="M434.3 178.1c-4.7 1.3-8.9 2.5-13.3 3.8 0.4 2.6 0.7 5.3 2.9 6.7 2 1.2 4.5 1.7 6.7 2.5 0 0.2 0 0.6-0.2 0.6 -6.7 2.2-12.6-0.4-12.9-7.5 -0.1-2.6 0-5.2 1.2-7.7 1.7-3.6 4.5-4.7 8.1-4.6 3.3 0 5.3 1.7 6.6 4.5C433.6 176.8 433.9 177.2 434.3 178.1zM429.7 177.9c-1.4-3.6-2.6-4.7-5-4.1 -2.6 0.7-3.1 3.1-3.7 5.4C424.4 180.6 426.5 177.5 429.7 177.9z"/><path fill="#023067" d="M288.2 191.6c-3.3 0.6-6.1 0.4-9.4 0.1 2.5-2.2 2.5-2.2 2.5-5.2 0-7 0.1-14 0-20.9 0-1.8-0.8-3.5-1.3-5.5 1.2-0.1 2.6-0.2 4.5-0.3 0.1 1.2 0.4 2.2 0.4 3.2 0 7.5 0 15 0.1 22.4C284.8 189.4 284.9 189.4 288.2 191.6z"/><path fill="#023067" d="M77.2 191.8c-2.7 0-5.3 0-8.5 0 2.6-2.1 1.9-4.7 1.9-7.1 0.1-6.4 0-12.7-0.1-19.1 0-1.6-0.4-3.2-0.7-5 1.3-0.3 2.7-0.6 4.6-1 0 2.1 0 3.9 0 5.8 0 7.1 0.1 14.2 0 21.3 0 2.2 0.5 3.8 3.1 4.2C77.4 191.2 77.3 191.5 77.2 191.8z"/><path fill="#023067" d="M436 172.2c1.9-0.1 3.9-0.3 6-0.4 0.3 0.9 0.6 1.8 0.9 2.8 0.3-0.2 0.7-0.3 0.9-0.5 0.8-0.6 1.4-1.6 2.3-1.8 1.2-0.3 2.9-0.4 3.8 0.3 1.4 1 0.3 2.4-0.5 3.5 -1-0.3-2-0.7-2.9-0.7 -2.3-0.1-4 1.5-4 3.8 -0.1 2.4 0.1 4.7 0 7.1 -0.1 2.2 0.4 3.9 2.9 4.5 0.3 0.1 0.4 0.5 0.7 0.8 -0.4 0.2-0.7 0.5-1 0.5 -2.7 0-5.4 0-9.2 0 3.6-2.5 3-5.5 3-8.3 0-1.4-0.1-2.7 0-4.1 0.2-2.8 0.3-5.6-3.4-6.7C435.7 172.7 435.8 172.4 436 172.2z"/><path fill="#023067" d="M296 171.6c0 3.5 0 6.3 0 9.1 0 1.9 0.1 3.7 0 5.6 -0.1 2.1 0.1 3.7 2.5 4.3 0.2 0 0.4 0.3 0.5 0.5 0.1 0.1 0 0.2 0 0.6 -3 0.7-6 0.1-9.3 0 3-1.7 2.3-4.4 2.3-6.8 0-2.1 0-4.2 0-6.3 0-3.4 0-3.4-2.7-5.7C291.2 171.3 293.3 172.3 296 171.6z"/><path fill="#023067" d="M90.1 172.2c2 0 4 0 6.4 0 0 4.9 0.1 9.8 0 14.7 0 1.9 0.2 3.5 2.6 3.7 0.2 0 0.3 0.3 0.5 0.5 -1.9 1.1-4.5 1.2-9.3 0.3 0.8-0.8 1.8-1.4 2.2-2.2 0.4-0.8 0.1-1.9 0.1-2.9 0-2.5 0.1-5 0.1-7.5 0-2.3 0.4-4.9-3.2-5.7C89.6 172.9 89.8 172.6 90.1 172.2z"/><path fill="#023067" d="M449.2 197.9c0.9-1.9 1.6-3.5 2.4-5.1 -3.9-2-4-2.4-1.8-4.9 3.8 1.4 4.6 2.9 3.7 6.6C452.6 198.2 452.4 198.3 449.2 197.9z"/><path fill="#023067" d="M293.7 163c1.2 0 2.3 1 2.3 2.3 0 1.5-0.7 2.3-2.3 2.2 -1.2 0-2.2-0.1-2.3-1.7C291.3 164.5 292.5 163.1 293.7 163z"/><path fill="#023067" d="M520 187.8c2 0.1 2.6 1 2.6 2.7 0 1.5-0.8 2-2.1 2 -1.5 0-2.9-1.3-2.5-2.6C518.4 188.9 519.5 188.2 520 187.8z"/><path fill="#023067" d="M498.3 190.1c-0.1 1.3-1.1 2.5-2.3 2.3 -1.1-0.2-2.2-0.5-2.2-2 0-1.4 1.2-2.6 2.5-2.4C497.6 188.2 498.4 189 498.3 190.1z"/><path fill="#023067" d="M91.7 164.8c0.9-0.9 1.5-2.4 3.2-1.6 0.7 0.4 1.5 1.5 1.5 2.2 -0.1 0.7-1.1 1.6-1.9 1.8C92.7 167.7 92.2 166.3 91.7 164.8z"/><path fill="#023067" d="M431 190.2c0.5-1.4 1.3-1.4 2.6-0.9C433.1 190.8 432.3 191.1 431 190.2z"/><path fill="#FBFBFB" d="M267.8 201.2c-1 0-1.6 0-2.2 0 -2.3-0.2-4.2-2-4.2-3.9 0-1.9 2.4-4.4 4.5-4.3 2 0.1 3.9 0.4 5.9 0.8 1.6 0.3 2.8 1.3 3.1 2.9 0.3 1.6-0.8 2.7-2.1 3.6C271.1 201.5 269.4 201.8 267.8 201.2z"/><path fill="#FBFBFB" d="M271.6 178.9c0 2.9-1.4 5.1-3 5.4 -1.9 0.4-4.1-0.9-4.8-3.2 -0.4-1.4-0.6-3-0.3-4.3 0.3-1.3 1.1-2.8 2.9-3 1.6-0.2 3.1 0.3 3.9 1.7C271 176.7 271.3 178.2 271.6 178.9z"/><path fill="#FBFBFB" d="M115.9 181.4c0 1.1-0.1 2.2 0 3.4 0.2 2-0.5 3.4-2.5 4 -2.2 0.7-4.4 1-6.2-0.8 -3.1-3.1-2.9-10 0.4-12.9 1.4-1.3 4.7-1.8 6.3-1 1.3 0.7 2.1 1.7 2.1 3.3C115.9 178.7 116 180.1 115.9 181.4 116 181.4 115.9 181.4 115.9 181.4z"/><path fill="#FBFBFB" d="M510.8 176.2c0-3.7 0-7.3 0-10.9 4-0.6 7 0.6 8.5 3.3 1.1 2 0.8 5-0.6 6.5C517.1 176.9 513.9 177.4 510.8 176.2z"/><path fill="#FBFBFB" d="M316.6 182.8c-0.4 2.1-0.3 4.1-1.8 5.8 -2.3 2.6-5.9 2.7-8 0 -0.9-1.1-1.5-2.6-1.7-4 -0.3-1.9-0.4-3.9-0.3-5.9 0.1-2.2 2.1-4.6 3.9-4.9 2.6-0.5 4.7 0.3 5.9 2.8C315.5 178.5 315.9 180.7 316.6 182.8z"/><path fill="#FBFBFB" d="M135.3 181.6c1.7 4.1-0.3 7.7-4.2 7.6 -0.9 0-2.2-0.5-2.4-1.1 -0.3-0.9-0.2-2.4 0.5-3C130.9 183.5 132.8 181.9 135.3 181.6z"/><path fill="#FBFBFB" d="M252.7 182.9c0 2.4 0 4.4-1.8 6.1 -1.9 1.8-4.3 2.3-6.3 0.8 -1.8-1.4-3.3-3-3.2-5.6 0-2-0.2-4 0-6 0.2-2.2 2.1-4.2 3.9-4.4 2.3-0.2 4.4 0.2 5.7 2.5C252.3 178.5 253 180.7 252.7 182.9z"/><path fill="#FBFBFB" d="M205.9 177.6c-2.5 0.8-4.6 1.5-6.8 2.1 -1.5-3 0.7-4.2 1.7-5.9C204.7 174 205.1 174.2 205.9 177.6z"/><path fill="#FBFBFB" d="M370.3 182.9c-0.7 2-0.9 4.1-1.9 5.6 -2 3-6.2 3-8.2 0.1 -2.4-3.6-2.9-7.6-1.4-11.6 0.7-1.8 2.1-3 4.2-3 2.2-0.1 4.3 0.3 5.2 2.7C369.1 178.6 369.6 180.7 370.3 182.9z"/><path fill="#FBFBFB" d="M49.7 181.2c0.4-1.6 0.7-3.2 1.3-4.6 1.9-4 7-3.8 9.2 0.1 1.5 2.7 1.9 5.6 1.4 8.6 -0.5 2.8-2.4 5-4.6 5.2 -2.8 0.3-4.6-0.8-5.9-4C50.5 184.9 50.2 183.1 49.7 181.2z"/><path fill="#FBFBFB" d="M406.7 129.7c-3.5-3.7-3.4-5.1-0.1-7.8C408 124.4 407.4 126.7 406.7 129.7z"/><path fill="#FBFBFB" d="M413.2 120.8c3.7 1.7 4.6 4.3 2.4 7.9 -0.8-0.7-1.6-1.3-2.6-2.2C414.7 124.6 413.5 122.7 413.2 120.8L413.2 120.8z"/><path fill="#FBFBFB" d="M410.8 127.2c1 1.1 2 2.2 3 3.3 -0.1 0.3-0.2 0.6-0.3 0.9 -1.7 0.1-3.5 0.2-5.5 0.3C409 130 409.8 128.8 410.8 127.2z"/><path fill="#FBFBFB" d="M410.7 122.1c1.2 1.2 1.5 2.2 0.4 3.1 -0.2 0.2-1.1 0-1.3-0.3C408.9 123.8 409.6 123 410.7 122.1z"/><path fill="#FBFBFB" d="M413.3 120.7c-1.7 0-3.3 0-5 0 0-0.2 0-0.4 0-0.6 1.4-0.2 2.8-0.5 4.2-0.6C412.7 119.5 413 120.3 413.3 120.7L413.3 120.7z"/><path fill="#FBFBFB" d="M429.7 177.9c-3.2-0.4-5.4 2.7-8.7 1.3 0.6-2.3 1.1-4.7 3.7-5.4C427.1 173.2 428.3 174.3 429.7 177.9z"/></svg>