<?xml version="1.0" encoding="utf-8"?>
<!-- Generator: Adobe Illustrator 19.2.1, SVG Export Plug-In . SVG Version: 6.00 Build 0)  -->
<!DOCTYPE svg PUBLIC "-//W3C//DTD SVG 1.1//EN" "http://www.w3.org/Graphics/SVG/1.1/DTD/svg11.dtd">
<svg version="1.1" id="Layer_1" xmlns="http://www.w3.org/2000/svg" xmlns:xlink="http://www.w3.org/1999/xlink" x="0px" y="0px"
	 viewBox="0 0 201 106" style="enable-background:new 0 0 201 106;" xml:space="preserve">
<style type="text/css">
	.st0{fill:#FFFFFF;}
</style>
<path class="st0" d="M200.2,23.3c-0.1-3.2,0.2-6.7-0.1-9.7c-6.5,0.3-11.1,1.2-14.8,3.9c-2.8,2-5.5,6.1-5.6,11.2
	c-0.1,3.5,0.9,7.2,1.8,10.8c1.2,4.7,3.1,10.8,0.3,14.4c-3.2,4.1-11.4,4.5-15,0.7c-2.4-2.5-2.9-5.8-2.9-10.4
	c-2.7-0.2-6.3,0.1-10.2-0.1c-0.4,9.5,2.5,15.6,8.2,19.6c3.9,2.7,8.8,4.1,13.9,3.8c7.1-0.4,12.8-4.1,16.5-9.1
	c0.4-0.5,0.9-1.9,1.2-2.9c0.6-1.5,1.1-2.8,1.2-4.8c0.3-3.6-0.8-6.4-1.8-9.3c-1.3-4-3.8-10-1-14.2c1.6-2.3,4.5-3.1,7.9-3.8
	C200,23.6,200.1,23.5,200.2,23.3"/>
<path class="st0" d="M164.2,13.5c-3.6-0.1-6.9,0-11,0c0,10-0.1,19-0.1,29c3.4,0.2,7.8,0.2,11.2,0C163.9,35.2,164.3,24.9,164.2,13.5"
	/>
<path class="st0" d="M76.1,67.4c3.4,0.1,8.5-0.2,12,0.1C88,57.9,88.2,48.7,88.2,39c0-3.5-0.3-7.1,0-10.5c0.2-1.7,1.2-3.6,2.4-4.2
	c2.5-1.2,5.6,0.3,6.4,2.6c1.3,3.6-2.2,7-5.7,5.7c-0.6-0.2-0.9-0.8-1.5-0.7c0,4.6,0,8.3,0,12.8c4.8,0.9,9.1-0.2,12.4-2.6
	c4.1-2.9,7.6-7.6,7.1-15c-0.7-10.4-11.7-17.9-22.7-13.8c-2.7,1-4.7,2.3-6.4,4.4c-2.5,2.9-3.9,6.8-4.1,12.1
	C75.6,42,76.5,55.5,76.1,67.4"/>
<path class="st0" d="M71,31.2v-0.3c-3.6-0.6-7-1.1-10.5-1.5c0.3,4.2-4.5,5.8-7.5,3.5c4.8-4.9,10.3-9.1,15-14
	c-3.5-4.6-8.1-7.5-15.3-6.9c-3.2,0.2-6.4,1.9-8.4,3.5c-3.9,3.2-6.8,8.5-6.3,14.8c0.6,7.3,7,13.6,14,14.6c6,0.8,10.8-1.8,14-4.8
	C68.5,38,70.2,35.1,71,31.2 M55.1,22.6c0,0.2,0.2,0.2,0.1,0.4c-2,1.8-3.9,3.8-6,5.4C47.4,24.4,51.5,20,55.1,22.6"/>
<path class="st0" d="M0.1,67.4c3.8,0.3,8.1,0,12,0.1V33.9c0-3.9-0.2-8.2,2.3-9.5c2.6-1.4,6,0.2,6.7,2.7c1,3.5-2.2,6.7-5.7,5.4
	c-0.6-0.2-0.9-0.7-1.5-0.7v12.9c10.8,1.3,17.6-5.2,19.3-13.9c0.8-3.8-0.6-8.7-2.3-11.3c-1.8-2.8-5.5-5.8-9.7-6.9
	c-6.8-1.8-13.8,1.1-17,4.9c-2,2.4-3.6,5.9-3.9,9.5c-0.4,3.9-0.1,8.7-0.1,13.3C0.1,40.5,0.1,67.4,0.1,67.4z"/>
<path d="M200.2,23.3c-0.1-3.2,0.2-6.7-0.1-9.7c-6.5,0.3-11.1,1.2-14.8,4c-2.8,2-5.5,6.1-5.6,11.2c-0.1,3.5,0.9,7.2,1.8,10.8
	c1.2,4.7,3.1,10.8,0.3,14.4c-3.2,4.1-11.4,4.5-15,0.7c-2.4-2.5-2.9-5.8-2.9-10.3c-2.7-0.2-6.3,0.1-10.2-0.1
	c-0.4,9.5,2.5,15.6,8.2,19.6c3.9,2.7,8.8,4.1,13.9,3.8c7.1-0.4,12.8-4.1,16.5-9.1c0.4-0.5,0.9-1.9,1.2-2.9c0.6-1.5,1.1-2.8,1.2-4.8
	c0.3-3.6-0.8-6.4-1.8-9.3c-1.3-4-3.8-10-0.9-14.2c1.6-2.3,4.5-3.1,7.9-3.8C200,23.6,200.1,23.5,200.2,23.3"/>
<path d="M172.7,3.7c-1,1-2,2.2-2.9,3.4c-0.9,1.2-1.7,2.4-2.6,3.5c1.1,1.9,2.7,3.4,4.6,4.6c2-1.6,3.9-4.8,5.2-6.9
	c0.3-0.6-1.4-2.2-1.9-2.7C174.2,4.8,173.5,4.3,172.7,3.7"/>
<path d="M164.2,13.5c-3.6-0.1-6.9,0-11,0c0,10-0.1,19-0.1,29c3.4,0.2,7.8,0.2,11.2,0C163.9,35.3,164.3,24.9,164.2,13.5"/>
<path d="M114.2,67.7h11.8v-29c0-5.1-0.9-12.2,2.2-14.2c3.4-2.1,7.8,1.1,6.8,5c-0.6,2.3-3.1,3.9-5.7,3c-0.6-0.2-1-0.8-1.6-0.7
	c0.2,3.4,0,9.1,0.1,12.9c5.5,0.7,9.4-0.5,12.7-3c4.5-3.4,8.4-9.4,6.4-17.3c-0.7-2.9-1.8-4.9-3.7-6.9c-2.7-3-7.1-5.4-12.7-5.4
	c-3.6,0-7.4,1.4-9.5,2.9c-3.1,2.2-5.2,5.4-6.3,9.3c-1,3.8-0.6,9-0.5,13.1C114.4,47.1,113.7,57.8,114.2,67.7"/>
<path d="M76.1,67.5c3.4,0.1,8.5-0.2,12,0.1C88,57.9,88.2,48.7,88.2,39c0-3.5-0.3-7.1,0-10.5c0.2-1.7,1.2-3.6,2.4-4.2
	c2.5-1.2,5.6,0.3,6.4,2.6c1.3,3.6-2.2,7-5.7,5.7c-0.6-0.2-0.9-0.8-1.5-0.7c0,4.6,0,8.3,0,12.8c4.8,0.9,9.1-0.2,12.4-2.6
	c4.1-2.9,7.6-7.6,7.1-15c-0.7-10.4-11.7-17.9-22.7-13.8c-2.7,1-4.7,2.3-6.4,4.4c-2.5,2.9-3.9,6.8-4.1,12.1
	C75.6,42.1,76.5,55.5,76.1,67.5"/>
<path d="M71,31.2V31c-3.6-0.6-7-1.1-10.5-1.5c0.3,4.2-4.5,5.8-7.5,3.5c4.8-4.9,10.3-9.1,15-14c-3.5-4.6-8.1-7.5-15.3-6.9
	c-3.2,0.2-6.4,1.9-8.4,3.5c-3.9,3.2-6.8,8.5-6.3,14.8c0.6,7.3,7,13.6,14,14.6c6,0.8,10.8-1.7,14-4.8C68.5,38,70.2,35.1,71,31.2
	 M55.1,22.6c0,0.2,0.2,0.2,0.1,0.4c-2,1.8-3.9,3.8-6,5.4C47.4,24.4,51.5,20.1,55.1,22.6"/>
<path d="M0.1,67.5c3.8,0.3,8.1,0,12,0.1V34c0-3.9-0.2-8.2,2.3-9.5c2.6-1.4,6,0.2,6.7,2.7c1,3.5-2.2,6.7-5.7,5.4
	c-0.6-0.2-0.9-0.7-1.5-0.7v12.9c10.8,1.3,17.6-5.2,19.3-13.9c0.8-3.8-0.6-8.7-2.3-11.3c-1.8-2.8-5.5-5.8-9.7-6.9
	c-6.8-1.8-13.8,1.1-17,4.9c-2,2.4-3.6,5.9-4,9.5c-0.4,3.9-0.1,8.7-0.1,13.3L0.1,67.5L0.1,67.5z"/>
<path d="M164.1,5.2c0,2.9-2.3,5.2-5.2,5.2s-5.2-2.3-5.2-5.2c0-2.9,2.3-5.2,5.2-5.2S164.1,2.3,164.1,5.2"/>
<g>
	<path d="M48.8,78.6c0,1.5-0.5,2.6-1.5,3.4c-1,0.8-2.4,1.2-4.3,1.2h-1.7v5.7h-1.7V74.4h3.7C47,74.4,48.8,75.8,48.8,78.6z M41.3,81.7
		h1.5c1.5,0,2.6-0.2,3.2-0.7c0.7-0.5,1-1.2,1-2.3c0-1-0.3-1.7-0.9-2.1c-0.6-0.5-1.6-0.7-2.9-0.7h-1.9V81.7z"/>
</g>
<g>
	<path d="M51.4,88.8V74.4h1.7v14.4H51.4z"/>
	<path d="M61.9,88.8h-1.7V75.9h-4.6v-1.5h10.8v1.5h-4.6C61.9,75.9,61.9,88.8,61.9,88.8z"/>
	<path d="M74.2,88.8h-1.7V75.9H68v-1.5h10.8v1.5h-4.6V88.8z"/>
	<path d="M89.4,85c0,1.3-0.5,2.3-1.4,3c-0.9,0.7-2.2,1.1-3.8,1.1c-1.7,0-3-0.2-3.9-0.7v-1.6c0.6,0.2,1.2,0.4,1.9,0.6
		c0.7,0.1,1.4,0.2,2.1,0.2c1.1,0,2-0.2,2.5-0.6c0.6-0.4,0.8-1,0.8-1.8c0-0.5-0.1-0.9-0.3-1.2c-0.2-0.3-0.5-0.6-1-0.9
		c-0.5-0.3-1.2-0.6-2.1-0.9c-1.3-0.5-2.3-1.1-2.9-1.7c-0.6-0.7-0.9-1.5-0.9-2.6c0-1.1,0.4-2,1.3-2.7s1.9-1,3.3-1
		c1.4,0,2.8,0.3,4,0.8l-0.5,1.5c-1.2-0.5-2.3-0.8-3.5-0.8c-0.9,0-1.6,0.2-2.1,0.6c-0.5,0.4-0.8,0.9-0.8,1.6c0,0.5,0.1,0.9,0.3,1.2
		c0.2,0.3,0.5,0.6,0.9,0.9c0.4,0.3,1.1,0.6,2,0.9c1.5,0.5,2.6,1.1,3.1,1.7S89.4,84,89.4,85z"/>
	<path d="M92.8,74.4h4.1c1.9,0,3.3,0.3,4.2,0.9c0.9,0.6,1.3,1.5,1.3,2.7c0,0.9-0.2,1.6-0.7,2.1c-0.5,0.6-1.2,0.9-2.1,1.1v0.1
		c2.2,0.4,3.3,1.5,3.3,3.5c0,1.3-0.4,2.3-1.3,3c-0.9,0.7-2.1,1.1-3.7,1.1h-5L92.8,74.4L92.8,74.4z M94.4,80.6h2.8
		c1.2,0,2-0.2,2.6-0.6s0.8-1,0.8-1.9c0-0.8-0.3-1.4-0.9-1.8c-0.6-0.4-1.5-0.5-2.8-0.5h-2.5C94.4,75.8,94.4,80.6,94.4,80.6z M94.4,82
		v5.4h3c1.2,0,2-0.2,2.6-0.7c0.6-0.5,0.9-1.2,0.9-2.1c0-0.9-0.3-1.6-0.9-2c-0.6-0.4-1.5-0.6-2.8-0.6L94.4,82L94.4,82z"/>
	<path d="M117.2,74.4v9.3c0,1.6-0.5,2.9-1.5,3.9c-1,0.9-2.4,1.4-4.1,1.4c-1.7,0-3.1-0.5-4-1.4c-1-0.9-1.4-2.2-1.4-3.9v-9.3h1.7v9.4
		c0,1.2,0.3,2.1,1,2.8c0.7,0.6,1.6,1,2.9,1c1.2,0,2.2-0.3,2.8-1c0.7-0.6,1-1.6,1-2.8v-9.4L117.2,74.4L117.2,74.4z"/>
	<path d="M123.1,82.8v6h-1.7V74.4h4c1.8,0,3.1,0.3,3.9,1c0.8,0.7,1.3,1.7,1.3,3.1c0,1.9-1,3.2-2.9,3.9l3.9,6.5h-2l-3.5-6L123.1,82.8
		L123.1,82.8L123.1,82.8z M123.1,81.4h2.3c1.2,0,2.1-0.2,2.6-0.7c0.6-0.5,0.8-1.2,0.8-2.1c0-1-0.3-1.6-0.8-2.1
		c-0.6-0.4-1.5-0.6-2.7-0.6h-2.2L123.1,81.4L123.1,81.4L123.1,81.4z"/>
	<path d="M140.7,81.2h4.9v7c-0.8,0.2-1.5,0.4-2.3,0.6c-0.8,0.1-1.7,0.2-2.7,0.2c-2.2,0-3.9-0.6-5.1-1.9c-1.2-1.3-1.8-3.1-1.8-5.5
		c0-1.5,0.3-2.8,0.9-3.9c0.6-1.1,1.5-2,2.6-2.6s2.5-0.9,4-0.9c1.5,0,3,0.3,4.3,0.9l-0.6,1.5c-1.3-0.6-2.6-0.8-3.8-0.8
		c-1.8,0-3.1,0.5-4.1,1.6c-1,1-1.5,2.5-1.5,4.4c0,1.9,0.5,3.4,1.4,4.4c1,1,2.4,1.5,4.2,1.5c1,0,2-0.1,2.9-0.3v-4.4h-3.2L140.7,81.2
		L140.7,81.2L140.7,81.2z"/>
</g>
<g>
	<path d="M159.4,88.8h-1.7V82h-7.6v6.8h-1.7V74.4h1.7v6.1h7.6v-6.1h1.7V88.8z"/>
</g>
<g>
	<path d="M65.9,105.5h-6.5V93.9h6.5v1.6h-4.6v3.1h4.4v1.6h-4.4v3.6h4.6V105.5z"/>
</g>
<g>
	<path d="M76.7,102.3c0,1-0.4,1.8-1.1,2.4c-0.7,0.6-1.8,0.9-3.1,0.9c-1.3,0-2.4-0.2-3.2-0.6v-1.8c0.5,0.2,1.1,0.4,1.7,0.6
		c0.6,0.1,1.1,0.2,1.7,0.2c0.7,0,1.3-0.1,1.7-0.4c0.4-0.3,0.5-0.7,0.5-1.1c0-0.4-0.2-0.8-0.5-1.1c-0.3-0.3-1-0.7-2-1.1
		c-1.1-0.4-1.8-0.9-2.2-1.5c-0.4-0.5-0.6-1.2-0.6-2c0-1,0.3-1.7,1-2.3c0.7-0.6,1.6-0.8,2.8-0.8c1.1,0,2.2,0.2,3.3,0.7L75.9,96
		c-1-0.4-1.9-0.6-2.7-0.6c-0.6,0-1.1,0.1-1.4,0.4c-0.3,0.3-0.5,0.6-0.5,1.1c0,0.3,0.1,0.6,0.2,0.8c0.1,0.2,0.3,0.4,0.6,0.6
		s0.8,0.4,1.6,0.8c0.8,0.4,1.5,0.7,1.9,1c0.4,0.3,0.7,0.6,0.9,1C76.6,101.4,76.7,101.8,76.7,102.3z"/>
</g>
<g>
	<path d="M84.7,105.5h-1.9v-9.9h-3.4v-1.6h8.7v1.6h-3.4V105.5z"/>
</g>
<g>
	<path d="M89.5,104.5c0-0.4,0.1-0.7,0.3-0.9c0.2-0.2,0.5-0.3,0.9-0.3c0.4,0,0.7,0.1,0.9,0.3c0.2,0.2,0.3,0.5,0.3,0.9
		c0,0.4-0.1,0.7-0.3,0.9s-0.5,0.3-0.9,0.3s-0.7-0.1-0.9-0.3C89.6,105.2,89.5,104.9,89.5,104.5z"/>
</g>
<g>
	<path d="M102.8,105.5h-1.9V98c0-0.9,0-1.6,0.1-2.1c-0.1,0.1-0.3,0.3-0.4,0.4c-0.2,0.2-0.8,0.6-1.8,1.5l-0.9-1.2l3.4-2.7h1.5
		L102.8,105.5L102.8,105.5z"/>
</g>
<g>
	<path d="M115.2,98.8c0,2.3-0.5,4-1.4,5.1c-0.9,1.1-2.3,1.7-4.1,1.7c-0.7,0-1.2,0-1.5-0.1v-1.6c0.5,0.1,0.9,0.2,1.4,0.2
		c1.3,0,2.2-0.3,2.8-1c0.6-0.7,1-1.7,1-3.2h-0.1c-0.3,0.5-0.7,0.8-1.1,1c-0.4,0.2-1,0.3-1.5,0.3c-1,0-1.8-0.3-2.4-1
		c-0.6-0.6-0.9-1.5-0.9-2.6c0-1.2,0.3-2.2,1-2.9c0.7-0.7,1.6-1.1,2.8-1.1c0.8,0,1.5,0.2,2.1,0.6c0.6,0.4,1.1,1,1.4,1.7
		C115,96.9,115.2,97.8,115.2,98.8z M111.1,95.3c-0.6,0-1.1,0.2-1.5,0.6s-0.5,1-0.5,1.8c0,0.7,0.2,1.2,0.5,1.6s0.8,0.6,1.4,0.6
		c0.6,0,1.2-0.2,1.6-0.6c0.4-0.4,0.6-0.8,0.6-1.3c0-0.5-0.1-0.9-0.3-1.3c-0.2-0.4-0.4-0.7-0.8-1C111.9,95.4,111.6,95.3,111.1,95.3z"
		/>
</g>
<g>
	<path d="M121.3,93.8c1.1,0,2,0.3,2.6,0.8c0.6,0.5,1,1.2,1,2c0,1.2-0.7,2.1-2.1,2.8c0.9,0.5,1.6,0.9,1.9,1.4
		c0.4,0.5,0.6,1.1,0.6,1.7c0,1-0.3,1.7-1.1,2.3c-0.7,0.6-1.6,0.9-2.8,0.9c-1.3,0-2.2-0.3-2.9-0.8c-0.7-0.5-1-1.3-1-2.3
		c0-0.6,0.2-1.2,0.5-1.7s1-1,1.8-1.4c-0.7-0.4-1.2-0.9-1.5-1.3c-0.3-0.5-0.4-1-0.4-1.6c0-0.8,0.3-1.5,1-2S120.2,93.8,121.3,93.8z
		 M119.1,102.5c0,0.5,0.2,1,0.6,1.3c0.4,0.3,0.9,0.5,1.6,0.5c0.7,0,1.2-0.2,1.6-0.5c0.4-0.3,0.6-0.7,0.6-1.3c0-0.4-0.2-0.8-0.5-1.2
		c-0.3-0.4-0.9-0.7-1.6-1l-0.2-0.1c-0.7,0.3-1.2,0.6-1.5,1C119.3,101.6,119.1,102,119.1,102.5z M121.3,95.2c-0.5,0-0.9,0.1-1.3,0.4
		c-0.3,0.3-0.5,0.6-0.5,1.1c0,0.3,0.1,0.5,0.2,0.7c0.1,0.2,0.3,0.4,0.5,0.6s0.6,0.4,1.1,0.6c0.6-0.3,1.1-0.6,1.3-0.9
		c0.3-0.3,0.4-0.7,0.4-1.1c0-0.4-0.2-0.8-0.5-1.1C122.2,95.3,121.8,95.2,121.3,95.2z"/>
</g>
<g>
	<path d="M134.8,96.6c0,0.7-0.2,1.3-0.6,1.8c-0.4,0.5-1,0.8-1.8,1v0.1c0.9,0.1,1.6,0.4,2.1,0.9c0.5,0.5,0.7,1.1,0.7,1.8
		c0,1.1-0.4,2-1.2,2.6c-0.8,0.6-1.9,0.9-3.3,0.9c-1.3,0-2.4-0.2-3.2-0.6v-1.7c0.5,0.2,1,0.4,1.6,0.6c0.5,0.1,1.1,0.2,1.6,0.2
		c0.9,0,1.6-0.2,2-0.5c0.4-0.3,0.7-0.8,0.7-1.5c0-0.6-0.2-1.1-0.7-1.4c-0.5-0.3-1.3-0.4-2.3-0.4h-1v-1.5h1c1.8,0,2.8-0.6,2.8-1.9
		c0-0.5-0.2-0.9-0.5-1.1c-0.3-0.3-0.8-0.4-1.4-0.4c-0.4,0-0.9,0.1-1.3,0.2c-0.4,0.1-0.9,0.4-1.4,0.7l-0.9-1.3
		c1.1-0.8,2.3-1.2,3.7-1.2c1.2,0,2.1,0.2,2.7,0.8S134.8,95.7,134.8,96.6z"/>
</g>
</svg>
