<svg xmlns="http://www.w3.org/2000/svg" viewBox="0 0 355.04 309.04"><title>Rita_s_Ice</title><g style="isolation:isolate"><g id="Layer_1" data-name="Layer 1"><circle cx="177.89" cy="154.52" r="150.53" style="fill:#fff"/><path d="M242.1,306.18A154.52,154.52,0,1,1,396.62,460.7,154.52,154.52,0,0,1,242.1,306.18Zm154.52,0,0,146.52A146.52,146.52,0,1,0,250.1,306.18,146.52,146.52,0,0,0,396.62,452.7Zm0-146.52" transform="translate(-218.73 -151.65)" style="fill:#8cd2f4"/><path d="M471.6,196.46a1.71,1.71,0,0,0,.27-0.22l-0.24.29Z" transform="translate(-218.73 -151.65)" style="fill:#d21e47;fill-rule:evenodd"/><path d="M469.54,421.21V191.15A136.22,136.22,0,0,1,469.54,421.21Z" transform="translate(-218.73 -151.65)" style="fill:#d31245"/><path d="M427.61,173.54V438.81a137.35,137.35,0,0,1-61.14.19l-0.8-265.47A137.35,137.35,0,0,1,427.61,173.54Z" transform="translate(-218.73 -151.65)" style="fill:#d31245"/><path d="M323.9,191V421.33A136.22,136.22,0,0,1,323.9,191Z" transform="translate(-218.73 -151.65)" style="fill:#d31245"/><path d="M539.52,374.33c-0.72,17.35-5.6,33.2-31.92,25.93a518.21,518.21,0,0,0-110.16-13.35h-0.22c-9.77.1-19.64,0.47-29.44,1.08-0.42,0-16.16,1.75-18.47-18.58a32.88,32.88,0,0,1-6,1.62c-5.28.91-12.68,0.84-18.58-3.08-3.57-2.37-5.85-4.7-9.8-9.45-34.45,5.57-64.06,14.29-80.6,25.21,0,0-10.16,5.73.41,12.92,0,0-9-1.82-10-12.43-1.87-20.75-4.17-54.68-6-82.1C217.85,288.49,237.93,277,265.27,269a15.73,15.73,0,0,1-3.68-7.32l-1.47-6.35,7-3.71a67.93,67.93,0,0,1,19.19-8.05c12.18-3.09,23.44-3.34,33.05,1.52A39.27,39.27,0,0,1,332.6,256,510.56,510.56,0,0,1,396.25,252a524.93,524.93,0,0,1,78.81,6,14.5,14.5,0,0,1,13.51-4.27,16.44,16.44,0,0,1,11.88,8.79c41.44,8.62,74.46,22.21,73.3,39.54-1.84,27.43-4.14,61.36-6,82.1-1,10.62-10,12.43-10,12.43,10.57-7.19.41-12.92,0.41-12.92A104.48,104.48,0,0,0,539.52,374.33Z" transform="translate(-218.73 -151.65)" style="fill:#00703c"/><path d="M527.73,407.58l1.73,4.84,1.74-4.84h1.92v6.77h-1.24v-5.46L530,414.35h-1.08L527,408.89v5.46H525.8v-6.77h1.93Zm-8.85,1.13v-1.13h5.77v1.13h-2.21v5.64H521.1v-5.64h-2.21Z" transform="translate(-218.73 -151.65)" style="fill:#00703c;fill-rule:evenodd"/><path d="M257.12,372.75a148,148,0,0,0,18.12,29.17c-13.11-.69-31.83-1.82-40.46-5.29-10.57-7.19-.41-12.92-0.41-12.92A112.68,112.68,0,0,1,257.12,372.75Z" transform="translate(-218.73 -151.65)" style="fill:#231f20"/><path d="M557.74,396.63c-13.25,5.31-35.48,5.41-37.19,5.41,15.1-.68,18.39-13.71,19-27.71a104.48,104.48,0,0,1,18.63,9.38S568.3,389.45,557.74,396.63Z" transform="translate(-218.73 -151.65)" style="fill:#231f20"/><path d="M518.57,348.58a6.51,6.51,0,0,0,.91-3.39c0-3.8-2.12-7.1-8.62-12.63-8.11-6.77-10.28-8.53-13.24-11.44-5.56-5.26-8.24-10.32-8.24-16.12a12.88,12.88,0,0,1,4.86-10.51,13.32,13.32,0,0,0-2.7,8.36c0,5.8,2.68,10.86,8.24,16.12,3,2.91,5.13,4.67,13.24,11.44,6.5,5.53,8.62,8.83,8.62,12.63A6.34,6.34,0,0,1,518.57,348.58ZM524,311.91a16,16,0,0,1-2.15,2.15l-0.47.37-3.55-1.33,0.13-.86a15.12,15.12,0,0,0,.14-2.51c0-4.71-3.33-8.77-8.49-10.05a6.76,6.76,0,0,0-4.22.14c0.68-1.89,3-3.12,6.37-2.29,5.17,1.29,8.49,5.34,8.49,10.05a15.1,15.1,0,0,1-.14,2.51L520,311l3.55,1.33ZM529.71,352c-4.67,5.66-13.38,8.1-22.75,5.76a32.17,32.17,0,0,1-21.83-19l-0.39-.9,2.15-2.15,0.39,0.9a32.18,32.18,0,0,0,21.83,19C517.18,357.63,524.77,356.09,529.71,352ZM310.45,266c-4-2.8-9.17-4.2-15.24-3.9v48.83c-0.87.21-2.16,0.47-3.18,0.64V259.28C299.87,258.89,306.25,261.36,310.45,266Zm47.69,83.6,3.18,2.81s-3.14,11-17.27,13.49c-4.33.75-9.3,0.43-12.73-1.85a23.62,23.62,0,0,1-4.24-3.54c0.34,0.24.69,0.49,1.05,0.73,3.43,2.29,8.4,2.6,12.73,1.85C355,360.64,358.15,349.59,358.15,349.59Zm-35.39-91.37a32.28,32.28,0,0,1,12.61,25c0,12.44-7.37,25-19.88,34a22.52,22.52,0,0,0-3.49-2.59c12.69-9,20.19-21.67,20.19-34.22A32.11,32.11,0,0,0,322.75,258.22ZM274.23,362l-3.18-2.8,2-.56c4.53-1.3,17.73-4.45,23.3-5.71l1.22-.28a31.58,31.58,0,0,1-4.26-10.21c-1.49-5.91-1.23-24.54-1.23-24.54a23.26,23.26,0,0,1,1.93,2c0.4,0.45.81,0.95,1.24,1.48,0,3.42-.08,18.62,1.24,23.86a31.59,31.59,0,0,0,4.26,10.21l-1.22.28c-5.57,1.26-18.78,4.41-23.3,5.71Zm96.37-20.2,0.9,1.68-1.95,0a63.61,63.61,0,0,0-8.7.45c-2.3.26-7.35,0.69-9.64,1.22l-1.82.42-2.49-2.6,1.82-.42c2.3-.52,6.89-1.31,9.19-1.56a63.63,63.63,0,0,1,8.7-.45l1.95,0-0.9-1.68c-4.49-8.08-1.81-56.27-1.81-56.27l3,3S366.12,333.72,370.6,341.8Zm-1.44-70.07c0,4.25-5.16,7.77-10.49,8.05-3,.16-7.17-2.25-9.75-5.14a9.81,9.81,0,0,0,6.8,2.19c5.33-.28,10.49-3.8,10.49-8a6.81,6.81,0,0,0-1.43-4.18C367.27,266.69,369.16,269.42,369.16,271.73ZM437.75,278a19.29,19.29,0,0,1,6.41-.75A26.79,26.79,0,0,0,437.75,278Zm20.49,23.16c-1-9.7-4.73-14-11.15-14.53-2.86-.25-4.3.22-9,3.67a5.51,5.51,0,0,1-3.37.92c-3-.26-5.79-2.49-5.79-5.27,0-2.26,1.8-4.45,4.5-6.07a4.62,4.62,0,0,0-2.2,3.77c0,2.78,2.82,5,5.79,5.27a5.51,5.51,0,0,0,3.37-.92c4.75-3.45,6.19-3.92,9-3.67,7.14,0.62,10.93,5.83,11.39,18C459.86,301.85,459,301.46,458.24,301.12Zm26.32,40.27-3,3.61a10.74,10.74,0,0,1-9.94,4c-4.84-.42-8.62-3-11.35-7.72a20.44,20.44,0,0,1-16.27,5.3c-11.65-1-22.55-11.91-22.55-22.81a22.78,22.78,0,0,1,7.93-17.16,22.58,22.58,0,0,0-5.64,14.86c0,10.89,10.9,21.79,22.55,22.81a20.44,20.44,0,0,0,16.27-5.3c2.73,4.69,6.52,7.29,11.35,7.72,4.1,0.36,6.75-.82,9.59-4.06Zm-26.2-29.75a17.54,17.54,0,0,0-10-4.55,12.84,12.84,0,0,0-8.64,1.93c2.16-3.08,6-4.66,10.94-4.23a17.53,17.53,0,0,1,10,4.55s0.47,12.85.47,14.56c0,6-1.4,9.59-4.13,11.19,1.21-2,1.83-4.89,1.83-8.89C458.83,324.48,458.37,311.63,458.37,311.63Zm20.49-24.71,2.3-2.3c3.11-2.25,4-3.67,4.67-6.75a6.07,6.07,0,0,1-1.84-.08c-3.71-.65-6-3.8-6-7.79,0-4.58,4.6-9.61,9.09-8.82-4-.3-6.79,2.27-6.79,6.52,0,4,2.27,7.14,6,7.79a6.07,6.07,0,0,0,1.84.08,14,14,0,0,1-5.76,8.18l-1.21.87,5.18,3.75,0.63-.44a26.19,26.19,0,0,0,2.24-1.74,24.29,24.29,0,0,1-4.54,4l-0.63.44Z" transform="translate(-218.73 -151.65)" style="fill:#231f20"/><path d="M400.13,263.07l2,2.5L402,267.08c-0.46,6.2-.77,10.52-0.77,13.47,0,0.65,0,1.11,0,1.87-0.61-.12-1.23-0.26-1.87-0.43-0.12-2.3-.12-2.84-0.12-3.93,0-3,.31-7.27.77-13.47Zm-16.07,28.09a9.81,9.81,0,0,0-1,0c-1.76.11-2.71,0.63-4.1,2.66l-0.45.66-3.28-.82-2-2.5,3.28,0.82,0.45-.66c1.39-2,2.33-2.54,4.1-2.66a10.88,10.88,0,0,1,3,.23v2.25ZM417.29,324l2,2.49,0,0.82c-0.49,10.12-7,16.58-16.74,16.63-6.6,0-11.42-2.15-14-6.51,2.77,2.69,6.86,4,12,4,9.76,0,16.25-6.51,16.74-16.63Zm-16.7,4.3a19.31,19.31,0,0,0,.54,5.19c-1.49-.47-2.5-2.37-2.5-7.69V292c2.33,0,5.61-.06,6.81-0.14,5.91-.38,10.56-3.81,14.11-10.09l0.58-1,2,2.5-0.58,1c-3.55,6.27-8.21,9.7-14.11,10.09-1.2.08-4.48,0.18-6.81,0.14v33.88Z" transform="translate(-218.73 -151.65)" style="fill:#231f20;fill-rule:evenodd"/><path d="M292,311.56c1.18-.2,2.7-0.52,3.55-0.73,11.67-3,20.48-15.25,20.48-28.66,0-14.53-9.5-23.62-24-22.89v52.28Zm0,6.33s-0.26,18.63,1.23,24.54a31.57,31.57,0,0,0,4.26,10.21l-1.22.28c-5.57,1.26-18.78,4.41-23.3,5.71l-2,.56,0.64-1.93c1.74-5.29,2.23-6.84,2.57-10.9a81,81,0,0,0,.44-9.05V264.87c-2.81-.55-4.15-2.14-4.86-5.22l-0.17-.75,0.65-.41a59.87,59.87,0,0,1,16.89-7.07c11.29-2.86,20.32-2.69,27.46.91a32.22,32.22,0,0,1,17.53,28.12c0,12.54-7.49,25.24-20.19,34.22,3.17,1.82,6.93,5.75,10.82,10.16,4.76,5.39,16.34,27.58,26.29,27.58,4.43,0,4.93-2.68,4.93-2.68l4.11-.15s-3.14,11-17.27,13.49c-4.33.75-9.3,0.43-12.73-1.85s-5-4.06-11.42-12c-4.55-5.7-12.59-16-17-21.92-2.16-2.95-4.15-5.55-5.8-7.44A23.26,23.26,0,0,0,292,317.89Z" transform="translate(-218.73 -151.65)" style="fill:#fff;fill-rule:evenodd"/><path d="M367.65,338.85l0.9,1.68-1.95,0a63.63,63.63,0,0,0-8.7.45c-2.3.26-6.89,1-9.19,1.56l-1.82.42,0.63-1.78c4.45-8.81,2.11-44.47.88-52.3l-0.12-.78,0.7-.35a55.12,55.12,0,0,1,15.54-4.94l1.31-.18S363.16,330.77,367.65,338.85Zm-1.44-70.07c0,4.25-5.16,7.77-10.49,8-4.71.25-9.2-2.77-9.2-7.13,0-4.76,4.79-8.16,10.49-8.46C361.78,261,366.21,264.21,366.21,268.78Z" transform="translate(-218.73 -151.65)" style="fill:#fff;fill-rule:evenodd"/><path d="M476,316.23c0,0.4.16,4.05,0.31,9.86,0.31,12.37.9,12.83,6.71,14.78l1.53,0.51-1.06,1.21c-2.84,3.24-5.49,4.42-9.59,4.06-4.84-.42-8.62-3-11.35-7.72a20.44,20.44,0,0,1-16.27,5.3c-11.65-1-22.55-11.91-22.55-22.81,0-13.34,11.88-24,25.22-22.87,3.72,0.33,6.49,1.18,11.82,3.71-0.46-12.16-4.25-17.37-11.39-18-2.86-.25-4.3.22-9,3.67a5.51,5.51,0,0,1-3.37.92c-3-.26-5.79-2.49-5.79-5.27,0-4.81,8.19-6.94,15.75-6.28,11.84,1,22.67,6.78,26.63,14.59,1.65,3.3,2.44,6.8,2.44,13.38v10.94Zm-15.34-6.9a17.53,17.53,0,0,0-10-4.55c-7.95-.7-12.95,3.77-12.95,11.33,0,10.51,6.48,19.3,13.76,19.93,6.39,0.56,9.69-2.89,9.69-12.16C461.13,322.19,460.67,309.34,460.67,309.34Z" transform="translate(-218.73 -151.65)" style="fill:#fff;fill-rule:evenodd"/><path d="M481.15,284.63l1.21-.87a14,14,0,0,0,5.76-8.18,6.07,6.07,0,0,1-1.84-.08c-3.71-.65-6-3.8-6-7.79,0-4.58,3.23-7.19,7.72-6.4,4.8,0.85,7.84,5.65,7.84,11.58,0,5.73-3.23,11.12-8.9,15.06l-0.62.44Z" transform="translate(-218.73 -151.65)" style="fill:#fff;fill-rule:evenodd"/><path d="M499.82,334.42l-0.12.46a4.74,4.74,0,0,0-.12,1.32c0,5.91,4.71,11.54,11.29,13.18,6.26,1.56,10.77-1.61,10.77-6.33,0-3.8-2.12-7.1-8.62-12.63-8.11-6.77-10.28-8.53-13.24-11.44-5.56-5.26-8.24-10.32-8.24-16.12,0-10.42,9.63-15.85,21.2-13,6.17,1.54,13.51,6.72,17.67,12.36l0.4,0.54-0.32.6c-1.74,3.29-4.62,7.06-6.5,8.52l-0.47.37L520,311l0.13-.86a15.1,15.1,0,0,0,.14-2.51c0-4.71-3.32-8.77-8.49-10.05-4-1-6.58,1-6.58,3.46,0,2.91,1.22,4.79,9.06,11,5.6,4.51,8.8,7.07,10.92,8.92a31.31,31.31,0,0,1,4.62,4.81c4,4.76,5.66,9.15,5.66,13.9,0,12.45-12.43,19.47-26.32,16a32.18,32.18,0,0,1-21.83-19l-0.39-.9,0.86-.47c3.81-2.42,10.34-3.43,10.34-3.43Z" transform="translate(-218.73 -151.65)" style="fill:#fff;fill-rule:evenodd"/><path d="M398.63,325.85c0,6.35,1.45,7.82,3.42,7.81,2.88,0,5.45-2.69,5.45-6.12a8.06,8.06,0,0,0-.82-4.12l-0.86-1.78,2,0.25a41.71,41.71,0,0,1,8.74,1.89l0.78,0.26,0,0.82c-0.49,10.12-7,16.58-16.74,16.63-8.43,0-13.94-3.52-15.64-10.61-0.66-2.31-.81-4.88-0.81-9.7V288.9a10.88,10.88,0,0,0-3-.23c-1.76.11-2.71,0.63-4.1,2.66l-0.45.66-3.28-.82,0.08-.87c0.5-5.62,4.2-9.09,10-10.06,0-.44-0.12-1.27-0.27-3.36-0.15-1.47-.15-2.3-0.31-5.27l0-.68,0.6-.36a78.69,78.69,0,0,1,15.28-7l1.46-.48L400,264.58c-0.46,6.2-.77,10.52-0.77,13.47,0,1.09,0,1.63.12,3.93a29.22,29.22,0,0,0,9.32.87,11.41,11.41,0,0,0,7.37-3.19l0.54-.51,3.53,1.56-0.58,1c-3.55,6.27-8.21,9.7-14.11,10.09-1.19.08-4.48,0.18-6.81,0.14v33.88Z" transform="translate(-218.73 -151.65)" style="fill:#fff;fill-rule:evenodd"/><path d="M259.21,376.9c15.54-5.52,34.74-10.09,55.75-13.49,4,4.75,6.22,7.07,9.8,9.44,5.89,3.92,13.3,4,18.58,3.08a33.19,33.19,0,0,0,6-1.62c2.3,20.33,18,18.61,18.47,18.58,9.8-.62,19.66-1,29.44-1.08h0.22A518,518,0,0,1,507.6,405.17a54.32,54.32,0,0,0,6.49,1.39q1.91-2.24,3.74-4.54a46.91,46.91,0,0,1-10.23-1.76,518.21,518.21,0,0,0-110.16-13.35h-0.22c-9.77.1-19.64,0.47-29.44,1.08-0.42,0-16.16,1.75-18.47-18.58a32.87,32.87,0,0,1-6,1.62c-5.28.91-12.68,0.84-18.58-3.08-3.57-2.37-5.85-4.7-9.8-9.45-21.95,3.55-41.92,8.38-57.82,14.24Q258.14,374.84,259.21,376.9Z" transform="translate(-218.73 -151.65)" style="fill:#b0b3b5;mix-blend-mode:multiply"/><path d="M359.63,374.77V361.95l2.29-.15v12.83Z" transform="translate(-218.73 -151.65)" style="fill:#fff"/><path d="M367.74,374.45c-2.44.13-4-1.15-4-4.36,0-2.95,1.43-5.29,4.53-5.45a6.24,6.24,0,0,1,1.8.17l-0.23,2.12a4.22,4.22,0,0,0-1.59-.25c-1.43.08-2.15,1.26-2.15,3,0,1.62.58,2.69,2.08,2.6a3.85,3.85,0,0,0,1.73-.49l0.18,2.06A6.77,6.77,0,0,1,367.74,374.45Z" transform="translate(-218.73 -151.65)" style="fill:#fff"/><path d="M379,369.46l-5.44.21c0,1.77.79,2.59,2.42,2.53a6.07,6.07,0,0,0,2.56-.69l0.21,1.87a8.37,8.37,0,0,1-3.14.73c-2.79.11-4.34-1.33-4.34-4.66,0-2.89,1.48-5.07,4.11-5.18S379,366,379,368.35A8.48,8.48,0,0,1,379,369.46Zm-3.69-3.39a1.91,1.91,0,0,0-1.71,1.95l3.23-.12C376.82,366.71,376.22,366,375.26,366.07Z" transform="translate(-218.73 -151.65)" style="fill:#fff"/><path d="M384.78,368.4a1.62,1.62,0,0,1-1.51,1.66,1.53,1.53,0,0,1-1.51-1.59,1.62,1.62,0,0,1,1.51-1.66A1.54,1.54,0,0,1,384.78,368.4Z" transform="translate(-218.73 -151.65)" style="fill:#fff"/><path d="M392.28,373.71c-4.17,0-5.51-2.93-5.51-6.12,0-4.07,2-6.93,6-7a9.22,9.22,0,0,1,2.53.32L395,363.18a7.93,7.93,0,0,0-2.4-.36c-2.23,0-3.32,1.84-3.32,4.33,0,2.79,1.08,4.34,3.48,4.32a6,6,0,0,0,2.31-.55l0.27,2.2A8.72,8.72,0,0,1,392.28,373.71Z" transform="translate(-218.73 -151.65)" style="fill:#fff"/><path d="M402.84,373.57a11.11,11.11,0,0,1,.11-1.67l0,0a3.13,3.13,0,0,1-3,1.87c-2,0-2.61-1.39-2.61-3v-6.63l2.24,0v6c0,1,.25,1.58,1.09,1.59,1.15,0,2-1.39,2-3v-4.56l2.26,0v9.44Z" transform="translate(-218.73 -151.65)" style="fill:#fff"/><path d="M409.26,373.88a11.48,11.48,0,0,1-1.84-.22l0.05-2a7.35,7.35,0,0,0,1.89.33c0.87,0,1.43-.34,1.43-1,0-1.67-3.55-.82-3.55-4,0-1.65,1.25-3,3.73-2.92a9.57,9.57,0,0,1,1.61.21l-0.07,1.92a5.8,5.8,0,0,0-1.62-.29c-0.88,0-1.31.35-1.31,0.94,0,1.54,3.6.95,3.6,4C413.19,372.73,411.67,373.94,409.26,373.88Z" transform="translate(-218.73 -151.65)" style="fill:#fff"/><path d="M418.07,374.17c-1.94-.08-2.54-0.86-2.54-3.06v-4.79l-1.52-.06v-1.88l1.5,0.06v-2.91l2.26-.56v3.55l2.14,0.08v1.88l-2.14-.08v4.14c0,1.22.26,1.57,1,1.6a4,4,0,0,0,1.09-.11v2A7.17,7.17,0,0,1,418.07,374.17Z" transform="translate(-218.73 -151.65)" style="fill:#fff"/><path d="M426.79,374.41a11.52,11.52,0,0,1,.09-1.59l0,0a2.77,2.77,0,0,1-2.81,1.65,2.46,2.46,0,0,1-2.5-2.63c0-2.26,2.08-3.34,5.06-3.18v-0.51c0-1-.44-1.53-1.71-1.59a5.21,5.21,0,0,0-2.59.6l-0.19-2a8.74,8.74,0,0,1,3.14-.42c2.82,0.16,3.62,1.43,3.62,3.49v3.93c0,0.76,0,1.65.05,2.43Zm-0.18-4.19c-2.38-.13-2.91.58-2.91,1.34a1,1,0,0,0,1,1.06,2,2,0,0,0,1.87-2.18v-0.23Z" transform="translate(-218.73 -151.65)" style="fill:#fff"/><path d="M436,367.76c-1.62-.47-2.43.61-2.43,3.23v3.86l-2.26-.16v-9.44l2.13,0.15a13.27,13.27,0,0,1-.16,1.89h0a2.47,2.47,0,0,1,2.79-1.91Z" transform="translate(-218.73 -151.65)" style="fill:#fff"/><path d="M442.53,375.56a12.32,12.32,0,0,1,.11-1.57h0a2.63,2.63,0,0,1-2.76,1.55c-2.13-.18-3.19-2-3.19-4.7,0-3.19,1.72-5.25,4.63-5a7.45,7.45,0,0,1,1.11.17v-4.33l2.24,0.19v13.87ZM442.39,368a5.4,5.4,0,0,0-1.18-.25c-1.29-.11-2.2.68-2.2,3,0,1.77.48,2.72,1.5,2.81,1.18,0.1,1.88-1.32,1.88-2.93V368Z" transform="translate(-218.73 -151.65)" style="fill:#fff"/><path d="M450.91,371.14a1.39,1.39,0,0,1-1.51,1.47,1.78,1.78,0,0,1-1.51-1.79,1.39,1.39,0,0,1,1.51-1.47A1.79,1.79,0,0,1,450.91,371.14Z" transform="translate(-218.73 -151.65)" style="fill:#fff"/><path d="M461,377.56V372l-5-.62v5.57l-2.28-.28V363.84l2.28,0.28v5.13l5,0.62v-5.13l2.28,0.28v12.83Z" transform="translate(-218.73 -151.65)" style="fill:#fff"/><path d="M470.33,378.89a11.33,11.33,0,0,1,.09-1.58l0,0a2.48,2.48,0,0,1-2.78,1.39,2.73,2.73,0,0,1-2.48-2.86c0-2.26,2.06-3.15,5-2.71v-0.51a1.62,1.62,0,0,0-1.7-1.75,4.9,4.9,0,0,0-2.57.36l-0.19-2.06a8.36,8.36,0,0,1,3.11-.13c2.8,0.42,3.58,1.77,3.58,3.82v3.93c0,0.76,0,1.66.05,2.44Zm-0.17-4.21c-2.36-.35-2.88.31-2.88,1.07a1.13,1.13,0,0,0,1,1.16,1.78,1.78,0,0,0,1.85-2v-0.23Z" transform="translate(-218.73 -151.65)" style="fill:#fff"/><path d="M478.19,380.29a7.36,7.36,0,0,1-1.11-.27v4.52l-2.23-.38v-14l2.07,0.36a12,12,0,0,1-.09,1.56h0a2.32,2.32,0,0,1,2.72-1.3c2.05,0.35,3.17,2.16,3.17,5C482.75,379,481.18,380.8,478.19,380.29Zm0.75-7.64c-1.17-.2-1.86,1.16-1.86,2.78V378a4.08,4.08,0,0,0,1.17.37c1.25,0.22,2.18-.5,2.18-2.84C480.41,373.81,479.94,372.82,478.93,372.65Z" transform="translate(-218.73 -151.65)" style="fill:#fff"/><path d="M487.92,382.08a7.59,7.59,0,0,1-1.11-.3v4.52l-2.22-.44v-14l2.06,0.41a12,12,0,0,1-.09,1.56h0a2.25,2.25,0,0,1,2.7-1.23c2,0.41,3.15,2.24,3.15,5C492.46,380.92,490.9,382.68,487.92,382.08Zm0.74-7.62c-1.16-.23-1.85,1.11-1.85,2.73v2.62a4.14,4.14,0,0,0,1.16.4c1.25,0.25,2.17-.44,2.17-2.78C490.13,375.67,489.67,374.66,488.66,374.46Z" transform="translate(-218.73 -151.65)" style="fill:#fff"/><path d="M495.36,372.85a1.87,1.87,0,0,1-1.36-1.78,1.1,1.1,0,0,1,1.36-1.16,1.87,1.87,0,0,1,1.38,1.77A1.12,1.12,0,0,1,495.36,372.85Zm-1.1,10.42v-9.44l2.21,0.49v9.44Z" transform="translate(-218.73 -151.65)" style="fill:#fff"/><path d="M504.07,385.54v-6c0-1-.24-1.64-1-1.83-1.12-.27-2,0.92-2,2.57v4.56l-2.2-.54v-9.44l2.08,0.51a10.89,10.89,0,0,1-.12,1.64l0,0a2.38,2.38,0,0,1,2.9-1.19c1.92,0.47,2.54,2,2.54,3.64v6.63Z" transform="translate(-218.73 -151.65)" style="fill:#fff"/><path d="M515.49,384.27l-5.24-1.46a3,3,0,0,0,2.33,3.27,5.09,5.09,0,0,0,2.47.1l0.21,1.94a7.26,7.26,0,0,1-3-.23c-2.69-.75-4.19-2.66-4.19-6,0-2.89,1.43-4.62,4-3.92s3.56,2.87,3.56,5.21A8.37,8.37,0,0,1,515.49,384.27Zm-3.56-4.52c-0.9-.25-1.53.32-1.65,1.42L513.4,382A2.13,2.13,0,0,0,511.94,379.75Z" transform="translate(-218.73 -151.65)" style="fill:#fff"/><path d="M518.83,389.82a12.79,12.79,0,0,1-1.76-.72l0.05-2a8.61,8.61,0,0,0,1.81.85c0.83,0.26,1.37,0,1.37-.58,0-1.67-3.39-1.78-3.39-5,0-1.65,1.2-2.65,3.56-1.92a10.86,10.86,0,0,1,1.54.65l-0.07,1.9a6.83,6.83,0,0,0-1.55-.73c-0.84-.26-1.25,0-1.25.58,0,1.54,3.44,1.92,3.44,5C522.57,389.73,521.12,390.53,518.83,389.82Z" transform="translate(-218.73 -151.65)" style="fill:#fff"/><path d="M525.83,392.08a12.9,12.9,0,0,1-1.74-.77l0-2a8.8,8.8,0,0,0,1.79.9c0.82,0.28,1.35.09,1.35-.54,0-1.67-3.36-1.88-3.36-5.09,0-1.65,1.19-2.61,3.52-1.8a11,11,0,0,1,1.52.7l-0.07,1.9a6.93,6.93,0,0,0-1.54-.78c-0.84-.29-1.24,0-1.24.54,0,1.54,3.41,2,3.41,5.09C529.54,392.1,528.1,392.86,525.83,392.08Z" transform="translate(-218.73 -151.65)" style="fill:#fff"/></g></g></svg>