<svg id="Layer_1" data-name="Layer 1" xmlns="http://www.w3.org/2000/svg" viewBox="0 0 359 160"><title>sir-pizza</title><path d="M72,331V171H431V331H72Zm84-90-1-1c-0.33-.67-1-1.39-0.94-2,0.31-2.39-1.36-4-2.06-6l-2-2v-1l-2-2c-0.35-2.05-.73-4.09-3-5a2.48,2.48,0,0,0-4,0h-1l-1,1-1,1h-1l-1,1h-2c-0.61-.11-1.23-0.18-1.82-0.34s-1.45-.44-2.18-0.66h-1a3.17,3.17,0,0,0-1.25-1c-3.25-.08-6.5,0-9.75,0V212c0-2.26-.05-4.52,0-6.77a3.16,3.16,0,0,1,1-1.23l4.31,2.07c-0.58-1.6-1-2.59-1.3-3.61-1.2-3.83-2.6-7.62-3.49-11.52-1-4.28-2.9-8.4-2.52-12.94v-3.17c-2.45,2.24-1.95,4.78-2,7.17-1.16,8.14-2.37,16.26-6.13,24.68L112,204c1.35,0,.95,1,1,1.76,0.17,2.85-.43,5.74.91,8.53,0.28,0.59,1,2.37-.9,2.71a28.37,28.37,0,0,0-13.2-5.84c-0.81.24-1.83,0.56-2.88,0.84-3.74,1-7.16,2.42-8.77,6.35-1.68,4.09-1.59,6.29.51,10.81,1.49,3.21,3.08,6.38,4.57,9.59,1,2.24,2.27,4.48,1.38,7.79L92,243.84l-3.45,1.61,3.64,5.87c-4.44,2.8-9.52,4.05-13.34,7.39,0.51,1.07.86,1.76,1.18,2.46,1.31,2.91,1.22,6.24,2.2,9.09,1.61,4.71,1.53,9.61,2.64,14.34,0.71,3,.15,6.37,1.32,8.77L106.09,303l4.54-2.86L114,301l1,1v12c-1,.38-2.53-0.93-3,1l-3,1-2.53,1.85L98,319a2.46,2.46,0,0,0-3,2H94c-1.5.09-.85,1.24-1,2l-1,1a2.2,2.2,0,0,0,.35.81q5.15,0.07,10.3,0A2.2,2.2,0,0,0,103,324h9l5,0.88V306.76c0-1,0-2,0-3,0-.72.38-1.77-1-1.78v-1c0.22-.72.48-1.44,0.66-2.18s0.23-1.22.34-1.82h1v28.1l2-.38V323h10l11,1h8c2.12,1.3,4.8,1.38,8.44.1L155,322l-2-2h-1a1.84,1.84,0,0,0-.36-0.82c-3.12-.5-6.26-1-9.37-1.41A5.16,5.16,0,0,0,139,316l-2-1c-0.47-1.93-2-.62-3-1v-2l1-1,1-1c1.93-.47.62-2,1-3,2.92,0,5.84,0,8.76,0a3.17,3.17,0,0,0,1.24-1c2.26,0,4.52.05,6.77,0a3.17,3.17,0,0,0,1.23-1h5c0.76-.15,1.91.5,2-1h2c0.76-.15,1.91.5,2-1l1-1c1.84-.32,1.21-2.13.83-2.5-1.13-1.1-.72-2.31-0.83-3.5v-2c-0.15-.76.5-1.91-1-2l-2-2v-1l1-2c0.72-.22,1.44-0.48,2.18-0.66s1.22-.23,1.82-0.34l3-2c0.76-.15,1.91.5,2-1h1c2.21-.63,2.61-2.84,3.84-4.34L178,278v-1l-2-2v-1l1-7a6.56,6.56,0,0,0,.63-1.15c0.44-1.38,1-2.81-.63-3.85v-6l1-1,1-1c1.5-.09.85-1.24,1-2,2-1.49.67-3.3,0.85-5H176a3.36,3.36,0,0,0-1.18-1,17.82,17.82,0,0,0-2.82,0,4.4,4.4,0,0,0-.72-1c-1.63.67-3.62,0.88-4.28,3h-2c-1.93,0-3.86-.06-5.78,0a3.17,3.17,0,0,0-1.22,1,4.59,4.59,0,0,0-2,4v3h-1l-1.57.88c-1.08-.88-2.27-1.81-3.43.12-1.48.3-2.31-.56-3.25-2.08L148,251a9.83,9.83,0,0,0,1.14.63c1.08,0.43,2.25,1.15,2.86-.63,2.33-.64,0-3,2-4.29,0.47-.58,2.41,1.52,3-0.71h1a2.48,2.48,0,0,0,0-4l-1-1h-1Zm33.59,17.26,12.86,56c4.94-1.21,10-1.57,14.93-3.73-0.82-3.16-1.65-6.16-2.36-9.2s-1.26-6-1.89-9.05c1.75-.44,3.42-0.81,5.06-1.28,3.88-1.11,8-1.42,11.73-3,7.83-3.29,11.76-7.66,12-16.42,0.12-3.94-1.56-7.55-2.84-11.26-2.06-6-7.09-7.89-12.16-9.14-4.51-1.11-9.28.14-13.84,1.24-3.79.91-7.51,2-11.38,2.68S193.94,257.09,189.59,258.26Zm85.49-13c3.72,0,6.83-.57,9.61.13,4.3,1.09,7,4.91,10,7.87L305,242.45c0.23-2.68,3.2-3,4.32-5.1s2.7-4.74,2.45-6.86c-0.36-3.08-1-6.36-3.6-9-4.45-4.41-10.12-6.81-14.89-10l1.83-12.18,2.07-3c6.42-.92,11.29-3.22,14.87-8l-0.24-2.53c-4.81,1-8.8,4.7-14.15,2.77,0.88-1.47,1.63-2.83,2.5-4.1a3,3,0,0,1,1.31-.53l0.91,1.94h3.69l1.72-4.3a4.87,4.87,0,0,0-4.36-3.52,2.13,2.13,0,0,1-.62.69c-4.19,1.63-7.31,4.28-8.86,8.66-0.27.77-1.26,1.29-1.84,1.86l-5.65-4.33c-1.47,1.89-2.62,3.93-4.28,5.36a41.38,41.38,0,0,1-8.11,5.7c-2.92,1.48-3.66,4.3-4.91,6.69a4.31,4.31,0,0,0,1.09,5.23l-2.15,1.49v3.27a5.18,5.18,0,0,1,1.13,1.16c1,2.26,2.86,3.56,4.83,5s3.85,3.11,6.58,3.54c1.63,0.26,3.07,1.67,4.46,2.48L276.86,233H273.8l-3.12-3.88h-3.52L264.94,233l1.48,2.95a23.94,23.94,0,0,0,3.8,1c4.59,0.52,8.4-1.4,11.63-4.39,2.12-2,3.87-4.32,6-6.77,6.55,1.75,12.3,4.82,15.44,11.73l-2.7,4.79c-1.1-.41-1.95-0.8-2.83-1.05-2.38-.68-4.26-2.89-7-2.28-3.35-2.15-7.16-1.21-10.55-.79s-6.73,2.23-9.74,4c-2.13,1.27-3.89,3.42-3.32,6.59h3.29Zm73.26,32.56L329.11,310.5l2.3,10.57c3.85-.42,7.3-2.45,11.19-2.16,1.39-1.78,3.51-.27,5-1.08,3.4-1.81,7.24-1.95,10.85-2.67,5.22-1,10.42-2.07,15.12-3.42l-2.12-11.4c-2.58,2.31-5.72,1.54-8.61,2.46a40.72,40.72,0,0,1-8.19,1.83c-2.87.28-5.66,2.24-8.89,1a14.4,14.4,0,0,1,.64-1.51c2.18-3.76,4.34-7.53,6.59-11.25,2.82-4.66,5.75-9.26,8.56-13.93,1.84-3.05,3-6.34,2.4-10a41.64,41.64,0,0,0-1.42-4.81c-4.62-1.07-8.74,1.36-13.1,2.07a89.38,89.38,0,0,0-12.3,2.68c-4.18,1.3-8.64,1.67-13,2.44l-1.06,1.06a20.39,20.39,0,0,0,2.53,10.37Zm-31.57-11.13c-12.91-3.2-26.2-5.77-39.41-8.53l-1,1-2,9.81,21.33,4.51-0.38.28,1.76,0.68L267.25,296l-2.5,10.43,41.66,8.79c2-2.78,2.73-7.05,2.17-10.91l-25.27-5.61,31.2-22.3Zm96.73,5.51c-2.22-.4-4.4-0.81-6.59-1.16s-4.35-.62-6.62-0.94c-8.32,15.6-17.11,31-25.25,46.74l12.85,2.06,4.39-8c3.06,0.61,5.89.11,8.86,0.95,2.79,0.78,6,.4,8.69,1.62l1.54,8.59L425,324.17Zm-72-64L333,216.52v2l4.86,2.52v19.79c-2.8,1.38-5.2,3.12-5.94,6.62l1.58,1.45,7.81-1.15,4.58,5.87c1.25-.86,2.52-1.27,2.94-2.1,1.68-3.3,3.46-6.42,7.05-7.76l-1.37-2.8h-3.4L348,238.6c0-4.84,0-9.34,0-13.83a6,6,0,0,1,1.82-4.95l4.19,2.72a12.19,12.19,0,0,0,8.8-4.93v-5.83l-4.65.86-3.76-5c-4.59,1.09-4.67,5.64-7.2,8.36A8.53,8.53,0,0,0,341.54,208.17Zm-91.81,58.6c1.35,8.8-.89,17.73-0.74,26.75,0,2.82.7,5.88-.15,8.42-1.47,4.4-.38,8.64-0.87,12.73L260.59,316c0.49-4.46,1-8.59,1.39-12.75,0.49-5.67-.21-11.32.82-17.07,1.16-6.49-.66-13.32,1.31-19.87l-12.46-1.48Zm66.21-20.85,5.25,6h3.58c1.66-2.58,3.1-5.32,6-6.33v-2.15l-4.91-1.78c0-3.25.75-6.51-.22-9.13-0.87-2.36-1.15-4.85-.47-6.59,0.88-2.27.33-4.46,1-6.85l3.25-2.38c0.59-1.29,1-2.25,1.46-3.23a1.24,1.24,0,0,0-.33-0.34L329.53,212h-5.27l-2.44-2.92c-3.47-.81-4.44,2.28-6.48,3.36a12.42,12.42,0,0,0-5.53,6l6.13,1.63v25.8Zm6.55-49.78c-4.09,0-4.09,0-9.35,5.21v2.39c5.77,2.32,5.77,2.32,10.57,2l4.15-4.15V199.1l-3.67-.19Z" transform="translate(-72 -171)" style="fill:#fefefe"/><path d="M114,301l-3.36-.91L106.09,303l-19.93-9.58c-1.17-2.4-.61-5.74-1.32-8.77-1.11-4.74-1-9.63-2.64-14.34-1-2.85-.89-6.18-2.2-9.09-0.31-.7-0.66-1.39-1.18-2.46,3.82-3.34,8.9-4.59,13.34-7.39l-3.64-5.87L92,243.84l2.65,2.7c0.89-3.31-.34-5.54-1.38-7.79-1.49-3.21-3.07-6.38-4.57-9.59-2.11-4.53-2.19-6.72-.51-10.81,1.61-3.93,5-5.36,8.77-6.35,1-.28,2.07-0.6,2.88-0.84A28.37,28.37,0,0,1,113,217c1.64,3.6,1.23,7.29.47,11a2.05,2.05,0,0,1-.47,0h-2l0.92-1.58-5.2-5.2a0.93,0.93,0,0,0-.3-0.17h-2c-1.65,3.79-1.75,3.86-.38,6,1.19,1.83,2.25,4,5,4,0.33,1.85.8,3.69,1,5.56a20.5,20.5,0,0,1-2.54,12.6c3.42-.7,5.77,1.37,8.57.84h1c2,1.6,4.59,2.09,6.81,3.28A12.82,12.82,0,0,0,126,254l2,2,2,1,1,2v2c-2.08.81-.63,1.69-0.13,2.43L130,265l-1,9v5c-0.33.4-1,.84-0.94,1.18,0.21,1.62.61,3.21,0.94,4.82v5a11.68,11.68,0,0,0-2.14.67c-2.64,1.41-5.25,2.88-7.86,4.33l-2,2-4.17,1.55L114,300v1ZM95,290l1,1c0.47,1.93,2,.62,3,1a3.36,3.36,0,0,0,1.18,1,17.82,17.82,0,0,0,2.82,0l1,1,2,2,1-1,1-1,1-1c1-.38,2.53.93,3-1,1-.38,2.53.93,3-1l1-1h1l2-2v-4a3.16,3.16,0,0,0,1-1.23c0.1-2.25,0-4.51,0-6.77v-3c1.93-.47.62-2,1-3,1.5-.09.85-1.24,1-2h1c1,1.37,2,1.37,3,0l1-1a2.83,2.83,0,0,0-4-4l-1,1c-1.5.09-.85,1.24-1,2h-4c-0.09-1.5-1.24-.85-2-1l-1-1v-3l1-1,1-1c-0.15-.76.5-1.91-1-2l-1-1c-1-1.37-2-1.37-3,0l-1,1v3l1,1v2h-1a7.59,7.59,0,0,1-8,0h-1v-2c1.93-.47.62-2,1-3l-1-1-1-1c-1-1.37-2-1.37-3,0l-1,1c-1.37,1-1.37,2,0,3l1,1,1,3-1,1-1,1H91c-0.38-1,.93-2.53-1-3-0.47-1.93-2-.62-3-1l-1,1-1,1c-1.37,1-1.37,2,0,3,0.09,1.5,1.24.85,2,1h3c0.15,0.76-.5,1.91,1,2,0.15,0.76-.5,1.91,1,2v3a17.82,17.82,0,0,0,0,2.82A3.36,3.36,0,0,0,93,279v8c0.15,0.76-.5,1.91,1,2Z" transform="translate(-72 -171)" style="fill:#e41937"/><path d="M189.59,258.26c4.34-1.17,8.17-2.51,12.12-3.17s7.59-1.77,11.38-2.68c4.56-1.1,9.33-2.35,13.84-1.24,5.07,1.25,10.1,3.18,12.16,9.14,1.28,3.71,3,7.33,2.84,11.26-0.27,8.77-4.19,13.13-12,16.42-3.75,1.58-7.85,1.89-11.73,3-1.64.47-3.31,0.84-5.06,1.28,0.63,3,1.19,6.06,1.89,9.05s1.55,6,2.36,9.2c-5,2.15-10,2.52-14.93,3.73Zm36.29,9.15-3.18-3.22c-5.61-1.09-10.47,1.41-15.82,2.16l3.49,14.78,3.49-1.13c3.22-1,6.66-1.22,9.7-3,3.3-1.89,4.09-3.62,2.8-7.2A16.49,16.49,0,0,1,225.88,267.41Z" transform="translate(-72 -171)" style="fill:#e41937"/><path d="M275.09,245.24l-4.69,3.59h-3.29c-0.57-3.18,1.19-5.33,3.32-6.59,3-1.79,6.36-3.6,9.74-4s7.19-1.36,10.55.79c2.79-.61,4.67,1.61,7,2.28,0.89,0.25,1.74.64,2.83,1.05l2.7-4.79c-3.15-6.92-8.9-10-15.44-11.73-2.15,2.45-3.9,4.81-6,6.77-3.23,3-7,4.91-11.63,4.39a23.94,23.94,0,0,1-3.8-1L264.94,233l2.22-3.89h3.52L273.8,233h3.06l8.23-8.23c-1.39-.81-2.83-2.22-4.46-2.48-2.74-.44-4.5-2-6.58-3.54s-3.81-2.71-4.83-5a5.18,5.18,0,0,0-1.13-1.16v-3.27l2.15-1.49a4.31,4.31,0,0,1-1.09-5.23c1.25-2.39,2-5.21,4.91-6.69a41.38,41.38,0,0,0,8.11-5.7c1.67-1.44,2.81-3.48,4.28-5.36l5.65,4.33c0.58-.56,1.57-1.09,1.84-1.86,1.55-4.38,4.68-7,8.86-8.66a2.13,2.13,0,0,0,.62-0.69,4.87,4.87,0,0,1,4.36,3.52l-1.72,4.3h-3.69l-0.91-1.94a3,3,0,0,0-1.31.53c-0.87,1.27-1.62,2.63-2.5,4.1,5.35,1.93,9.33-1.73,14.15-2.77l0.24,2.53c-3.58,4.8-8.45,7.1-14.87,8l-2.07,3-1.83,12.18c4.77,3.22,10.44,5.62,14.89,10,2.63,2.61,3.25,5.89,3.6,9,0.25,2.12-1.26,4.63-2.45,6.86s-4.09,2.42-4.32,5.1l-10.25,10.79c-3.07-3-5.75-6.78-10-7.87C281.92,244.66,278.81,245.24,275.09,245.24ZM300,227l-1-1-2-2h-1l-2-2h-2l-1-1-0.51-1.1c-0.65,1.09-.88,1.86.51,2.1h1c0.09,1.5,1.24.85,2,1l2,2h1c0.09,1.5,1.24.85,2,1l1,1v1l1.5,2.1c0.67-1.08.9-1.85-.5-2.1Zm-26.09-13.9,0.2-.2-0.7-.82-0.32.32a2.88,2.88,0,0,0,.91.59l1,1,2,2h1l2,2h1a2.52,2.52,0,0,0,.7,1c1.07,0.42,2.19.7,3.3,1l2.44-.43L286,219a2.52,2.52,0,0,0-.7-1c-1.07-.42-2.19-0.7-3.3-1h-1l-3-2h-1c-0.09-1.5-1.24-.85-2-1A4.82,4.82,0,0,0,273.91,213.1ZM289.35,210c2.7-4.14.81-8.8,2.28-12.93-3.36-.47-6.86.67-10-1.06-2.6,1.35-2.7,4.11-3.62,6.09C280.19,207.54,284.55,209.26,289.35,210Z" transform="translate(-72 -171)" style="fill:#e41937"/><path d="M348.34,277.79l-22.7,5a20.39,20.39,0,0,1-2.53-10.37l1.06-1.06c4.34-.78,8.8-1.15,13-2.45a89.38,89.38,0,0,1,12.3-2.68c4.36-.7,8.48-3.14,13.1-2.07a41.64,41.64,0,0,1,1.42,4.81c0.64,3.63-.56,6.91-2.4,10-2.81,4.67-5.74,9.27-8.56,13.93-2.25,3.72-4.4,7.49-6.59,11.25a14.4,14.4,0,0,0-.64,1.51c3.23,1.27,6-.69,8.89-1a40.72,40.72,0,0,0,8.19-1.83c2.9-.92,6-0.15,8.61-2.46l2.12,11.4c-4.7,1.36-9.9,2.39-15.12,3.42-3.61.72-7.45,0.86-10.85,2.67-1.53.81-3.65-.7-5,1.08-3.89-.28-7.34,1.74-11.19,2.16l-2.3-10.57Z" transform="translate(-72 -171)" style="fill:#e41937"/><path d="M316.78,266.66l-2.27,9.7-31.2,22.3,25.27,5.61c0.56,3.86-.19,8.13-2.17,10.91l-41.66-8.79,2.5-10.43,29.87-21.6-1.76-.68,0.38-.28-21.33-4.51,2-9.81,1-1C290.58,260.89,303.86,263.46,316.78,266.66Z" transform="translate(-72 -171)" style="fill:#e41937"/><path d="M413.5,272.17l11.52,52L411.36,322l-1.54-8.59c-2.69-1.23-5.9-.84-8.69-1.62-3-.83-5.79-0.33-8.86-0.95l-4.39,8L375,316.81c8.14-15.78,16.93-31.14,25.25-46.74,2.27,0.32,4.45.59,6.62,0.94S411.28,271.78,413.5,272.17ZM398.5,302c1.62,0,3.28.11,4.93,0s2.7,2.19,4.49.62a2.88,2.88,0,0,0,.05-1.36c-1.55-2.87-1.15-6.14-1.79-9.19-0.49-2.35-1.14-4.61-1.61-7.45l-7.33,16.14Z" transform="translate(-72 -171)" style="fill:#e41937"/><path d="M341.54,208.17A8.53,8.53,0,0,1,347.2,216c2.53-2.72,2.6-7.27,7.2-8.36l3.76,5,4.65-.86v5.83a12.19,12.19,0,0,1-8.8,4.93l-4.19-2.72a6,6,0,0,0-1.82,4.95c0,4.5,0,9,0,13.83l3.16,2.38h3.4l1.37,2.8c-3.59,1.34-5.37,4.46-7.05,7.76-0.43.84-1.69,1.24-2.94,2.1l-4.58-5.87-7.81,1.15L332,247.47c0.73-3.5,3.14-5.25,5.94-6.62V221.05L333,218.53v-2Z" transform="translate(-72 -171)" style="fill:#e41a37"/><path d="M249.74,266.76l1.91-1.91,12.46,1.48c-2,6.56-.14,13.38-1.31,19.87-1,5.75-.33,11.4-0.82,17.07-0.36,4.15-.9,8.29-1.39,12.75L248,314.67c0.49-4.09-.6-8.34.87-12.73,0.85-2.54.19-5.6,0.15-8.42C248.85,284.49,251.09,275.56,249.74,266.76Z" transform="translate(-72 -171)" style="fill:#e41937"/><path d="M315.95,245.92v-25.8l-6.13-1.63a12.42,12.42,0,0,1,5.53-6c2-1.09,3-4.18,6.48-3.36l2.44,2.92h5.27l1.08,1.08a1.24,1.24,0,0,1,.33.34c-0.42,1-.87,1.94-1.46,3.23l-3.25,2.38c-0.68,2.39-.13,4.58-1,6.85-0.68,1.74-.4,4.23.47,6.59,1,2.62.22,5.88,0.22,9.13l4.91,1.78v2.15c-2.95,1-4.39,3.75-6,6.33H321.2Z" transform="translate(-72 -171)" style="fill:#e41a37"/><path d="M116,178c-0.38,4.55,1.54,8.66,2.52,12.94,0.89,3.9,2.29,7.69,3.49,11.52,0.32,1,.72,2,1.3,3.61L119,204c-0.09-1.5-1.24-.85-2-1l-1-1-0.33-.83L115,202l-3,2-4.13,2.68c3.76-8.41,5-16.54,6.13-24.68,1.65-.16.81-1.44,1-2.25S114.66,178,116,178Z" transform="translate(-72 -171)" style="fill:#e51d3b"/><path d="M322.5,196.14l1.7,2.78,3.67,0.19v2.53l-4.15,4.15c-4.8.27-4.8,0.27-10.57-2v-2.39C318.41,196.09,318.41,196.09,322.5,196.14Z" transform="translate(-72 -171)" style="fill:#e41b39"/><path d="M156,253a4.59,4.59,0,0,1,2-4l1,1h5l1-1h1v2l1,1c1.93-.47.62-2,1-3h1v1a5.35,5.35,0,0,0,1,4h-1a17.82,17.82,0,0,0-2.82,0,3.36,3.36,0,0,0-1.18,1h-1v-1l-1-1-1.57,2H157C156.85,254.24,157.5,253.09,156,253Zm3.67-2h-0.33v1h0.33v-1Z" transform="translate(-72 -171)" style="fill:#fbe2e6"/><path d="M148,251l-1.25,3.92c0.94,1.52,1.77,2.38,3.25,2.08l0.83,0.33c-0.65,2-2.32,1.66-3.83,1.67-2-.44-1.91-2.61-2.8-3.54l-0.7-6.59L145,247c0.87,0.08,2.07-.44,2,1.24a2.38,2.38,0,0,0,1,.76v2Z" transform="translate(-72 -171)" style="fill:#e62e49"/><path d="M112,204l3-2v29h-1l-1-3a2.05,2.05,0,0,0,.47,0c0.76-3.7,1.18-7.39-.47-11,1.93-.34,1.19-2.12.9-2.71-1.34-2.79-.75-5.68-0.91-8.53C112.95,205,113.35,204,112,204Z" transform="translate(-72 -171)" style="fill:#f4a5b1"/><path d="M165,287l-1,2h-1v-2.6l-2,1.6h-1l-1,1h-4l-1,1h-5v-2l1-1c0.06,0.61.05,1.16,1,.59a7.64,7.64,0,0,1,2-.59h2l5-.13V285l1-1h1c0.15,0.76-.5,1.91,1,2h1Z" transform="translate(-72 -171)" style="fill:#f9d1d7"/><path d="M116,302c1.37,0,.95,1.05,1,1.78,0.05,1,0,2,0,3v18.12l-5-.88v-1h4.6l-1.6-2v-1l1-.76L115,318v-2c1.5-.09.85-1.24,1-2V302Z" transform="translate(-72 -171)" style="fill:#fbe3e7"/><path d="M147,259c1.52,0,3.18.33,3.83-1.67L150,257c1.16-1.93,2.35-1,3.43-.12L155,256l1,1-1,2-2-1v3h-1c-1.93,0-3.86.06-5.78,0a3.17,3.17,0,0,1-1.22-1C145.76,259.85,146.91,260.5,147,259Z" transform="translate(-72 -171)" style="fill:#f9d0d6"/><path d="M139,316a5.16,5.16,0,0,1,3.28,1.77c3.11,0.46,6.24.9,9.37,1.41a1.84,1.84,0,0,1,.36.82v1a4.55,4.55,0,0,0-1.57-1c-3.81-.41-7.62-0.7-11.43-1l0.87-1.61L139,317v-1Z" transform="translate(-72 -171)" style="fill:#e83650"/><path d="M147,306a3.17,3.17,0,0,1-1.24,1c-2.92.08-5.84,0-8.76,0-0.09-1.5-1.24-.85-2-1v-1h9C144.47,306.93,146,305.62,147,306Z" transform="translate(-72 -171)" style="fill:#eb566c"/><path d="M118,223c3.25,0,6.5,0,9.75,0a3.17,3.17,0,0,1,1.25,1l-1,1-1,1-0.33-.83L126,226h-1v-2h-8v-1h1Z" transform="translate(-72 -171)" style="fill:#ec5d72"/><path d="M141,324l-11-1v-1h11v2Z" transform="translate(-72 -171)" style="fill:#e9445c"/><path d="M98,319l8.47-1.15L109,316v3h-4l-1,1H98v-1Z" transform="translate(-72 -171)" style="fill:#e83b54"/><path d="M103,324a2.2,2.2,0,0,1-.35.81q-5.15.07-10.3,0A2.2,2.2,0,0,1,92,324l1-1c0.15-.76-0.5-1.91,1-2v1c0.09,1.5,1.24.85,2,1a3.23,3.23,0,0,0,1.2,1,37.31,37.31,0,0,0,3.8,0h2Z" transform="translate(-72 -171)" style="fill:#ed697d"/><path d="M147,306c-1-.38-2.53.93-3-1,3.76,0.71,7.29-1.09,11-1v1a3.17,3.17,0,0,1-1.23,1C151.52,306.05,149.26,306,147,306Z" transform="translate(-72 -171)" style="fill:#ea4b63"/><path d="M155,322l2.44,2.1c-3.63,1.28-6.32,1.2-8.44-.1,1-.38,2.53.93,3-1C153,322.62,154.53,323.93,155,322Z" transform="translate(-72 -171)" style="fill:#e94961"/><path d="M118,312v-4c1.5-.09.85-1.24,1-2l2-1h1v1l-0.83.33L122,307l-1,1-1,1-0.83.33L120,310v2h-2Z" transform="translate(-72 -171)" style="fill:#f9d0d6"/><path d="M156,257l-1-1h1l1-1h4.43l1.57-2,1,1v2c-1.6,0-3.2-.07-4.79,0a3.18,3.18,0,0,0-1.21,1h-2Z" transform="translate(-72 -171)" style="fill:#f18f9d"/><path d="M152,232c0.71,2,2.37,3.6,2.06,6-0.08.62,0.6,1.34,0.94,2v1l-2-2c-0.38-1,.93-2.53-1-3l-1-3Z" transform="translate(-72 -171)" style="fill:#f39ba8"/><path d="M118,320v-3h1l1,1,1,2v-3l1-1v5h-2C119.91,319.5,118.76,320.15,118,320Z" transform="translate(-72 -171)" style="fill:#fcebed"/><path d="M157,246c-0.63,2.22-2.56.13-3,.71-2,1.34.37,3.66-2,4.29l-1-1c2.26-.75.28-1.78,0.15-3,0.75-.33,1.61-1.05,2.38-1,1.41,0.16,2.37-.56,3.47-1.08v1Z" transform="translate(-72 -171)" style="fill:#f39ca9"/><path d="M165,249l-1,1-0.76-1L162,250h-3l-1-1a3.17,3.17,0,0,1,1.22-1c1.92-.1,3.85,0,5.78,0v1Z" transform="translate(-72 -171)" style="fill:#f8ccd3"/><path d="M177,256v6h-1c-0.09-1.5-1.24-.85-2-1l-1-1.72,2.78-.48C176.38,257.76,175.16,256.24,177,256Z" transform="translate(-72 -171)" style="fill:#f39fab"/><path d="M167,294v2h-2a17.82,17.82,0,0,0-2.82,0,3.36,3.36,0,0,0-1.18,1h-2v-1l1-1h2C163.73,295,165.53,295.31,167,294Z" transform="translate(-72 -171)" style="fill:#e83952"/><path d="M117,203c0.76,0.15,1.91-.5,2,1a3.16,3.16,0,0,0-1,1.23c-0.1,2.25,0,4.51,0,6.77h-1v-9Z" transform="translate(-72 -171)" style="fill:#f5aeb8"/><path d="M134,314c1,0.38,2.53-.93,3,1-1.5.09-.85,1.24-1,2v1h-1v-1l-0.34-2.37L132,316v-2h2Z" transform="translate(-72 -171)" style="fill:#eb556b"/><path d="M177,267l-1,7h-1v-3c0.11-.61.18-1.23,0.34-1.82s0.44-1.45.66-2.18h1Z" transform="translate(-72 -171)" style="fill:#f5adb8"/><path d="M130,224c0.72,0.22,1.44.48,2.18,0.66s1.22,0.23,1.82.34v2l-1,1h-1v-1l-1-1-1-1v-1Z" transform="translate(-72 -171)" style="fill:#ec5b70"/><path d="M152,232l-1,1-3,1v-1l1.86-1.51L149,230h1Z" transform="translate(-72 -171)" style="fill:#f6b3bd"/><path d="M114,300l-1.17-1.45L117,297c-0.11.61-.18,1.23-0.34,1.82s-0.44,1.45-.66,2.18Z" transform="translate(-72 -171)" style="fill:#fbe3e7"/><path d="M177,267h-1v-5h1c1.65,1,1.07,2.47.63,3.85A6.56,6.56,0,0,1,177,267Z" transform="translate(-72 -171)" style="fill:#f8ccd2"/><path d="M118,320c0.76,0.15,1.91-.5,2,1l-1,1,1,1v1.72l-2,.38V320Z" transform="translate(-72 -171)" style="fill:#f6b3bd"/><path d="M167,302l-1,1c-0.76.15-1.91-.5-2,1h-2v-1a2.9,2.9,0,0,1,1.17-.95A5.92,5.92,0,0,0,167,301v1Z" transform="translate(-72 -171)" style="fill:#ea4b62"/><path d="M167,248c0.66-2.08,2.65-2.28,4.28-3a4.4,4.4,0,0,1,.72,1v1a5.35,5.35,0,0,0-4,1h-1Z" transform="translate(-72 -171)" style="fill:#f5adb8"/><path d="M178,278l0.84,0.66c-1.22,1.49-1.63,3.71-3.84,4.34v-2l1-1c1.5-.09.85-1.24,1-2h1Z" transform="translate(-72 -171)" style="fill:#f4aab5"/><path d="M116,178c-1.34,0-.85,1-1,1.75s0.66,2.09-1,2.25c0.05-2.4-.45-4.93,2-7.17V178Z" transform="translate(-72 -171)" style="fill:#ed6c7f"/><path d="M141,324v-1l1-1c1.81,1.47,4,.92,6,1v1h-7Z" transform="translate(-72 -171)" style="fill:#e62b47"/><path d="M112,323v1h-4v-2h4v1Z" transform="translate(-72 -171)" style="fill:#ea4860"/><path d="M116,314c-0.15.76,0.5,1.91-1,2l-1,1h-1c-0.15-.76.5-1.91-1-2,0.47-1.93,2-.62,3-1h1Z" transform="translate(-72 -171)" style="fill:#eb566c"/><path d="M108,322v2h-7v-1h2a17.82,17.82,0,0,0,2.82,0,3.36,3.36,0,0,0,1.18-1h1Z" transform="translate(-72 -171)" style="fill:#e72e4a"/><path d="M130,322v1h-5v-1l1-1h3Z" transform="translate(-72 -171)" style="fill:#ed6276"/><path d="M120,323l-1-1,1-1h4l-1,2h-3Z" transform="translate(-72 -171)" style="fill:#ea4960"/><path d="M167,302v-1c-0.33-1.1-.61-2.23-1-3.3a2.52,2.52,0,0,0-1-.7v-1h2c0.11,1.19-.29,2.41.83,3.5C168.21,299.87,168.84,301.68,167,302Z" transform="translate(-72 -171)" style="fill:#f6b6bf"/><path d="M177,247h3.85c-0.18,1.7,1.18,3.51-.85,5v-4h-3v-1Z" transform="translate(-72 -171)" style="fill:#f2909f"/><path d="M151,250l1,1c-0.61,1.77-1.78,1.05-2.86.63A9.83,9.83,0,0,1,148,251v-2Z" transform="translate(-72 -171)" style="fill:#f5b2bc"/><path d="M167,294c-1.47,1.31-3.27,1-5,1,0-1.34,1.06-.81,1.73-1a4.9,4.9,0,0,0,1.27-1l1-1C167.5,292.09,166.85,293.24,167,294Z" transform="translate(-72 -171)" style="fill:#fcf0f2"/><path d="M141,222a2.48,2.48,0,0,1,4,0l-1,1h-3v-1Z" transform="translate(-72 -171)" style="fill:#f299a6"/><path d="M145,222c2.27,0.91,2.65,2.95,3,5-0.67-.75-1.32-1.52-2-2.25a7.35,7.35,0,0,0-1-.75v-2Z" transform="translate(-72 -171)" style="fill:#f39daa"/><path d="M118,299v-2h1l1,1,3,1v1h-2C120.53,298.07,119,299.38,118,299Z" transform="translate(-72 -171)" style="fill:#ea4a61"/><path d="M112,315c1.5,0.09.85,1.24,1,2h-4v-1Z" transform="translate(-72 -171)" style="fill:#e62d49"/><path d="M118,223h-1v-6h1v6Z" transform="translate(-72 -171)" style="fill:#f4a8b4"/><path d="M98,319v2l-3,1v-1A2.46,2.46,0,0,1,98,319Z" transform="translate(-72 -171)" style="fill:#eb586e"/><path d="M162,303v1c-0.76.15-1.91-.5-2,1h-2v-1a3.36,3.36,0,0,1,1.18-1A17.82,17.82,0,0,1,162,303Z" transform="translate(-72 -171)" style="fill:#e83b54"/><path d="M165,287l-1-1,5-1v1c-0.61.11-1.23,0.18-1.82,0.34S165.72,286.78,165,287Z" transform="translate(-72 -171)" style="fill:#f3a1ad"/><path d="M172,247v-1a17.82,17.82,0,0,1,2.82,0,3.36,3.36,0,0,1,1.18,1c-0.76.15-1.91-.5-2,1h-1Z" transform="translate(-72 -171)" style="fill:#f297a4"/><path d="M118,299c1,0.38,2.53-.93,3,1h-2v2h-1v-3Z" transform="translate(-72 -171)" style="fill:#fbe3e7"/><path d="M116,314h-1v-5h1v5Z" transform="translate(-72 -171)" style="fill:#f7bdc5"/><path d="M118,217h-1v-5h1v5Z" transform="translate(-72 -171)" style="fill:#f18c9b"/><path d="M118,312h2v1l-1,1v2h-1v-4Z" transform="translate(-72 -171)" style="fill:#f7bec6"/><path d="M118,302h2c0.09,1.5,1.24.85,2,1l-1,1h-2l-1-1v-1Z" transform="translate(-72 -171)" style="fill:#e62f4a"/><path d="M136,317c0.15-.76-0.5-1.91,1-2l2,1v1h-3Z" transform="translate(-72 -171)" style="fill:#e62c47"/><path d="M116,302v5h-1v-5h1Z" transform="translate(-72 -171)" style="fill:#f4a8b3"/><path d="M148,324v-1h4c-0.47,1.93-2,.62-3,1h-1Z" transform="translate(-72 -171)" style="fill:#e9415a"/><path d="M164,290l2,2h-2l-1-2h1Z" transform="translate(-72 -171)" style="fill:#f294a1"/><path d="M169,286v-2h3Z" transform="translate(-72 -171)" style="fill:#f5b0ba"/><path d="M137,307c-0.38,1,.93,2.53-1,3-0.15-.76.5-1.91-1-2v-1h2Z" transform="translate(-72 -171)" style="fill:#f3a0ad"/><path d="M158,242a2.48,2.48,0,0,1,0,4v-4Z" transform="translate(-72 -171)" style="fill:#f4abb6"/><path d="M176,275l2,2h-1C175.5,276.91,176.15,275.76,176,275Z" transform="translate(-72 -171)" style="fill:#f18e9d"/><path d="M180,252c-0.15.76,0.5,1.91-1,2h-1v-1l1-1h1Z" transform="translate(-72 -171)" style="fill:#f4a4b0"/><path d="M116,302h-1l-1-1v-1l2,1v1Z" transform="translate(-72 -171)" style="fill:#ec5d72"/><path d="M158,304v1h-3v-1h3Z" transform="translate(-72 -171)" style="fill:#e7304b"/><path d="M119,306c-0.15.76,0.5,1.91-1,2v-3h1v1Z" transform="translate(-72 -171)" style="fill:#f398a5"/><path d="M148,227l2,2h-1C147.5,228.91,148.15,227.76,148,227Z" transform="translate(-72 -171)" style="fill:#f4a7b2"/><path d="M136,310l-1,1h-1v-2h1Z" transform="translate(-72 -171)" style="fill:#f5b0ba"/><path d="M167,248h1v1h-3v-1h2Z" transform="translate(-72 -171)" style="fill:#f18796"/><path d="M134,314h-1v-3h1v3Z" transform="translate(-72 -171)" style="fill:#f39ca9"/><path d="M119,297h-2l2-2v2Z" transform="translate(-72 -171)" style="fill:#fbe3e7"/><path d="M153,320l2,2c-0.76-.15-1.91.5-2-1v-1Z" transform="translate(-72 -171)" style="fill:#e83c56"/><path d="M123,323l1-2h1v2h-2Z" transform="translate(-72 -171)" style="fill:#fadee2"/><path d="M115,307h1v2h-1v-2Z" transform="translate(-72 -171)" style="fill:#f299a7"/><path d="M158,242v1l-1-1v-1Z" transform="translate(-72 -171)" style="fill:#f08494"/><path d="M174,283c-0.09,1.5-1.24.85-2,1C172.09,282.5,173.24,283.15,174,283Z" transform="translate(-72 -171)" style="fill:#f39daa"/><path d="M160,305c0.09-1.5,1.24-.85,2-1C161.91,305.5,160.76,304.85,160,305Z" transform="translate(-72 -171)" style="fill:#fdf7f8"/><path d="M164,304c0.09-1.5,1.24-.85,2-1C165.91,304.5,164.76,303.85,164,304Z" transform="translate(-72 -171)" style="fill:#fdf7f8"/><path d="M119,305h-1v-2l1,1v1Z" transform="translate(-72 -171)" style="fill:#fbe3e7"/><path d="M130,224v1h-2l1-1h1Z" transform="translate(-72 -171)" style="fill:#e9475f"/><path d="M118,316h2v1h-2v-1Z" transform="translate(-72 -171)" style="fill:#f398a6"/><path d="M136,225l1-1v2h-1v-1Z" transform="translate(-72 -171)" style="fill:#f07f8f"/><path d="M156,253c1.5,0.09.85,1.24,1,2h-1v-2Z" transform="translate(-72 -171)" style="fill:#f18998"/><path d="M136,225v1h-2v-1h2Z" transform="translate(-72 -171)" style="fill:#f8c5cc"/><path d="M138,224l1-1h1C139.91,224.5,138.76,223.85,138,224Z" transform="translate(-72 -171)" style="fill:#ee6e81"/><path d="M137,225v-1h1Z" transform="translate(-72 -171)" style="fill:#ed6c7e"/><path d="M153,320v1h-1v-1h1Z" transform="translate(-72 -171)" style="fill:#e7304b"/><path d="M95,321v1H94v-1h1Z" transform="translate(-72 -171)" style="fill:#e7324d"/><path d="M141,222v1h-1v-1h1Z" transform="translate(-72 -171)" style="fill:#ee7284"/><path d="M140,222v1h-1Z" transform="translate(-72 -171)" style="fill:#f6bac3"/><path d="M93,323l-1,1Z" transform="translate(-72 -171)" style="fill:#e62e49"/><path d="M149,229h1v1h-1v-1Z" transform="translate(-72 -171)" style="fill:#f18c9b"/><path d="M134,312v-1h1Z" transform="translate(-72 -171)" style="fill:#ef7888"/><path d="M178,254h1l-1,1v-1Z" transform="translate(-72 -171)" style="fill:#f18998"/><path d="M156,255h1l-1,1v-1Z" transform="translate(-72 -171)" style="fill:#ec6277"/><path d="M178,255l-1,1Z" transform="translate(-72 -171)" style="fill:#f18998"/><path d="M175,274h1v1h-1v-1Z" transform="translate(-72 -171)" style="fill:#ef7888"/><path d="M155,241v-1l1,1h-1Z" transform="translate(-72 -171)" style="fill:#f08394"/><path d="M157,241v1l-1-1h1Z" transform="translate(-72 -171)" style="fill:#f08494"/><path d="M164,290h-1v-1h1v1Z" transform="translate(-72 -171)" style="fill:#eb556c"/><path d="M158,245v1h-1v-1h1Z" transform="translate(-72 -171)" style="fill:#f08595"/><path d="M177,277h1v1h-1v-1Z" transform="translate(-72 -171)" style="fill:#ed6b7e"/><path d="M177,247v1h-1v-1h1Z" transform="translate(-72 -171)" style="fill:#f18c9b"/><path d="M175,282v1h-1v-1h1Z" transform="translate(-72 -171)" style="fill:#f18c9b"/><path d="M119,297v-2c2.62-1.45,5.22-2.93,7.86-4.33A11.68,11.68,0,0,1,129,290l1.06,0.61a23.14,23.14,0,0,1,3.48-.58c1.59,0,3.14,0,4.46-1l1,1,0.53,1.35,1.11-2L140,287h2l0.39,0.87L144,287v1l-1.89,1.65L144,291v2l-1,1-1,1-6,6h-2a3.36,3.36,0,0,0-1.18-1,17.82,17.82,0,0,0-2.82,0c-2.17.7-3.95-1-6-1h-1l-3-1Zm21.3-4-0.46-1c-3.1,0-6.19,0-9.29,0s-5.23,1.67-6.77,4.29c3.89,2.26,7.9,1.64,11.8,1.72Z" transform="translate(-72 -171)" style="fill:#fdf6f7"/><path d="M129,274l1-9h2c0.09,1.5,1.24.85,2,1l1,1,2,2h1c0.09,1.5,1.24.85,2,1a4.59,4.59,0,0,0,4,2h1l2,1.08,2-1.08h2l1-1,1-1,3-2v1l1,1v3a2.46,2.46,0,0,0-3,2h-2c-0.09-1.5-1.24-.85-2-1-2.83-.34-5.33,1-8,1.54a2.25,2.25,0,0,0,0,.46c-2-.09-3.83.09-5,2l-2-1-1-1-1-1a3.36,3.36,0,0,0-1.18-1A17.82,17.82,0,0,0,129,274Zm12-.76-8.73-5-1,3.64c2.75-.77,3.59,2.07,5.35,3.06C138.25,275,139.83,275.39,141,273.24Z" transform="translate(-72 -171)" style="fill:#fdf6f7"/><path d="M113,228l1,3-1.3.47,1.83,1.83L115,232h1v18c-2.8.53-5.15-1.54-8.57-.84a20.5,20.5,0,0,0,2.54-12.6c-0.17-1.87-.64-3.71-1-5.56l2-2v-1h2Zm0,16,1,1,0.34,1.9c0.49-2.31,1-4.56.2-7.23L114,241h-1l-1,.76,1,1.24v1Zm-0.83-9.18,0.86-.06-0.36-1.67-0.49.07v1.66ZM112,239.33v0.33h1v-0.33h-1Zm0.67-3.33h-0.33v1h0.33v-1Z" transform="translate(-72 -171)" style="fill:#fceff1"/><path d="M131,259l-1-2,1-1v-1h2l-1,1.72,4,1.28c0.09,1.5,1.24.85,2,1a2.52,2.52,0,0,0,.7,1c1.07,0.42,2.19.7,3.3,1h2c0,1.28,1,1,1.68,1,1.74,0.07,3.55-.41,4.82.69L152,262h3l-1,3-3,1-2.64.81L144,266l-5-1c-0.09-1.5-1.24-.85-2-1a2.46,2.46,0,0,0-3-2Z" transform="translate(-72 -171)" style="fill:#fdf4f5"/><path d="M109,231c-2.72,0-3.78-2.15-5-4-1.37-2.11-1.27-2.17.38-6h2a0.93,0.93,0,0,1,.3.17l5.2,5.2L111,228l-1,1C108.5,229.09,109.15,230.24,109,231Z" transform="translate(-72 -171)" style="fill:#fcf0f2"/><path d="M126,254a12.82,12.82,0,0,1-2.19-.72c-2.23-1.19-4.79-1.68-6.81-3.28v-1a2.46,2.46,0,0,0,3-2h3l1,1h1c0.11,0.61.18,1.23,0.34,1.82s0.44,1.45.66,2.18v2Z" transform="translate(-72 -171)" style="fill:#fdf4f5"/><path d="M117,290h-1l-1,1h-2a2.46,2.46,0,0,0-3-2v-1c2.27-.91,3.06-3,4-5a14.07,14.07,0,0,0,1.87,1.33A13.18,13.18,0,0,0,118,285v3C116.5,288.09,117.15,289.24,117,290Z" transform="translate(-72 -171)" style="fill:#d9d5d7"/><path d="M138,289c-1.32,1.07-2.87,1-4.46,1a23.14,23.14,0,0,0-3.48.58L129,290v-1l1.9-.34-0.07-.66H129v-3l3,1c1.5-.09.85-1.24,1-2l1,1a3.23,3.23,0,0,0,1.2,1,37.31,37.31,0,0,0,3.8,0v1c-1.62.15-3.32-.31-4.84,1H138v1Z" transform="translate(-72 -171)" style="fill:#f8c9d0"/><path d="M134,285l-1-1c-1.5.09-.85,1.24-1,2l-3-1c-0.33-1.6-.74-3.2-0.94-4.82,0-.35.61-0.79,0.94-1.18h1c-0.21.37-.39,0.76-0.62,1.11-0.6.9-.75,1.64,0.62,1.89a3.16,3.16,0,0,0,1.23,1c2.25,0.1,4.51,0,6.77,0l1,1a3.23,3.23,0,0,1-1.2,1A37.31,37.31,0,0,1,134,285Z" transform="translate(-72 -171)" style="fill:#fbe2e6"/><path d="M131,259l3,3a9.6,9.6,0,0,0-.95,1l-0.14-.15-0.82.7,0.32,0.32a5.61,5.61,0,0,0,.64-0.86,9.6,9.6,0,0,1,.95-1,2.46,2.46,0,0,1,3,2c-0.76.15-1.91-.5-2,1h-5l0.87-1.57c-0.5-.74-1.95-1.62.17-2.48l-0.15.14,0.7,0.82,0.32-.32a5.61,5.61,0,0,0-.86-0.64C131,260.33,131,259.67,131,259Z" transform="translate(-72 -171)" style="fill:#f8cbd2"/><path d="M110,260v-3l1-1h3l1,1v3l-1,1h-3Z" transform="translate(-72 -171)" style="fill:#e9e9e9"/><path d="M130,279h-1v-4h4l1,1v3l-0.39.87L132,279l-0.76-1Z" transform="translate(-72 -171)" style="fill:#fdf8f9"/><path d="M117,249v1h-1V232h1v17Z" transform="translate(-72 -171)" style="fill:#fefdfd"/><path d="M88,268H87l-1-1-1-3,1-1h1l3,1v3C89.24,267.15,88.09,266.5,88,268Z" transform="translate(-72 -171)" style="fill:#ececec"/><path d="M102,263a7.59,7.59,0,0,0,8,0v1a2.37,2.37,0,0,1-.78,1c-2.14.08-4.29,0.08-6.44,0a2.37,2.37,0,0,1-.78-1v-1Z" transform="translate(-72 -171)" style="fill:#6e4148"/><path d="M118,288v-3a37.31,37.31,0,0,1,0-3.8,3.23,3.23,0,0,1,1-1.2v8h-1Z" transform="translate(-72 -171)" style="fill:#62494d"/><path d="M119,284v-8h1c0,2.26.05,4.52,0,6.77A3.16,3.16,0,0,1,119,284Z" transform="translate(-72 -171)" style="fill:#871c2b"/><path d="M101,261v2l-1.49-.86L98,264l-1-3h4Z" transform="translate(-72 -171)" style="fill:#55272e"/><path d="M111,261h3v3l-1.51-1.86L111,263v-2Z" transform="translate(-72 -171)" style="fill:#4c2c31"/><path d="M93,283v-6h1v6H93Z" transform="translate(-72 -171)" style="fill:#565354"/><path d="M96,260c-1.37-1-1.37-2,0-3h1l-0.85,1.5L97,260H96Z" transform="translate(-72 -171)" style="fill:#8d404b"/><path d="M106,296l-2-2v-1l3,1v1Z" transform="translate(-72 -171)" style="fill:#781c2a"/><path d="M91,266h5a3.23,3.23,0,0,1-1.2,1,37.31,37.31,0,0,1-3.8,0v-1Z" transform="translate(-72 -171)" style="fill:#993040"/><path d="M127,263a2.48,2.48,0,0,1,0,4,5.35,5.35,0,0,0-1-4h1Z" transform="translate(-72 -171)" style="fill:#62393f"/><path d="M85,264l1,3H85C83.63,266,83.63,265,85,264Z" transform="translate(-72 -171)" style="fill:#8b1c2c"/><path d="M103,293a17.82,17.82,0,0,1-2.82,0A3.36,3.36,0,0,1,99,292a17.82,17.82,0,0,1,2.82,0A3.36,3.36,0,0,1,103,293Z" transform="translate(-72 -171)" style="fill:#683c43"/><path d="M93,277v2a3.36,3.36,0,0,1-1-1.18A17.82,17.82,0,0,1,92,275h1v2Z" transform="translate(-72 -171)" style="fill:#a21b2f"/><path d="M133,275h-4v-1a17.82,17.82,0,0,1,2.82,0A3.36,3.36,0,0,1,133,275Z" transform="translate(-72 -171)" style="fill:#f8c7ce"/><path d="M126,268c-1,1.37-2,1.37-3,0v-1Z" transform="translate(-72 -171)" style="fill:#89313e"/><path d="M93,283h1v4H93v-4Z" transform="translate(-72 -171)" style="fill:#541d26"/><path d="M119,266h3l1,1h-4v-1Z" transform="translate(-72 -171)" style="fill:#541d26"/><path d="M101,261h-1l1-3h1C101.62,259,102.93,260.53,101,261Z" transform="translate(-72 -171)" style="fill:#66444a"/><path d="M90,264l-3-1v-1c1,0.38,2.53-.93,3,1v1Z" transform="translate(-72 -171)" style="fill:#67484d"/><path d="M90,264v-1c1.93,0.47.62,2,1,3v1H90v-3Z" transform="translate(-72 -171)" style="fill:#50252c"/><path d="M131,256l-1,1-2-1v-1h2Z" transform="translate(-72 -171)" style="fill:#fefefe"/><path d="M97,256c1-1.37,2-1.37,3,0l-3,1v-1Z" transform="translate(-72 -171)" style="fill:#773842"/><path d="M127,263h-4A2.48,2.48,0,0,1,127,263Z" transform="translate(-72 -171)" style="fill:#5a2c33"/><path d="M121,270c-0.38,1,.93,2.53-1,3C120.38,272,119.07,270.47,121,270Z" transform="translate(-72 -171)" style="fill:#481e24"/><path d="M128,255v1l-2-2h2v1Z" transform="translate(-72 -171)" style="fill:#f9d2d7"/><path d="M114,256h-3C112,254.63,113,254.63,114,256Z" transform="translate(-72 -171)" style="fill:#6f1d29"/><path d="M120,276h-1c0.38-1-.93-2.53,1-3v3Z" transform="translate(-72 -171)" style="fill:#5d4448"/><path d="M93,275H92v-3C93.93,272.47,92.62,274,93,275Z" transform="translate(-72 -171)" style="fill:#65454a"/><path d="M118,288h1l-2,2C117.15,289.24,116.5,288.09,118,288Z" transform="translate(-72 -171)" style="fill:#9b1b2e"/><path d="M93,287h1l1,2H94C92.5,288.91,93.15,287.76,93,287Z" transform="translate(-72 -171)" style="fill:#83313d"/><path d="M112,292c-0.47,1.93-2,.62-3,1C109.47,291.07,111,292.38,112,292Z" transform="translate(-72 -171)" style="fill:#481e24"/><path d="M121,267h1v1c-0.15.76,0.5,1.91-1,2v-3Z" transform="translate(-72 -171)" style="fill:#3f3b3c"/><path d="M113,291h2c-0.47,1.93-2,.62-3,1Z" transform="translate(-72 -171)" style="fill:#492c31"/><path d="M99,292c-1-.38-2.53.93-3-1C97,291.38,98.53,290.07,99,292Z" transform="translate(-72 -171)" style="fill:#4a3b3e"/><path d="M119,266v1c-0.76-.15-1.91.5-2-1h2Z" transform="translate(-72 -171)" style="fill:#481e24"/><path d="M122,266h-1c0.15-.76-0.5-1.91,1-2v2Z" transform="translate(-72 -171)" style="fill:#831c2b"/><path d="M115,265c0.76,0.15,1.91-.5,2,1C116.24,265.85,115.09,266.5,115,265Z" transform="translate(-72 -171)" style="fill:#3f3b3c"/><path d="M129,288h1.83l0.07,0.66L129,289v-1Z" transform="translate(-72 -171)" style="fill:#fadee3"/><path d="M92,272c-1.5-.09-0.85-1.24-1-2C92.5,270.09,91.85,271.24,92,272Z" transform="translate(-72 -171)" style="fill:#781c2a"/><path d="M85,267h1l1,1C86.24,267.85,85.09,268.5,85,267Z" transform="translate(-72 -171)" style="fill:#6c1d29"/><path d="M88,268c0.09-1.5,1.24-.85,2-1v1H88Z" transform="translate(-72 -171)" style="fill:#312d2e"/><path d="M91,270c-1.5-.09-0.85-1.24-1-2C91.5,268.09,90.85,269.24,91,270Z" transform="translate(-72 -171)" style="fill:#781c2a"/><path d="M115,259v-2c1.5,0.09.85,1.24,1,2h-1Z" transform="translate(-72 -171)" style="fill:#492c31"/><path d="M109,293l-1,1Z" transform="translate(-72 -171)" style="fill:#481e24"/><path d="M106,296l1-1Z" transform="translate(-72 -171)" style="fill:#601d27"/><path d="M107,295v-1h1Z" transform="translate(-72 -171)" style="fill:#6c1d29"/><path d="M96,260h1v1Z" transform="translate(-72 -171)" style="fill:#481e24"/><path d="M110,260l1,1Z" transform="translate(-72 -171)" style="fill:#481e24"/><path d="M114,261l1-1Z" transform="translate(-72 -171)" style="fill:#686566"/><path d="M87,262v1H86Z" transform="translate(-72 -171)" style="fill:#492c31"/><path d="M96,266l1-1v1H96Z" transform="translate(-72 -171)" style="fill:#552c32"/><path d="M114,264l1,1Z" transform="translate(-72 -171)" style="fill:#552c32"/><path d="M97,265l1-1Z" transform="translate(-72 -171)" style="fill:#552c32"/><path d="M86,263l-1,1Z" transform="translate(-72 -171)" style="fill:#4c494a"/><path d="M122,264l1-1Z" transform="translate(-72 -171)" style="fill:#3d2d30"/><path d="M110,264v-1h1Z" transform="translate(-72 -171)" style="fill:#4c494a"/><path d="M102,263v1l-1-1h1Z" transform="translate(-72 -171)" style="fill:#4c494a"/><path d="M97,256v1H96Z" transform="translate(-72 -171)" style="fill:#481e24"/><path d="M100,256l1,1Z" transform="translate(-72 -171)" style="fill:#4c494a"/><path d="M111,256l-1,1Z" transform="translate(-72 -171)" style="fill:#481e24"/><path d="M115,257l-1-1Z" transform="translate(-72 -171)" style="fill:#4c494a"/><path d="M102,258h-1v-1Z" transform="translate(-72 -171)" style="fill:#3d2d30"/><path d="M127,267l-1,1Z" transform="translate(-72 -171)" style="fill:#3d2d30"/><path d="M122,268v-1h1v1h-1Z" transform="translate(-72 -171)" style="fill:#2f1f21"/><path d="M115,259h1l-1,1v-1Z" transform="translate(-72 -171)" style="fill:#3d2d30"/><path d="M104,293v1l-1-1h1Z" transform="translate(-72 -171)" style="fill:#481e24"/><path d="M115,291l1-1Z" transform="translate(-72 -171)" style="fill:#695a5c"/><path d="M96,291l-1-1Z" transform="translate(-72 -171)" style="fill:#492c31"/><path d="M94,289h1v1Z" transform="translate(-72 -171)" style="fill:#481e24"/><path d="M225.88,267.41a16.49,16.49,0,0,0,.48,2.42c1.29,3.58.5,5.32-2.8,7.2-3,1.74-6.49,1.93-9.7,3l-3.49,1.13-3.49-14.78c5.35-.75,10.21-3.25,15.82-2.16Z" transform="translate(-72 -171)" style="fill:#fefdfd"/><path d="M289.35,210c-4.8-.77-9.16-2.49-11.33-7.9,0.92-2,1-4.74,3.62-6.09,3.13,1.73,6.63.59,10,1.06C290.16,201.24,292,205.89,289.35,210Z" transform="translate(-72 -171)" style="fill:#fefcfd"/><path d="M282,217c1.1,0.33,2.23.61,3.3,1a2.52,2.52,0,0,1,.7,1l-1,1c-1.1-.33-2.23-0.61-3.3-1a2.52,2.52,0,0,1-.7-1Z" transform="translate(-72 -171)" style="fill:#f7bec7"/><path d="M280,218l-2-2v-1l3,2Z" transform="translate(-72 -171)" style="fill:#f4aab4"/><path d="M294,222l2,2v1l-2-2v-1Z" transform="translate(-72 -171)" style="fill:#f297a5"/><path d="M301,228c1.4,0.25,1.17,1,.5,2.1L300,228h1Z" transform="translate(-72 -171)" style="fill:#e83a54"/><path d="M275,214c0.76,0.15,1.91-.5,2,1v1Z" transform="translate(-72 -171)" style="fill:#f9d3d8"/><path d="M297,224l2,2c-0.76-.15-1.91.5-2-1v-1Z" transform="translate(-72 -171)" style="fill:#f295a3"/><path d="M280,218l1-1h1l-1,1h-1Z" transform="translate(-72 -171)" style="fill:#fcf0f1"/><path d="M291,222c-1.39-.24-1.16-1-0.51-2.1L291,221v1Z" transform="translate(-72 -171)" style="fill:#f08494"/><path d="M285,220l1-1,1.44,0.57Z" transform="translate(-72 -171)" style="fill:#fcf0f1"/><path d="M294,222v1c-0.76-.15-1.91.5-2-1h2Z" transform="translate(-72 -171)" style="fill:#fbe1e5"/><path d="M297,224v1h-1v-1h1Z" transform="translate(-72 -171)" style="fill:#fcf0f1"/><path d="M291,222v-1l1,1h-1Z" transform="translate(-72 -171)" style="fill:#fcf0f1"/><path d="M277,216v-1h1v1h-1Z" transform="translate(-72 -171)" style="fill:#fcf0f1"/><path d="M274,213l1,1Z" transform="translate(-72 -171)" style="fill:#f6b6bf"/><path d="M273.91,213.1l-0.82-.7,0.32-.32,0.7,0.82Z" transform="translate(-72 -171)" style="fill:#ec6176"/><path d="M301,228h-1v-1Z" transform="translate(-72 -171)" style="fill:#ef7e8e"/><path d="M300,227l-1-1Z" transform="translate(-72 -171)" style="fill:#f399a6"/><path d="M398.5,302l-1.26-1.26,7.33-16.14c0.47,2.84,1.11,5.1,1.61,7.45,0.64,3,.24,6.32,1.79,9.19a2.88,2.88,0,0,1-.05,1.36c-1.79,1.57-2.93-.75-4.49-0.62S400.12,302,398.5,302Z" transform="translate(-72 -171)" style="fill:#fdf7f8"/><path d="M117,232h-2V202l0.67-.83L116,202c0,5.08,0,10.17,0,15.25,0,0.72-.36,1.74,1,1.75v8l-1,.76,1,1.24v3Z" transform="translate(-72 -171)" style="fill:#fdf9fa"/><path d="M117,219c-1.34,0-1-1-1-1.75,0-5.08,0-10.17,0-15.25l1,1v16Z" transform="translate(-72 -171)" style="fill:#fcebed"/><path d="M172,247l1,1v5c-0.87.08-2.07-.44-2,1.24a2.38,2.38,0,0,1-1,.76v-1a5.35,5.35,0,0,1-1-4c0.76-.15,1.91.5,2-1C172.5,248.91,171.85,247.76,172,247Z" transform="translate(-72 -171)" style="fill:#f8ccd3"/><path d="M165,255a3.36,3.36,0,0,1,1.18-1,17.82,17.82,0,0,1,2.82,0l1,1,1,3h-3v-1c-0.47-1.93-2-.62-3-1v-1Z" transform="translate(-72 -171)" style="fill:#f6bac3"/><path d="M172,247c-0.15.76,0.5,1.91-1,2h-3v-1A5.35,5.35,0,0,1,172,247Z" transform="translate(-72 -171)" style="fill:#fdf7f8"/><path d="M166,249h2c-0.38,1,.93,2.53-1,3l-1-1v-2Z" transform="translate(-72 -171)" style="fill:#f8ccd3"/><path d="M165,255v2h-1v-2h1Z" transform="translate(-72 -171)" style="fill:#f18897"/><path d="M162,250l1.24-1,0.76,1h-2Z" transform="translate(-72 -171)" style="fill:#e83852"/><path d="M169,249h2c-0.09,1.5-1.24.85-2,1v-1Z" transform="translate(-72 -171)" style="fill:#f5a8b3"/><path d="M164,254l-1-1Z" transform="translate(-72 -171)" style="fill:#e41937"/><path d="M170,255l-1-1h1v1Z" transform="translate(-72 -171)" style="fill:#f292a0"/><path d="M158,249l1,1Z" transform="translate(-72 -171)" style="fill:#f18f9e"/><path d="M159.67,251v1h-0.33v-1h0.33Z" transform="translate(-72 -171)" style="fill:#e62f4a"/><path d="M166,251l1,1Z" transform="translate(-72 -171)" style="fill:#e83952"/><path d="M147,259c-0.09,1.5-1.24.85-2,1h-3a2.52,2.52,0,0,0-.7-1c-1.07-.42-2.19-0.7-3.3-1h-1v-1l-1-1a46.88,46.88,0,0,1-1-5.05c-0.17-2,0-4,0-6v-2l1-1h1l3-2h3c0.76,0,1.22.22,0.5,1s-0.26,1,.5,1a2.46,2.46,0,0,0,2,3l-1,2-1.5,1.87,0.7,6.59C145.09,256.39,145,258.56,147,259Zm-4.51-2.25c-1.26-2.2.59-4.52-1.43-6.36-0.32-.29.05-1.54,0.34-2.24a35.9,35.9,0,0,1,1.65-3.22l-1.82-3.23L137,244.24c0,2.67-.09,5.15,0,7.61,0,0.87.84,1.69,0.91,2.56C138.18,256.89,139.64,257.24,142.49,256.75Z" transform="translate(-72 -171)" style="fill:#fef9fa"/><path d="M145,247l1-2c1-.38,2.53.93,3-1a3.36,3.36,0,0,0,1-1.18,17.82,17.82,0,0,0,0-2.82c0.15-.76-0.5-1.91,1-2l2,1,2,2h1l1,1,1,1v2h-1c-1.1.52-2.06,1.24-3.47,1.08-0.77-.09-1.63.64-2.38,1,0.13,1.18,2.11,2.21-.15,3l-3-1a2.38,2.38,0,0,1-1-.76C147.07,246.56,145.87,247.08,145,247Z" transform="translate(-72 -171)" style="fill:#fcf0f2"/><path d="M115,231v1l-0.47,1.3-1.83-1.83L114,231h1Z" transform="translate(-72 -171)" style="fill:#ef7788"/><path d="M163,290l1,2,1,1a4.9,4.9,0,0,1-1.27,1c-0.68.23-1.73-.3-1.73,1h-2c-0.76.15-1.91-.5-2,1h-1l-1,1h-1l-1,1h-1l-1,1-2-2-1-2-2-3a8.48,8.48,0,0,1,.76-1c0.38-.37.82-0.68,1.24-1h5l1-1h4l1-1h1l1,1Z" transform="translate(-72 -171)" style="fill:#fdf5f5"/><path d="M150,287l-1,1h-1v-2c-0.15-.76.5-1.91-1-2v-1c1.62-.15,3.32.31,4.85-1H147l-2,1c-0.09-1.5-1.24-.85-2-1v-1c2.2,0.15,3.12-1.39,4-3l1-1h1v2l-2.74,2H153v1a1.79,1.79,0,0,1,0,.92,22.35,22.35,0,0,1-3.37,3.09l0.48,0-0.38-2-0.65.08a3.54,3.54,0,0,0,.55,1.9A1.08,1.08,0,0,1,150,287Z" transform="translate(-72 -171)" style="fill:#f5b2bc"/><path d="M150,287v-1c1-1,2-2,3-3.08a1.79,1.79,0,0,0,0-.92h1l0.33,0.83L155,282h2v1l0.43,2.44L158,284c0.76,0.15,1.91-.5,2,1-1.47,1.31-3.27,1-5,1l-1-1-1,1v1a7.64,7.64,0,0,0-2,.59C150.05,288.16,150.06,287.61,150,287Z" transform="translate(-72 -171)" style="fill:#fadfe3"/><path d="M148,288h1v2l-3.55-1L144,291l-1.89-1.35L144,288h4Z" transform="translate(-72 -171)" style="fill:#f7bfc8"/><path d="M155,286c1.73,0,3.53.31,5-1v1.87l-5,.13v-1Z" transform="translate(-72 -171)" style="fill:#f5abb6"/><path d="M160,285c-0.09-1.5-1.24-.85-2-1v-1h3v1Z" transform="translate(-72 -171)" style="fill:#f5a9b4"/><path d="M161,288l2-1.6V289h-1Z" transform="translate(-72 -171)" style="fill:#ed6579"/><path d="M155,286v1h-2v-1l1-1Z" transform="translate(-72 -171)" style="fill:#e83e57"/><path d="M163,286c-1.5-.09-0.85-1.24-1-2h1v2Z" transform="translate(-72 -171)" style="fill:#e73852"/><path d="M163,286v-2h1v2h-1Z" transform="translate(-72 -171)" style="fill:#f3a1ad"/><path d="M161,284v-1h1v1h-1Z" transform="translate(-72 -171)" style="fill:#f07f8f"/><path d="M155,289l-1,1Z" transform="translate(-72 -171)" style="fill:#fcf0f2"/><path d="M160,288l-1,1Z" transform="translate(-72 -171)" style="fill:#fcf0f2"/><path d="M115,320v1l-1,1h-2c-0.15-.76.5-1.91-1-2l-1-2h4Z" transform="translate(-72 -171)" style="fill:#fcebee"/><path d="M114,322l1-1,1.6,2H114v-1Z" transform="translate(-72 -171)" style="fill:#e41937"/><path d="M115,320l-1-2h1l1,1.24Z" transform="translate(-72 -171)" style="fill:#ed6579"/><path d="M114,322v1h-2v-1h2Z" transform="translate(-72 -171)" style="fill:#e83f58"/><path d="M115,318h-2v-1h2v1Z" transform="translate(-72 -171)" style="fill:#eb4f66"/><path d="M115,317h-1l1-1v1Z" transform="translate(-72 -171)" style="fill:#fefefe"/><path d="M156,257h1c1.47,1.81.92,4,1,6a8.48,8.48,0,0,1-1-.76c-0.37-.38-0.68-0.82-1-1.24l-1-2Z" transform="translate(-72 -171)" style="fill:#fdf4f5"/><path d="M144,260h1a3.17,3.17,0,0,0,1.22,1c1.92,0.1,3.85,0,5.78,0v1l-1.5.68c-1.27-1.1-3.08-.62-4.82-0.69-0.72,0-1.68.28-1.68-1v-1Z" transform="translate(-72 -171)" style="fill:#ee7184"/><path d="M155,259l1,2h-3v-3Z" transform="translate(-72 -171)" style="fill:#e62542"/><path d="M153,261h2v1h-3v-1h1Z" transform="translate(-72 -171)" style="fill:#eb556b"/><path d="M152,321h1c0.09,1.5,1.24.85,2,1-0.47,1.93-2,.62-3,1h-4c-2-.08-4.19.47-6-1h-4l1-2v-1c3.81,0.33,7.63.63,11.43,1A4.55,4.55,0,0,1,152,321Z" transform="translate(-72 -171)" style="fill:#fbe8ea"/><path d="M136,317h3l0.87,0.39L139,319h-1c-0.09-1.5-1.24-.85-2-1v-1Z" transform="translate(-72 -171)" style="fill:#f7c0c8"/><path d="M158,304h-3c-3.71-.09-7.24,1.71-11,1h-9c-3.11.68-6-.9-9-1h-2c-0.09-1.5-1.24-.85-2-1-0.09-1.5-1.24-.85-2-1h-1v-2h3c0.47,1.93,2,.62,3,1h4c0.47,1.93,2,.62,3,1h4l7-7,1-1,1-1h1l2,3,1,1a2.46,2.46,0,0,0,2,3l1,1,2-2c0.76-.15,1.91.5,2-1h1l2-1h6a2.52,2.52,0,0,1,1,.7c0.42,1.07.7,2.19,1,3.3a5.92,5.92,0,0,1-3.83,1.05A2.9,2.9,0,0,0,162,303a17.82,17.82,0,0,0-2.82,0A3.36,3.36,0,0,0,158,304Zm-19.34-1.16c2.09,0.06,3.86.17,5.63,0.14s3.83,0.28,5.55-.22c-0.75-1.27-1.35-2.37-2-3.43s-1.49-2.23-2.26-3.39Z" transform="translate(-72 -171)" style="fill:#fdf7f8"/><path d="M126,304c3,0.1,5.89,1.68,9,1v2h-2l-3-1h-2c-0.09-1.5-1.24-.85-2-1v-1Z" transform="translate(-72 -171)" style="fill:#e7334e"/><path d="M135,307v-1c0.76,0.15,1.91-.5,2,1h-2Z" transform="translate(-72 -171)" style="fill:#e62945"/><path d="M132,228h1l-1,2-1,1v1c-1.72,1.23-1.87,3.41-3,5v1l-1,1v1l-1,1v2l-1,1v2h-2l-0.76-1L121,246h-1c-1.35,0-1-1-1-1.76,0-5.75,0-11.5,0-17.24l1-1h7C128.17,227.91,130,228.09,132,228Z" transform="translate(-72 -171)" style="fill:#fdf4f5"/><path d="M121,226h-1l-0.33-.83L119,226l-1,1v4h-1v-7h4v2Z" transform="translate(-72 -171)" style="fill:#f5acb7"/><path d="M132,228c-2,.09-3.83-0.09-5-2l1-1h2l1,1,1,1v1Z" transform="translate(-72 -171)" style="fill:#fceef0"/><path d="M121,226v-2h4v2h-4Z" transform="translate(-72 -171)" style="fill:#fceef0"/><path d="M127,226h-1l0.67-.83Z" transform="translate(-72 -171)" style="fill:#fceef0"/><path d="M129,321h-3v-1l1-1a2.46,2.46,0,0,0,3-2l2-1,2.66-1.37L135,317l-1,1-1,1-0.83.33L133,320l1,1v1h-3l-1-1h-1Z" transform="translate(-72 -171)" style="fill:#fadee2"/><path d="M134,321l-1-1,1-1,1-1h1c0.76,0.15,1.91-.5,2,1l1,1-1,2h-2C135.91,320.5,134.76,321.15,134,321Z" transform="translate(-72 -171)" style="fill:#fbe7ea"/><path d="M134,321c0.76,0.15,1.91-.5,2,1h-2v-1Z" transform="translate(-72 -171)" style="fill:#ed6276"/><path d="M130,321l1,1h-1v-1Z" transform="translate(-72 -171)" style="fill:#ed6276"/><path d="M141,322h1l-1,1v-1Z" transform="translate(-72 -171)" style="fill:#e41937"/><path d="M94,322h1l3-1c1.6,0,3.2.07,4.79,0a3.18,3.18,0,0,0,1.21-1l1-1a3.36,3.36,0,0,0,1.18,1,17.82,17.82,0,0,0,2.82,0h1l1,2h-3l-0.33-.83L107,322a17.82,17.82,0,0,0-2.82,0,3.36,3.36,0,0,0-1.18,1H96C95.24,322.85,94.09,323.5,94,322Z" transform="translate(-72 -171)" style="fill:#fceff1"/><path d="M104,320a3.18,3.18,0,0,1-1.21,1c-1.59.11-3.19,0-4.79,0v-1h6Z" transform="translate(-72 -171)" style="fill:#fad7dc"/><path d="M113,317v1h-4v-1h4Z" transform="translate(-72 -171)" style="fill:#f7c3ca"/><path d="M109,320a17.82,17.82,0,0,1-2.82,0,3.36,3.36,0,0,1-1.18-1h4v1Z" transform="translate(-72 -171)" style="fill:#fad7dc"/><path d="M109,320v-2h1l1,2h-2Z" transform="translate(-72 -171)" style="fill:#eb576d"/><path d="M96,323h5v1a37.31,37.31,0,0,1-3.8,0A3.23,3.23,0,0,1,96,323Z" transform="translate(-72 -171)" style="fill:#e84059"/><path d="M121,308l1-1v-1h3c0,3.34-.23,3.59-3,4Z" transform="translate(-72 -171)" style="fill:#fbe5e8"/><path d="M120,313v-3h1v4h-1v-1Z" transform="translate(-72 -171)" style="fill:#fceef0"/><path d="M122,303c0.76,0.15,1.91-.5,2,1l-1,1h-2v-1Z" transform="translate(-72 -171)" style="fill:#e7334d"/><path d="M121,304v1l-2,1v-2h2Z" transform="translate(-72 -171)" style="fill:#f8ced4"/><path d="M121,310h-1v-1l1-1,1,2h-1Z" transform="translate(-72 -171)" style="fill:#f5acb7"/><path d="M122,305h2v1h-2v-1Z" transform="translate(-72 -171)" style="fill:#f8ced4"/><path d="M122,306v1l-0.83-.67Z" transform="translate(-72 -171)" style="fill:#f6b8c1"/><path d="M120,309v1l-0.83-.67Z" transform="translate(-72 -171)" style="fill:#fceff1"/><path d="M158,263c-0.08-2,.47-4.19-1-6h2a37.31,37.31,0,0,0,0,3.8,3.23,3.23,0,0,0,1,1.2v1h-2Z" transform="translate(-72 -171)" style="fill:#f39ba7"/><path d="M159,257h-1a3.18,3.18,0,0,1,1.21-1c1.59-.11,3.19,0,4.79,0v1h-5Z" transform="translate(-72 -171)" style="fill:#fdf4f5"/><path d="M148,234l3-1,1,3h-2c-1.67.51-3.33,1-5,1.55a1.37,1.37,0,0,0,0,.45h-1c-0.61.11-1.23,0.18-1.82,0.34s-1.45.44-2.18,0.66l-3,2h-2v-1l7.36-4.47L141,235v-1h2c0.09,1.5,1.24.85,2,1,0.76-.15,1.91.5,2-1h1Z" transform="translate(-72 -171)" style="fill:#fcebed"/><path d="M150,236h2c1.93,0.47.62,2,1,3l-2-1-1-1v-1Z" transform="translate(-72 -171)" style="fill:#e62b47"/><path d="M124,321h-2v-7h1C123.2,316.35,122.35,318.85,124,321Z" transform="translate(-72 -171)" style="fill:#f6b4bd"/><path d="M122,314v2l-1,1h-1v-3h2Z" transform="translate(-72 -171)" style="fill:#f9d3d9"/><path d="M120,317h1v3l-1-2v-1Z" transform="translate(-72 -171)" style="fill:#f6b5be"/><path d="M120,317v1l-1-1h1Z" transform="translate(-72 -171)" style="fill:#ec6478"/><path d="M171,258l-1-3a2.38,2.38,0,0,0,1-.76c0-1.68,1.18-1.15,2-1.24h1l1.29-.74L178,253v2l-1,1c-1.84.24-.62,1.76-1.2,2.79l-2.78.48,1,1.72h-3v-1l1-.76Z" transform="translate(-72 -171)" style="fill:#fdf6f7"/><path d="M171,261h3c0.76,0.15,1.91-.5,2,1v5c-0.22.72-.48,1.44-0.66,2.18s-0.23,1.22-.34,1.82a7.35,7.35,0,0,1-1-.75c-0.69-.73-1.34-1.5-2-2.25-0.15-.76.5-1.91-1-2v-5Z" transform="translate(-72 -171)" style="fill:#fefafa"/><path d="M165,297h-4a3.36,3.36,0,0,1,1.18-1,17.82,17.82,0,0,1,2.82,0v1Z" transform="translate(-72 -171)" style="fill:#fcf0f2"/><path d="M159,297l-2,1v-2h2v1Z" transform="translate(-72 -171)" style="fill:#e7334e"/><path d="M159,296h-1c0.09-1.5,1.24-.85,2-1Z" transform="translate(-72 -171)" style="fill:#fcf0f2"/><path d="M133,311v1l-2.14,1.56L132,314v1c-0.76.15-1.91-.5-2,1h-1v-2l2-3h2Z" transform="translate(-72 -171)" style="fill:#f8c7cf"/><path d="M132,314l-1.14-.44L133,312v2h-1Z" transform="translate(-72 -171)" style="fill:#fcf0f2"/><path d="M130,316c0.09-1.5,1.24-.85,2-1v1l-2,1v-1Z" transform="translate(-72 -171)" style="fill:#ea4e64"/><path d="M134,318l1-1v1h-1Z" transform="translate(-72 -171)" style="fill:#e83b55"/><path d="M172,268c0.67,0.75,1.32,1.52,2,2.25a7.35,7.35,0,0,0,1,.75v1h-1A4.59,4.59,0,0,1,172,268Z" transform="translate(-72 -171)" style="fill:#f8cad1"/><path d="M174,272h1v3h-1v-3Z" transform="translate(-72 -171)" style="fill:#f39ba8"/><path d="M134,226h2v1l-2,1v-2Z" transform="translate(-72 -171)" style="fill:#e62e49"/><path d="M134,227v1h-1Z" transform="translate(-72 -171)" style="fill:#fceef0"/><path d="M132,227l-1-1Z" transform="translate(-72 -171)" style="fill:#fefbfc"/><path d="M149,229v1l0.86,1.49L148,233h-2l-1-1c-0.15-.76.5-1.91-1-2v-2l1-.76L144,226l-1-1c0.09-1.5,1.24-.85,2-1a7.35,7.35,0,0,1,1,.75c0.69,0.73,1.34,1.5,2,2.25C148.15,227.76,147.5,228.91,149,229Zm-3,1.33v0.33h1v-0.33h-1Z" transform="translate(-72 -171)" style="fill:#f8cbd2"/><path d="M146,233h2v1h-3v-1h1Z" transform="translate(-72 -171)" style="fill:#f5b0ba"/><path d="M120,321l-1,1Z" transform="translate(-72 -171)" style="fill:#e41937"/><path d="M177,277v1c-0.15.76,0.5,1.91-1,2v-1c-0.09-1.5-1.24-.85-2-1v-2l1-1h1C176.15,275.76,175.5,276.91,177,277Z" transform="translate(-72 -171)" style="fill:#f9d2d8"/><path d="M175,282h-1v-1h1v1Z" transform="translate(-72 -171)" style="fill:#fbdfe3"/><path d="M176,280l-1,1Z" transform="translate(-72 -171)" style="fill:#fbdfe3"/><path d="M110,320h1c1.5,0.09.85,1.24,1,2h-1Z" transform="translate(-72 -171)" style="fill:#fad7dc"/><path d="M103,323a3.36,3.36,0,0,1,1.18-1,17.82,17.82,0,0,1,2.82,0,3.36,3.36,0,0,1-1.18,1A17.82,17.82,0,0,1,103,323Z" transform="translate(-72 -171)" style="fill:#fad7dc"/><path d="M107,322l0.67-.83L108,322h-1Z" transform="translate(-72 -171)" style="fill:#fad7dc"/><path d="M125,322v-1h1Z" transform="translate(-72 -171)" style="fill:#e62844"/><path d="M130,321v1l-1-1h1Z" transform="translate(-72 -171)" style="fill:#e41937"/><path d="M178,253l-2.71-.74L174,253v-2h1l0.83-.33L175,250l1-2h1v1l0.24,1.71L180,250v2h-1Z" transform="translate(-72 -171)" style="fill:#f8ccd3"/><path d="M180,250l-2.76.71L177,249l1-1h2v2Z" transform="translate(-72 -171)" style="fill:#fdf5f7"/><path d="M178,248l-1,1v-1h1Z" transform="translate(-72 -171)" style="fill:#ef7788"/><path d="M165,292h1l-1,1v-1Z" transform="translate(-72 -171)" style="fill:#f08191"/><path d="M140,223h2v1l-1,1-1,1c-1.5.09-.85,1.24-1,2h-1l-1-1v-2l1-1C138.76,223.85,139.91,224.5,140,223Z" transform="translate(-72 -171)" style="fill:#f6bac3"/><path d="M142,224v-1h3v1c-0.76.15-1.91-.5-2,1h-1v-1Z" transform="translate(-72 -171)" style="fill:#fbe0e4"/><path d="M145,223h-1l1-1v1Z" transform="translate(-72 -171)" style="fill:#ee7586"/><path d="M125,301c-1-.38-2.53.93-3-1h2Z" transform="translate(-72 -171)" style="fill:#fdf6f7"/><path d="M119,297l1,1Z" transform="translate(-72 -171)" style="fill:#fbe3e7"/><path d="M124,300h-1v-1h1v1Z" transform="translate(-72 -171)" style="fill:#e9465e"/><path d="M164,286v-2h5v1Z" transform="translate(-72 -171)" style="fill:#fadade"/><path d="M176,248l-1,2-1,1h-1v-2l1-1c0.09-1.5,1.24-.85,2-1v1Z" transform="translate(-72 -171)" style="fill:#fdf1f3"/><path d="M174,248l-1,1v-1h1Z" transform="translate(-72 -171)" style="fill:#fceaed"/><path d="M120,314v2h-1v-2h1Z" transform="translate(-72 -171)" style="fill:#fefefe"/><path d="M120,314h-1l1-1v1Z" transform="translate(-72 -171)" style="fill:#f9d3d9"/><path d="M120,302c0.76,0.15,1.91-.5,2,1C121.24,302.85,120.09,303.5,120,302Z" transform="translate(-72 -171)" style="fill:#fbe3e7"/><path d="M165,292v1l-1-1h1Z" transform="translate(-72 -171)" style="fill:#fcf0f2"/><path d="M174,282v1c-0.76.15-1.91-.5-2,1h-3v-1l1-1v-1h2C172.09,282.5,173.24,281.85,174,282Z" transform="translate(-72 -171)" style="fill:#f9d1d7"/><path d="M133,307h2v2h-1l-1-1v-1Z" transform="translate(-72 -171)" style="fill:#fefefe"/><path d="M135,309v-1c1.5,0.09.85,1.24,1,2Z" transform="translate(-72 -171)" style="fill:#fefefe"/><path d="M178,253l1-1Z" transform="translate(-72 -171)" style="fill:#fdf8f9"/><path d="M133,311h-2c-1.5-.09-0.85-1.24-1-2l3-1,1,1v2h-1Z" transform="translate(-72 -171)" style="fill:#fdf8f9"/><path d="M124,321c-1.65-2.15-.8-4.65-1-7v-2.73a5.28,5.28,0,0,0,4-3.27l-1-1c0.09-1.5,1.24-.85,2-1h2v2a3.23,3.23,0,0,0-1,1.2,37.31,37.31,0,0,0,0,3.8l-1,1v2l-2,3v1l-1,1h-1Z" transform="translate(-72 -171)" style="fill:#fdf2f3"/><path d="M137,226v1h-1v-1h1Z" transform="translate(-72 -171)" style="fill:#fdf6f7"/><path d="M162,289h1v1Z" transform="translate(-72 -171)" style="fill:#fcf0f2"/><path d="M140.3,293l-4.72,5c-3.9-.07-7.92.54-11.8-1.72,1.54-2.62,3.53-4.34,6.77-4.29s6.19,0,9.29,0Z" transform="translate(-72 -171)" style="fill:#fdf4f5"/><path d="M143,295l-7,7v-1l6-6h1Z" transform="translate(-72 -171)" style="fill:#ee6f82"/><path d="M144,291l1.45-2,3.55,1c-0.41.33-.86,0.64-1.24,1a8.48,8.48,0,0,0-.76,1l-1.61-.87L145,292h-1v-1Z" transform="translate(-72 -171)" style="fill:#fcf0f2"/><path d="M132,302c-1-.38-2.53.93-3-1l1-1a17.82,17.82,0,0,1,2.82,0,3.36,3.36,0,0,1,1.18,1C133.24,301.15,132.09,300.5,132,302Z" transform="translate(-72 -171)" style="fill:#ef7688"/><path d="M130,300l-1,1h-4l-1-1v-1C126.05,299,127.83,300.7,130,300Z" transform="translate(-72 -171)" style="fill:#e9465e"/><path d="M139,287v-1h1v1l0.64,2.36-1.11,2L139,290l-1-1v-1Z" transform="translate(-72 -171)" style="fill:#f7bcc5"/><path d="M142,287h-1v-2h2l1,1C143.24,286.15,142.09,285.5,142,287Z" transform="translate(-72 -171)" style="fill:#f6b7c0"/><path d="M132,302c0.09-1.5,1.24-.85,2-1h2v1h-4Z" transform="translate(-72 -171)" style="fill:#e7304b"/><path d="M147,288h-3v-1C145,287.38,146.53,286.07,147,288Z" transform="translate(-72 -171)" style="fill:#fdf8f9"/><path d="M142,287c0.09-1.5,1.24-.85,2-1v1l-1.61.87Z" transform="translate(-72 -171)" style="fill:#e5223f"/><path d="M144,292h1v1l-1,1v-2Z" transform="translate(-72 -171)" style="fill:#ec5d72"/><path d="M144,293v1l-1,1v-1Z" transform="translate(-72 -171)" style="fill:#eb556b"/><path d="M143,294v1h-1Z" transform="translate(-72 -171)" style="fill:#eb546a"/><path d="M141,286v1h-1v-1h1Z" transform="translate(-72 -171)" style="fill:#f295a3"/><path d="M138,289l1,1Z" transform="translate(-72 -171)" style="fill:#f8c9d0"/><path d="M141,273.24c-1.15,2.15-2.74,1.74-4.36,1.73-1.76-1-2.6-3.83-5.35-3.06l1-3.64Z" transform="translate(-72 -171)" style="fill:#fdf5f6"/><path d="M158,263h2v1l-2.21,1.8L159,268v1c-1.86.67-.85,1.88-0.58,3.31,1.47-1,3.44.83,4.58-1.31h1l0.87,1.61L164,273l-1,1h-1l-2-1h-3v-3l-1-1v-1c1.5-.09.85-1.24,1-2v-2Z" transform="translate(-72 -171)" style="fill:#fae0e4"/><path d="M137,278c1.17-1.91,3-2.09,5-2v1l-1.9.34,0.07,0.66H144a3.64,3.64,0,0,1-1.28,1,36.62,36.62,0,0,1-3.72.22V281h-1l-1-1v-2Z" transform="translate(-72 -171)" style="fill:#f6b6c0"/><path d="M149,277h-5c-0.09-1.5-1.24-.85-2-1a2.25,2.25,0,0,1,0-.46c2.67-.49,5.17-1.88,8-1.54v1C148.5,275.09,149.15,276.24,149,277Z" transform="translate(-72 -171)" style="fill:#f9cfd5"/><path d="M157,273h3v3l-1,1-1-1,0.86-1.89c-1.17.1-2.51-1-2.86,0.89h-2A2.46,2.46,0,0,1,157,273Z" transform="translate(-72 -171)" style="fill:#f8c4cb"/><path d="M149,272l-2,1.08L145,272v-1h4v1Z" transform="translate(-72 -171)" style="fill:#f08090"/><path d="M156,268l-3,2v-3h2Z" transform="translate(-72 -171)" style="fill:#f4a1ad"/><path d="M144,272a4.59,4.59,0,0,1-4-2h3l1,1v1Z" transform="translate(-72 -171)" style="fill:#ef7889"/><path d="M137,278v1h-2v-2Z" transform="translate(-72 -171)" style="fill:#f292a0"/><path d="M137,269l-2-2h2v2Z" transform="translate(-72 -171)" style="fill:#ee6e80"/><path d="M132,265h2v1C133.24,265.85,132.09,266.5,132,265Z" transform="translate(-72 -171)" style="fill:#e41937"/><path d="M150,275v-1c0.76,0.15,1.91-.5,2,1h-2Z" transform="translate(-72 -171)" style="fill:#f293a1"/><path d="M140,270c-0.76-.15-1.91.5-2-1h1Z" transform="translate(-72 -171)" style="fill:#ef798a"/><path d="M149,272v-1h2v1h-2Z" transform="translate(-72 -171)" style="fill:#ed6478"/><path d="M153,270l-1,1h-1v-1h2Z" transform="translate(-72 -171)" style="fill:#ee7586"/><path d="M153,275h1v2h-1v-2Z" transform="translate(-72 -171)" style="fill:#f7bec7"/><path d="M151,271h1l-1,1v-1Z" transform="translate(-72 -171)" style="fill:#f9cfd5"/><path d="M144,272v-1h1v1h-1Z" transform="translate(-72 -171)" style="fill:#ee6c7f"/><path d="M156,269l1,1Z" transform="translate(-72 -171)" style="fill:#fce9eb"/><path d="M134,277v-1l1,1h-1Z" transform="translate(-72 -171)" style="fill:#f6b5be"/><path d="M153,275v1l-1-1h1Z" transform="translate(-72 -171)" style="fill:#fefefe"/><path d="M134,276l-1-1Z" transform="translate(-72 -171)" style="fill:#f6b5be"/><path d="M135,267l-1-1h1v1Z" transform="translate(-72 -171)" style="fill:#e41937"/><path d="M137,269v-1h1v1h-1Z" transform="translate(-72 -171)" style="fill:#ed677b"/><path d="M114,241l0.54-1.33c0.79,2.67.29,4.92-.2,7.23L114,245v-4Z" transform="translate(-72 -171)" style="fill:#f5b1bb"/><path d="M114,241v3h-1v-3h1Z" transform="translate(-72 -171)" style="fill:#fadbe0"/><path d="M109,231c0.15-.76-0.5-1.91,1-2h1Z" transform="translate(-72 -171)" style="fill:#ee7285"/><path d="M113,241v2l-1-1.24Z" transform="translate(-72 -171)" style="fill:#f398a5"/><path d="M112.17,234.82v-1.66l0.49-.07,0.36,1.67Z" transform="translate(-72 -171)" style="fill:#f399a7"/><path d="M111,229h-1l1-1v1Z" transform="translate(-72 -171)" style="fill:#e41937"/><path d="M112,239.33h1v0.33h-1v-0.33Z" transform="translate(-72 -171)" style="fill:#e41937"/><path d="M112.67,236v1h-0.33v-1h0.33Z" transform="translate(-72 -171)" style="fill:#e41937"/><path d="M113,244h1v1Z" transform="translate(-72 -171)" style="fill:#ee6f81"/><path d="M137,257v1h-1l-4-1.28,1-1.72c0.28-3.39-1.76-6.56-1-10v-2h3v2c0,2-.13,4,0,6a46.88,46.88,0,0,0,1,5.05Z" transform="translate(-72 -171)" style="fill:#e7324d"/><path d="M132,245c-0.76,3.44,1.28,6.61,1,10h-3l-2-2h-1v-5h1l3-3h1Z" transform="translate(-72 -171)" style="fill:#fdf4f5"/><path d="M153,267v1h-1c-1.5.09-.85,1.24-1,2h-1v-1a3.23,3.23,0,0,0-1.2-1,37.31,37.31,0,0,0-3.8,0l-1-1v-1l4.36,0.81L151,266C151.09,267.5,152.24,266.85,153,267Z" transform="translate(-72 -171)" style="fill:#f9d5da"/><path d="M158,263l-1,1-1,1h-2l1-3v-1h1c0.33,0.41.64,0.86,1,1.24A8.48,8.48,0,0,0,158,263Z" transform="translate(-72 -171)" style="fill:#fce9eb"/><path d="M144,266v1h-3c-0.09-1.5-1.24-.85-2-1v-1Z" transform="translate(-72 -171)" style="fill:#f8c8cf"/><path d="M138,258c1.1,0.33,2.23.61,3.3,1a2.52,2.52,0,0,1,.7,1v1c-1.1-.33-2.23-0.61-3.3-1a2.52,2.52,0,0,1-.7-1v-1Z" transform="translate(-72 -171)" style="fill:#f07c8d"/><path d="M154,265h1v1l-1,1h-1c-0.76-.15-1.91.5-2-1Z" transform="translate(-72 -171)" style="fill:#f9cfd5"/><path d="M142,261v-1h2v1h-2Z" transform="translate(-72 -171)" style="fill:#ed697c"/><path d="M137,264c0.76,0.15,1.91-.5,2,1h-2v-1Z" transform="translate(-72 -171)" style="fill:#f8cbd2"/><path d="M138,258v1c-0.76-.15-1.91.5-2-1h2Z" transform="translate(-72 -171)" style="fill:#ef7a8b"/><path d="M130,255h1v1Z" transform="translate(-72 -171)" style="fill:#e41937"/><path d="M127,249v3h-1c-0.22-.72-0.48-1.44-0.66-2.18s-0.23-1.22-.34-1.82l-1-1h-4v-1h5v-2l1-1v-2l1-1v-1l1-1v-1l2,1,1,1,1,2-2,2c-0.76.15-1.91-.5-2,1l-0.83.33L128,245v1h-2v2Z" transform="translate(-72 -171)" style="fill:#f5afb9"/><path d="M117,249v-8h1c0.13,2-.29,4.06.28,6H120A2.46,2.46,0,0,1,117,249Z" transform="translate(-72 -171)" style="fill:#f7bcc5"/><path d="M126,252h1v2h-1v-2Z" transform="translate(-72 -171)" style="fill:#f294a2"/><path d="M123,247h1v1Z" transform="translate(-72 -171)" style="fill:#fceef0"/><path d="M124,248v-1l1,1h-1Z" transform="translate(-72 -171)" style="fill:#f4a7b2"/><path d="M101,263l1,1a2.37,2.37,0,0,0,.78,1c2.14,0.08,4.29.08,6.44,0a2.37,2.37,0,0,0,.78-1l1-1,1.49-.86L114,264l1,1c0.09,1.5,1.24.85,2,1,0.09,1.5,1.24.85,2,1h2v3c-1.93.47-.62,2-1,3-1.93.47-.62,2-1,3v4a3.23,3.23,0,0,0-1,1.2,37.31,37.31,0,0,0,0,3.8,13.18,13.18,0,0,1-2.13-.67A14.07,14.07,0,0,1,114,283l-1-1-5-5.19V273l1-1h1l1-1h1l2.74-2H112v-1c-1-1.37-2-1.37-3,0l-1,1c-0.24,1.37-1,1.22-1.89.62-0.35-.23-0.74-0.42-1.11-0.62l-1,1-1,1h-1l-4-2.45A2.32,2.32,0,0,1,97,266v-1l1-1,1.51-1.86Zm12,16.33v0.33h1v-0.33h-1Z" transform="translate(-72 -171)" style="fill:#fcfcfc"/><path d="M95,290v-1l-1-2V277l0.47-2.53L99,278l2,1c0.09,1.5,1.24.85,2,1l1,3-1,1h-1c-1.26-.44-2.38-1.82-3.9-0.6-0.79,2.62,2.57,1.89,2.9,3.6l-1,1c-1.39.24-1.16,1-.51,2.1L100,289c3.16-2.55,5.71.14,8.14,1.07L110,289a2.46,2.46,0,0,1,3,2l-1,1c-1,.38-2.53-0.93-3,1l-1,1h-1l-3-1h-1a3.36,3.36,0,0,0-1.18-1A17.82,17.82,0,0,0,99,292c-0.47-1.93-2-.62-3-1Z" transform="translate(-72 -171)" style="fill:#faf9f9"/><path d="M101,279l-2-1c1.11-1.94,0-5,3-6h1v1l-1,.76,1,1.24c0.35,1.83,1.86,1.16,2.57.81,1.39-.67,1.91-2,1.06-3.81H103v-1l1-1,1-1c0.37,0.21.76,0.39,1.11,0.62,0.9,0.6,1.64.75,1.89-.62h1c0.09,1.5,1.24.85,2,1h1v1h-1l-1,1h-1l-1,1v3.81l5,5.19,1,1c-0.94,2-1.73,4.09-4,5l-1-1,2.17-1.57L108,283v-1l0.83-.33L108,281c-0.09-1.5-1.24-.85-2-1l-1-1h-2l-0.76-1Z" transform="translate(-72 -171)" style="fill:#e53049"/><path d="M109,287l1,1v1l-1.86,1.07c-2.43-.93-5-3.62-8.14-1.07v-1l1-1c0.76-.15,1.91.5,2-1h4Z" transform="translate(-72 -171)" style="fill:#e62944"/><path d="M140,286h-1a37.31,37.31,0,0,1-3.8,0,3.23,3.23,0,0,1-1.2-1,37.31,37.31,0,0,0,3.8,0,3.23,3.23,0,0,0,1.2-1h2v1Z" transform="translate(-72 -171)" style="fill:#fdf5f6"/><path d="M139,287l-1,1h-3.84C135.68,286.69,137.38,287.15,139,287Z" transform="translate(-72 -171)" style="fill:#fcf0f2"/><path d="M132,286c0.15-.76-0.5-1.91,1-2C132.85,284.76,133.5,285.91,132,286Z" transform="translate(-72 -171)" style="fill:#e62c47"/><path d="M130,279l1.24-1,0.76,1-1,3h-1c-1.37-.24-1.22-1-0.62-1.89C129.61,279.76,129.79,279.37,130,279Z" transform="translate(-72 -171)" style="fill:#e62c48"/><path d="M130,282h8v1c-2.26,0-4.52.05-6.77,0A3.16,3.16,0,0,1,130,282Z" transform="translate(-72 -171)" style="fill:#fefdfd"/><path d="M138,283v-2h1l1,1c-1.5.09-.85,1.24-1,2Z" transform="translate(-72 -171)" style="fill:#f7bdc6"/><path d="M137,264v1h-2C135.09,263.5,136.24,264.15,137,264Z" transform="translate(-72 -171)" style="fill:#fceef0"/><path d="M131.09,260.9l0.82,0.7-0.32.32-0.7-.82Z" transform="translate(-72 -171)" style="fill:#fefefe"/><path d="M135,266h-1v-1h1v1Z" transform="translate(-72 -171)" style="fill:#fce8eb"/><path d="M133,263l1-1Z" transform="translate(-72 -171)" style="fill:#fdf4f5"/><path d="M133.1,263.09l-0.7.82-0.32-.32,0.82-.7Z" transform="translate(-72 -171)" style="fill:#fdf4f5"/><path d="M137,282h-6l1-3,1.61,0.87L134,279h2v1l-0.83.33L136,281h1v1Z" transform="translate(-72 -171)" style="fill:#f8c8cf"/><path d="M135,279h-1v-2h1v2Z" transform="translate(-72 -171)" style="fill:#fdf6f7"/><path d="M118,241h-1V231h1v10Z" transform="translate(-72 -171)" style="fill:#f9d3d8"/><path d="M101,257v1l-1,3H97v-1l-0.85-1.5L97,257l3-1Z" transform="translate(-72 -171)" style="fill:#f2f2f2"/><path d="M102,272c-3,1-1.89,4.06-3,6l-4.53-3.53L94,277H93v-2c-0.38-1,.93-2.53-1-3-0.15-.76.5-1.91-1-2-0.15-.76.5-1.91-1-2v-1h1a37.31,37.31,0,0,0,3.8,0,3.23,3.23,0,0,0,1.2-1h1a2.32,2.32,0,0,0,1,2.55l4,2.45v1Z" transform="translate(-72 -171)" style="fill:#d9d9da"/><path d="M127,267l-1,1-3-1-1-1v-2l1-1h3A5.35,5.35,0,0,1,127,267Z" transform="translate(-72 -171)" style="fill:#eae9e9"/><path d="M128,253l2,2h-2v-2Z" transform="translate(-72 -171)" style="fill:#f18e9c"/><path d="M128,253v1h-1v-1h1Z" transform="translate(-72 -171)" style="fill:#ee7082"/><path d="M117,227v2l-1-1.24Z" transform="translate(-72 -171)" style="fill:#fceff1"/><path d="M173,251h1v1h-1v-1Z" transform="translate(-72 -171)" style="fill:#fceaed"/><path d="M173,252h1v1h-1v-1Z" transform="translate(-72 -171)" style="fill:#f5b2bc"/><path d="M159,257h6c0.47,1.93,2,.62,3,1h2v2c-0.11.61-.18,1.23-0.34,1.82s-0.44,1.45-.66,2.18a3.74,3.74,0,0,1-.69,1c-1.79-.6-3.55-1.29-5.31-2l-3-1a3.23,3.23,0,0,1-1-1.2A37.31,37.31,0,0,1,159,257Z" transform="translate(-72 -171)" style="fill:#fdf8f9"/><path d="M170,260v-2h1l1,1.24-1,.76h-1Z" transform="translate(-72 -171)" style="fill:#f39ba8"/><path d="M165,257v-1c1,0.38,2.53-.93,3,1h-3Z" transform="translate(-72 -171)" style="fill:#fbe1e5"/><path d="M165,257h3v1C167,257.62,165.47,258.93,165,257Z" transform="translate(-72 -171)" style="fill:#f39fac"/><path d="M142.49,256.75c-2.85.49-4.31,0.14-4.53-2.34-0.08-.88-0.87-1.7-0.91-2.56-0.13-2.46,0-4.93,0-7.61l4.23-2.53,1.82,3.23a35.9,35.9,0,0,0-1.65,3.22c-0.29.71-.66,2-0.34,2.24C143.08,252.23,141.23,254.54,142.49,256.75Z" transform="translate(-72 -171)" style="fill:#fdf4f5"/><path d="M149,244.05c-0.42,1.87-2,.57-3,0.95a2.46,2.46,0,0,1-2-3l3-2h3a17.82,17.82,0,0,1,0,2.82,3.62,3.62,0,0,1-1,1.24l0.15-.14-0.7-.82-0.32.32A5.61,5.61,0,0,0,149,244.05Z" transform="translate(-72 -171)" style="fill:#e83852"/><path d="M147,240l-3,2c-0.76,0-1.22-.22-0.5-1s0.26-1-.5-1l1-1h1a5.35,5.35,0,0,1,4-1,8.48,8.48,0,0,1-.76,1C147.86,239.36,147.41,239.67,147,240Z" transform="translate(-72 -171)" style="fill:#fdf5f6"/><path d="M144,239l-1,1h-3v-1c0.72-.22,1.44-0.48,2.18-0.66s1.22-.23,1.82-0.34v1Z" transform="translate(-72 -171)" style="fill:#ef7586"/><path d="M140,239v1l-3,2v-1Z" transform="translate(-72 -171)" style="fill:#f18b9a"/><path d="M135,243h-1v-1h2Z" transform="translate(-72 -171)" style="fill:#ec6075"/><path d="M137,257l-1-1Z" transform="translate(-72 -171)" style="fill:#ef7a8b"/><path d="M137,241v1h-1v-1h1Z" transform="translate(-72 -171)" style="fill:#ed687c"/><path d="M147,240c0.41-.33.86-0.64,1.24-1a8.48,8.48,0,0,0,.76-1l1-1,1,1c-1.5.09-.85,1.24-1,2h-3Z" transform="translate(-72 -171)" style="fill:#f7bcc4"/><path d="M148,296l-2-3,1-1,2,3Z" transform="translate(-72 -171)" style="fill:#fcf0f2"/><path d="M151,300a2.46,2.46,0,0,1-2-3h1l2,2v1h-1Z" transform="translate(-72 -171)" style="fill:#f08494"/><path d="M152,300v-1l1-1h1v1l-2,2v-1Z" transform="translate(-72 -171)" style="fill:#ee6f82"/><path d="M154,299v-1l1-1h1v1C155.91,299.5,154.76,298.85,154,299Z" transform="translate(-72 -171)" style="fill:#e7314c"/><path d="M150,297h-1l-1-1,1-1Z" transform="translate(-72 -171)" style="fill:#f3a2ae"/><path d="M155,297l-1,1Z" transform="translate(-72 -171)" style="fill:#fcf0f2"/><path d="M157,296v1h-1Z" transform="translate(-72 -171)" style="fill:#fcf0f2"/><path d="M153,298l-1,1Z" transform="translate(-72 -171)" style="fill:#fcf0f2"/><path d="M161,288l1,1Z" transform="translate(-72 -171)" style="fill:#fcf0f2"/><path d="M140,282l-1-1v-1.83a36.62,36.62,0,0,0,3.72-.22,3.64,3.64,0,0,0,1.28-1v-1h1c0.09,1.5,1.24.85,2,1-0.88,1.61-1.8,3.15-4,3l-1-1c-1.5.09-.85,1.24-1,2v1h-1v-1Z" transform="translate(-72 -171)" style="fill:#fbe0e4"/><path d="M144,286l-1-1,1-1h3c1.5,0.09.85,1.24,1,2h-4Z" transform="translate(-72 -171)" style="fill:#fcedef"/><path d="M153,281h-1v-3c0.76-.15,1.91.5,2-1h2c-0.61,1.62-2.63,2.19-2,4h-1Z" transform="translate(-72 -171)" style="fill:#fbe8eb"/><path d="M144,286h4v2h-1c-0.47-1.93-2-.62-3-1v-1Z" transform="translate(-72 -171)" style="fill:#f9d5db"/><path d="M147,282h4.85c-1.52,1.31-3.23.85-4.85,1v-1Z" transform="translate(-72 -171)" style="fill:#fefafb"/><path d="M152,278v1c-0.76.15-1.91-.5-2,1l-1-1v-2h1C150.09,278.5,151.24,277.85,152,278Z" transform="translate(-72 -171)" style="fill:#f9d2d8"/><path d="M149,279l1,1v1h-3.74Z" transform="translate(-72 -171)" style="fill:#fce8eb"/><path d="M147,282v2h-2v-1Z" transform="translate(-72 -171)" style="fill:#ea5268"/><path d="M145,283v1h-1l-1-1v-1C143.76,282.15,144.91,281.5,145,283Z" transform="translate(-72 -171)" style="fill:#fbe0e4"/><path d="M150,280c0.09-1.5,1.24-.85,2-1v2h-1Z" transform="translate(-72 -171)" style="fill:#ed6c7f"/><path d="M147,278c-0.76-.15-1.91.5-2-1h3Z" transform="translate(-72 -171)" style="fill:#fdf2f3"/><path d="M142,280l1,1v1h-1v-2Z" transform="translate(-72 -171)" style="fill:#ea5168"/><path d="M149.22,286l-0.16-1.92,0.65-.08,0.38,2Z" transform="translate(-72 -171)" style="fill:#e41937"/><path d="M150,280l1,1h-1v-1Z" transform="translate(-72 -171)" style="fill:#e9435c"/><path d="M153,281h1v1h-1v-1Z" transform="translate(-72 -171)" style="fill:#f18998"/><path d="M161,283h-4v-1a17.82,17.82,0,0,1,2.82,0A3.36,3.36,0,0,1,161,283Z" transform="translate(-72 -171)" style="fill:#fefafb"/><path d="M157,283h1v1l-0.57,1.44Z" transform="translate(-72 -171)" style="fill:#e62f4a"/><path d="M157,282h-2v-1h2v1Z" transform="translate(-72 -171)" style="fill:#e83a54"/><path d="M154,285l-1,1Z" transform="translate(-72 -171)" style="fill:#f9d1d7"/><path d="M155,282l-0.67.83L154,282h1Z" transform="translate(-72 -171)" style="fill:#fefdfd"/><path d="M162,284v-3h1l1,1-1,1v1h-1Z" transform="translate(-72 -171)" style="fill:#f5b0ba"/><path d="M163,284v-1l1-1-1-1-1-1c-0.09-1.5-1.24-.85-2-1a2.93,2.93,0,0,1,.68-0.95c1.12,0.24,2.22.62,3.32,0.95l1,1,1,1v1c-1.5.09-.85,1.24-1,2h-2Z" transform="translate(-72 -171)" style="fill:#f8cbd1"/><path d="M162,281v2h-1a3.36,3.36,0,0,0-1.18-1,17.82,17.82,0,0,0-2.82,0v-1c1-.38,2.53.93,3-1h2v1Z" transform="translate(-72 -171)" style="fill:#fad9de"/><path d="M139,320l-1-1h1v1Z" transform="translate(-72 -171)" style="fill:#ea4960"/><path d="M138.66,302.84l6.9-6.9c0.78,1.16,1.55,2.26,2.26,3.39s1.27,2.16,2,3.43c-1.72.49-3.66,0.18-5.55,0.22S140.74,302.9,138.66,302.84Z" transform="translate(-72 -171)" style="fill:#fdf4f5"/><path d="M124,305h-1l1-1h2v1h-2Z" transform="translate(-72 -171)" style="fill:#e62f4a"/><path d="M147,292l-1,1h-1v-1l0.39-.87Z" transform="translate(-72 -171)" style="fill:#ec5d72"/><path d="M156,297h1v1h-1v-1Z" transform="translate(-72 -171)" style="fill:#e62a46"/><path d="M152,300v1l-1-1h1Z" transform="translate(-72 -171)" style="fill:#e9445c"/><path d="M125,305h1c0.76,0.15,1.91-.5,2,1-0.76.15-1.91-.5-2,1l1,1a5.28,5.28,0,0,1-4,3.27V314h-1v-4c2.77-.41,3-0.66,3-4v-1Z" transform="translate(-72 -171)" style="fill:#f4a6b2"/><path d="M130,308v-2l3,1v1l-3,1v-1Z" transform="translate(-72 -171)" style="fill:#f5b0ba"/><path d="M118,241V227h1c0,5.75,0,11.5,0,17.24,0,0.72-.36,1.75,1,1.76v1h-1.72C117.71,245.06,118.13,243,118,241Z" transform="translate(-72 -171)" style="fill:#fceef0"/><path d="M130,238l-2-1c1.13-1.59,1.28-3.77,3-5l1,1c-0.22.72-.48,1.44-0.66,2.18s-0.23,1.22-.34,1.82Z" transform="translate(-72 -171)" style="fill:#fceef0"/><path d="M133,228h1v2l-2,1v-1Z" transform="translate(-72 -171)" style="fill:#f39ca9"/><path d="M123,246h-2l1.24-1Z" transform="translate(-72 -171)" style="fill:#fceef0"/><path d="M132,233l-1-1v-1h1v2Z" transform="translate(-72 -171)" style="fill:#f4a3af"/><path d="M119,226l0.67-.83L120,226l-1,1v-1Z" transform="translate(-72 -171)" style="fill:#fceef0"/><path d="M132,231h-1l1-1v1Z" transform="translate(-72 -171)" style="fill:#fceef0"/><path d="M128,238l-1,1Z" transform="translate(-72 -171)" style="fill:#fceef0"/><path d="M127,240l-1,1Z" transform="translate(-72 -171)" style="fill:#fceef0"/><path d="M126,243l-1,1Z" transform="translate(-72 -171)" style="fill:#fceef0"/><path d="M119,226v1h-1Z" transform="translate(-72 -171)" style="fill:#ef7c8c"/><path d="M126,319l2-3h2v1a2.46,2.46,0,0,1-3,2h-1Z" transform="translate(-72 -171)" style="fill:#f398a6"/><path d="M134,319l-1,1-0.83-.67L133,319h1Z" transform="translate(-72 -171)" style="fill:#f4a7b2"/><path d="M134,319h-1l1-1h1Z" transform="translate(-72 -171)" style="fill:#ec6277"/><path d="M126,319h1l-1,1v-1Z" transform="translate(-72 -171)" style="fill:#ef7687"/><path d="M125,321l1-1v1h-1Z" transform="translate(-72 -171)" style="fill:#ef7687"/><path d="M125,305v1h-1v-1h1Z" transform="translate(-72 -171)" style="fill:#e7334d"/><path d="M122,310v4h-1v-4h1Z" transform="translate(-72 -171)" style="fill:#f6b4bd"/><path d="M160,262l3,1-1,1h-2v-2Z" transform="translate(-72 -171)" style="fill:#f39ba8"/><path d="M134,230v-2l2-1h1l1,1c0.15,0.76-.5,1.91,1,2v2l1,1,1,1v1l-2,1c-0.15-.76.5-1.91-1-2l-1-1-1-3-0.33-.83L135,230h-1Z" transform="translate(-72 -171)" style="fill:#f8c5cc"/><path d="M139,236l2-1,1.36,0.53L135,240h-2v-1l1-1h1l1-1h1l1-1h1Z" transform="translate(-72 -171)" style="fill:#f7bfc7"/><path d="M150,237l-1,1a5.35,5.35,0,0,0-4,1v-1a1.37,1.37,0,0,1,0-.45c1.66-.53,3.33-1,5-1.55v1Z" transform="translate(-72 -171)" style="fill:#ee6f81"/><path d="M139,232v-2l2,1,1,1v2h-1l-1-1Z" transform="translate(-72 -171)" style="fill:#fcedef"/><path d="M142,234v-2h1l0.33,0.83L144,232h1v2h-3Z" transform="translate(-72 -171)" style="fill:#f8cad1"/><path d="M143,234h2v1C144.24,234.85,143.09,235.5,143,234Z" transform="translate(-72 -171)" style="fill:#f5b0ba"/><path d="M145,235v-1h2C146.91,235.5,145.76,234.85,145,235Z" transform="translate(-72 -171)" style="fill:#f8cbd2"/><path d="M133,240h2v1h-2v-1Z" transform="translate(-72 -171)" style="fill:#fadde2"/><path d="M145,238v1h-1v-1h1Z" transform="translate(-72 -171)" style="fill:#ee6d80"/><path d="M136,241v1h-1v-1h1Z" transform="translate(-72 -171)" style="fill:#fadde2"/><path d="M170,260h1v6h-1c-0.15-.76.5-1.91-1-2,0.22-.72.48-1.44,0.66-2.18S169.89,260.61,170,260Z" transform="translate(-72 -171)" style="fill:#f6bac3"/><path d="M171,266c1.5,0.09.85,1.24,1,2C170.5,267.91,171.15,266.76,171,266Z" transform="translate(-72 -171)" style="fill:#f7c3cb"/><path d="M130,308v1c0.15,0.76-.5,1.91,1,2l-2,3v-1a37.31,37.31,0,0,1,0-3.8A3.23,3.23,0,0,1,130,308Z" transform="translate(-72 -171)" style="fill:#f294a2"/><path d="M129,316h-1v-2h1v2Z" transform="translate(-72 -171)" style="fill:#f18c9b"/><path d="M171,266c0.15,0.76-.5,1.91,1,2a4.59,4.59,0,0,0,2,4v3h-2v-1a8.48,8.48,0,0,0-.76-1c-0.38-.37-0.82-0.68-1.24-1v-6h1Z" transform="translate(-72 -171)" style="fill:#fce9ec"/><path d="M172,275h3l-1,1h-2v-1Z" transform="translate(-72 -171)" style="fill:#fefefe"/><path d="M144,228v2l-2-1v-2Z" transform="translate(-72 -171)" style="fill:#fdf3f4"/><path d="M145,232h-1v-2C145.5,230.09,144.85,231.24,145,232Z" transform="translate(-72 -171)" style="fill:#fcf0f2"/><path d="M144,226l1,1.24-1,.76v-2Z" transform="translate(-72 -171)" style="fill:#fcebee"/><path d="M145,233v-1l1,1h-1Z" transform="translate(-72 -171)" style="fill:#fcf0f2"/><path d="M146,230.33h1v0.33h-1v-0.33Z" transform="translate(-72 -171)" style="fill:#fce8eb"/><path d="M143,225l1,1Z" transform="translate(-72 -171)" style="fill:#fdf6f7"/><path d="M176,280l-1,1h-1v-2h2v1Z" transform="translate(-72 -171)" style="fill:#f08696"/><path d="M176,279h-2v-1C174.76,278.15,175.91,277.5,176,279Z" transform="translate(-72 -171)" style="fill:#fcecee"/><path d="M172,276h2v1h-2v-1Z" transform="translate(-72 -171)" style="fill:#f7bfc7"/><path d="M173,277h1v1h-1v-1Z" transform="translate(-72 -171)" style="fill:#e41d3a"/><path d="M173,277v2c0.15,0.76-.5,1.91,1,2v1c-0.76-.15-1.91.5-2-1l-0.74-1.29L172,277h1Z" transform="translate(-72 -171)" style="fill:#f39daa"/><path d="M174,251l1-1v1h-1Z" transform="translate(-72 -171)" style="fill:#fceaed"/><path d="M175,251v-1l0.83,0.67Z" transform="translate(-72 -171)" style="fill:#f4a3af"/><path d="M140,226l1-1h1v2Z" transform="translate(-72 -171)" style="fill:#fdf5f7"/><path d="M139,230c-1.5-.09-0.85-1.24-1-2h1v2Z" transform="translate(-72 -171)" style="fill:#fcedef"/><path d="M139,228c0.15-.76-0.5-1.91,1-2v2h-1Z" transform="translate(-72 -171)" style="fill:#fcedef"/><path d="M142,225h-1l1-1v1Z" transform="translate(-72 -171)" style="fill:#f39da9"/><path d="M138,228l-1-1Z" transform="translate(-72 -171)" style="fill:#fdf6f7"/><path d="M142,227v-2h1l1,1v2Z" transform="translate(-72 -171)" style="fill:#f8cbd2"/><path d="M166,282v-1h4v1l-2.9.29,0.07,0.71H169v1h-3v-2Z" transform="translate(-72 -171)" style="fill:#f5b2bc"/><path d="M166,282v2h-1C165.15,283.24,164.5,282.09,166,282Z" transform="translate(-72 -171)" style="fill:#ea4c63"/><path d="M170,281h-2v-1l1-1,1.6-2H168v-1h4v1l-0.74,2.71L172,281h-2Z" transform="translate(-72 -171)" style="fill:#fbe4e8"/><path d="M169,283h-1.83l-0.07-.71L170,282Z" transform="translate(-72 -171)" style="fill:#fefafb"/><path d="M134,309l-1-1Z" transform="translate(-72 -171)" style="fill:#f5b0ba"/><path d="M127,308l-1-1Z" transform="translate(-72 -171)" style="fill:#fbe5e8"/><path d="M129,314h-1l1-1v1Z" transform="translate(-72 -171)" style="fill:#f8c7cf"/><path d="M143,283l1,1-1,1h-1v-2h1Z" transform="translate(-72 -171)" style="fill:#f5aeb8"/><path d="M142,283v2h-1v-2h1Z" transform="translate(-72 -171)" style="fill:#fbe2e6"/><path d="M140,286l1-1v1h-1Z" transform="translate(-72 -171)" style="fill:#fbe2e6"/><path d="M160,264h2c1.21,1.75,3.67,1.05,5,2.58V272l-3-1c-0.09-1.5-1.24-.85-2-1-1-.38-2.53.93-3-1l0.83-.33L159,268l-1.21-2.2Z" transform="translate(-72 -171)" style="fill:#fce9eb"/><path d="M160,280c-0.47,1.93-2,.62-3,1h-2l3-4h1l1-1h2c1.5-.09.85-1.24,1-2l1-1v1l1,1,1,1v2l-2,1c-1.1-.33-2.2-0.71-3.32-0.95a2.93,2.93,0,0,0-.68.95v1Z" transform="translate(-72 -171)" style="fill:#fadee2"/><path d="M164,274v-1l0.87-.39L164,271l3,1c0.09,1.5,1.24.85,2,1v3h-2l1.19-2.35L165,275Z" transform="translate(-72 -171)" style="fill:#f8cad0"/><path d="M159,269c0.47,1.93,2,.62,3,1l1,1c-1.14,2.14-3.11.27-4.58,1.31C158.15,270.88,157.14,269.67,159,269Z" transform="translate(-72 -171)" style="fill:#fdf9fa"/><path d="M162,276h-2v-3l2,1v2Z" transform="translate(-72 -171)" style="fill:#ef7587"/><path d="M155,266v-1h1l1,1c-0.15.76,0.5,1.91-1,2l-1-1v-1Z" transform="translate(-72 -171)" style="fill:#ec5a70"/><path d="M162,276v-2h1C162.85,274.76,163.5,275.91,162,276Z" transform="translate(-72 -171)" style="fill:#fefefe"/><path d="M163,271l-1-1c0.76,0.15,1.91-.5,2,1h-1Z" transform="translate(-72 -171)" style="fill:#f5b1bb"/><path d="M157,266l-1-1h1v1Z" transform="translate(-72 -171)" style="fill:#fce9eb"/><path d="M157,265h-1l1-1v1Z" transform="translate(-72 -171)" style="fill:#fdf4f5"/><path d="M159,268l0.83,0.67L159,269v-1Z" transform="translate(-72 -171)" style="fill:#f5aeb8"/><path d="M142,276c0.76,0.15,1.91-.5,2,1l-1,1h-1v-2Z" transform="translate(-72 -171)" style="fill:#ef7b8d"/><path d="M142,277v1h-1.83l-0.07-.66Z" transform="translate(-72 -171)" style="fill:#fdf6f7"/><path d="M143,278l1-1v1h-1Z" transform="translate(-72 -171)" style="fill:#e52340"/><path d="M137,280l1,1h-1v-1Z" transform="translate(-72 -171)" style="fill:#e41937"/><path d="M136,280v-1h1v1h-1Z" transform="translate(-72 -171)" style="fill:#fdf1f3"/><path d="M150,277h-1c0.15-.76-0.5-1.91,1-2l1,1v1h-1Z" transform="translate(-72 -171)" style="fill:#ea5268"/><path d="M158,277l-3,4h-1c-0.61-1.81,1.41-2.38,2-4h-2v-1l1-1h1l1,1Z" transform="translate(-72 -171)" style="fill:#f5b0ba"/><path d="M157,276l-1-1c0.36-1.88,1.69-.79,2.86-0.89L158,276h-1Z" transform="translate(-72 -171)" style="fill:#fefdfd"/><path d="M157,276h1l1,1h-1Z" transform="translate(-72 -171)" style="fill:#f28f9e"/><path d="M155,275l-1,1v-1h1Z" transform="translate(-72 -171)" style="fill:#e62743"/><path d="M145,268a37.31,37.31,0,0,1,3.8,0,3.23,3.23,0,0,1,1.2,1h-3l-1,1v1h-1v-3Z" transform="translate(-72 -171)" style="fill:#fef8f9"/><path d="M147,269h1c0.09,1.5,1.24.85,2,1h1v1h-5v-1Z" transform="translate(-72 -171)" style="fill:#f9cfd5"/><path d="M151,270c0.15-.76-0.5-1.91,1-2l1,1v1h-2Z" transform="translate(-72 -171)" style="fill:#f9cfd5"/><path d="M153,269l-1-1h1v1Z" transform="translate(-72 -171)" style="fill:#fdf6f7"/><path d="M155,266v1h-1Z" transform="translate(-72 -171)" style="fill:#fdf4f5"/><path d="M140,270l-1-1v-1h3l1,1v1h-3Z" transform="translate(-72 -171)" style="fill:#f8c5cd"/><path d="M145,270v1h-1l-1-1h2Z" transform="translate(-72 -171)" style="fill:#f8cad1"/><path d="M135,266v-1h2v1l-1,1h-1v-1Z" transform="translate(-72 -171)" style="fill:#f39daa"/><path d="M138,268h-1v-2h2v1Z" transform="translate(-72 -171)" style="fill:#f5adb8"/><path d="M137,266v1h-1Z" transform="translate(-72 -171)" style="fill:#fdfafa"/><path d="M151,277v-2h1l1,1v1h-2Z" transform="translate(-72 -171)" style="fill:#f8c5cd"/><path d="M151,275v1l-1-1h1Z" transform="translate(-72 -171)" style="fill:#e9425a"/><path d="M139,268v1h-1v-1h1Z" transform="translate(-72 -171)" style="fill:#f6b2bc"/><path d="M151,277h3c-0.09,1.5-1.24.85-2,1-0.76-.15-1.91.5-2-1h1Z" transform="translate(-72 -171)" style="fill:#fdf9fa"/><path d="M132,245h-1v-1h1v1Z" transform="translate(-72 -171)" style="fill:#f4a8b3"/><path d="M133,243h-1l1-1v1Z" transform="translate(-72 -171)" style="fill:#fcf0f1"/><path d="M133,243v-1h1v1h-1Z" transform="translate(-72 -171)" style="fill:#fadde2"/><path d="M132,244h-1v-1h1v1Z" transform="translate(-72 -171)" style="fill:#fbe5e8"/><path d="M131,245l-3,3v-2l1-1h2Z" transform="translate(-72 -171)" style="fill:#f18c9b"/><path d="M127,249l-1-1h1v1Z" transform="translate(-72 -171)" style="fill:#ef7c8d"/><path d="M128,247v1h-1Z" transform="translate(-72 -171)" style="fill:#ef7c8d"/><path d="M144,270h-1v-1l-1-1h-1v-1h3l1,1v1Z" transform="translate(-72 -171)" style="fill:#fdf2f4"/><path d="M150,270c-0.76-.15-1.91.5-2-1h2v1Z" transform="translate(-72 -171)" style="fill:#f4a4b0"/><path d="M139,266h-2v-1h2v1Z" transform="translate(-72 -171)" style="fill:#fcf0f1"/><path d="M139,267v-1c0.76,0.15,1.91-.5,2,1h-2Z" transform="translate(-72 -171)" style="fill:#fefcfd"/><path d="M133,240v1h-1l-1-2v-1l2,1v1Z" transform="translate(-72 -171)" style="fill:#fdf3f5"/><path d="M132,241h1v1l-1,1h-2Z" transform="translate(-72 -171)" style="fill:#f4a6b2"/><path d="M128,244c0.09-1.5,1.24-.85,2-1v1l-1,1h-1v-1Z" transform="translate(-72 -171)" style="fill:#f4a4b0"/><path d="M128,247l-1,1h-1v-2h2v1Z" transform="translate(-72 -171)" style="fill:#fdf7f7"/><path d="M131,238v1l-1-1h1Z" transform="translate(-72 -171)" style="fill:#fceef0"/><path d="M128,244v1l-0.83-.67Z" transform="translate(-72 -171)" style="fill:#f08393"/><path d="M128,245h1l-1,1v-1Z" transform="translate(-72 -171)" style="fill:#fcf0f1"/><path d="M112,270h-1c-0.09-1.5-1.24-.85-2-1v-1h3v2Z" transform="translate(-72 -171)" style="fill:#f07e8c"/><path d="M112,270v-1h2.74L112,271v-1Z" transform="translate(-72 -171)" style="fill:#eb586a"/><path d="M112,268h-3C110,266.63,111,266.63,112,268Z" transform="translate(-72 -171)" style="fill:#e62642"/><path d="M108,273l1-1Z" transform="translate(-72 -171)" style="fill:#e7314a"/><path d="M110,272l1-1Z" transform="translate(-72 -171)" style="fill:#e7314a"/><path d="M102,272v-1h1v1h-1Z" transform="translate(-72 -171)" style="fill:#e7314a"/><path d="M105,269l-1,1Z" transform="translate(-72 -171)" style="fill:#e7314a"/><path d="M109,268v1h-1Z" transform="translate(-72 -171)" style="fill:#e7314a"/><path d="M113,279.33h1v0.33h-1v-0.33Z" transform="translate(-72 -171)" style="fill:#fbe6e7"/><path d="M114,283l-1-1Z" transform="translate(-72 -171)" style="fill:#d9d5d7"/><path d="M103,286c-0.09,1.5-1.24.85-2,1-0.33-1.71-3.69-1-2.9-3.6,1.52-1.22,2.64.16,3.9,0.6v1Z" transform="translate(-72 -171)" style="fill:#ed6c7c"/><path d="M108,282v1l-2-1.08L104,283l-1-3c0.76-.15,1.91.5,2-1l1,1c0.09,1.5,1.24.85,2,1v1Z" transform="translate(-72 -171)" style="fill:#e63d53"/><path d="M100,288v1l-0.51,1.1C98.84,289,98.61,288.24,100,288Z" transform="translate(-72 -171)" style="fill:#ea5063"/><path d="M103,280c-0.76-.15-1.91.5-2-1h2v1Z" transform="translate(-72 -171)" style="fill:#e53049"/><path d="M102,285v-1h1Z" transform="translate(-72 -171)" style="fill:#e84257"/><path d="M103,284l1-1v1h-1Z" transform="translate(-72 -171)" style="fill:#ed6977"/><path d="M104,284v-1l2-1.08,2,1.08,3.17,2.43L109,287l-2-1A2.46,2.46,0,0,0,104,284Z" transform="translate(-72 -171)" style="fill:#dfd1d3"/><path d="M103,273v-1h3.63c0.86,1.81.33,3.14-1.06,3.81-0.72.35-2.23,1-2.57-.81v-2Z" transform="translate(-72 -171)" style="fill:#f9f9f9"/><path d="M103,280v-1h2C104.91,280.5,103.76,279.85,103,280Z" transform="translate(-72 -171)" style="fill:#e9848e"/><path d="M108,281c-0.76-.15-1.91.5-2-1C106.76,280.15,107.91,279.5,108,281Z" transform="translate(-72 -171)" style="fill:#ea6775"/><path d="M103,273v2l-1-1.24Z" transform="translate(-72 -171)" style="fill:#e7314a"/><path d="M109,269c0.76,0.15,1.91-.5,2,1C110.24,269.85,109.09,270.5,109,269Z" transform="translate(-72 -171)" style="fill:#f8cdcd"/><path d="M103,279h-2l1.24-1Z" transform="translate(-72 -171)" style="fill:#ea838d"/><path d="M108,282v-1l0.83,0.67Z" transform="translate(-72 -171)" style="fill:#ec858f"/><path d="M104,284a2.46,2.46,0,0,1,3,2h-4l-1-1,1-1h1Z" transform="translate(-72 -171)" style="fill:#fcf3f3"/><path d="M140,282v2h-1C139.15,283.24,138.5,282.09,140,282Z" transform="translate(-72 -171)" style="fill:#e9455e"/><path d="M140,284v-1h1v1h-1Z" transform="translate(-72 -171)" style="fill:#f7bdc6"/><path d="M137,281h1v1h-1v-1Z" transform="translate(-72 -171)" style="fill:#f5b1bb"/><path d="M136,280h1v1h-1v-1Z" transform="translate(-72 -171)" style="fill:#f5b1bb"/><path d="M136,280v1l-0.83-.67Z" transform="translate(-72 -171)" style="fill:#fdf1f3"/><path d="M167,270v-3.42c-1.33-1.53-3.79-.83-5-2.58l1-1c1.76,0.67,3.52,1.35,5.31,2a3.74,3.74,0,0,0,.69-1c1.5,0.09.85,1.24,1,2v6h-1c-0.12-2,.28-4-0.31-6.11C167,267,169.32,269.36,167,270Z" transform="translate(-72 -171)" style="fill:#f6b8c1"/><path d="M148.91,244.1l-0.82-.7,0.32-.32,0.7,0.82Z" transform="translate(-72 -171)" style="fill:#fdf3f5"/><path d="M133,242v-1h2v1h-2Z" transform="translate(-72 -171)" style="fill:#fdf3f5"/><path d="M142,280v2h-1C141.15,281.24,140.5,280.09,142,280Z" transform="translate(-72 -171)" style="fill:#f7bdc6"/><path d="M141,282h2v1h-2v-1Z" transform="translate(-72 -171)" style="fill:#fdf3f4"/><path d="M154,281h1v1h-1v-1Z" transform="translate(-72 -171)" style="fill:#f5acb6"/><path d="M164,282l-1,1Z" transform="translate(-72 -171)" style="fill:#fefbfc"/><path d="M162,281v-1l1,1h-1Z" transform="translate(-72 -171)" style="fill:#fefbfc"/><path d="M164,279l2-1c0.09,1.5,1.24.85,2,1h1l-1,1h-3Z" transform="translate(-72 -171)" style="fill:#f6b5bf"/><path d="M160,280v-1c0.76,0.15,1.91-.5,2,1h-2Z" transform="translate(-72 -171)" style="fill:#e83a54"/><path d="M165,280h1v1Z" transform="translate(-72 -171)" style="fill:#fdf6f7"/><path d="M131,237c0.11-.61.18-1.23,0.34-1.82s0.44-1.45.66-2.18l2-1v2c-1.5.09-.85,1.24-1,2l-1,1h-1Z" transform="translate(-72 -171)" style="fill:#f6b7c0"/><path d="M131,238h-1l1-1v1Z" transform="translate(-72 -171)" style="fill:#fdf3f5"/><path d="M134,232l-2,1v-2l2-1v2Z" transform="translate(-72 -171)" style="fill:#fadde2"/><path d="M136,230l1,3h-1l-1-1v-2h1Z" transform="translate(-72 -171)" style="fill:#fbe4e8"/><path d="M135,230v2h-1v-2h1Z" transform="translate(-72 -171)" style="fill:#f5abb6"/><path d="M139,236h-1v-2C139.5,234.09,138.85,235.24,139,236Z" transform="translate(-72 -171)" style="fill:#fce9eb"/><path d="M137,233l1,1Z" transform="translate(-72 -171)" style="fill:#fceef1"/><path d="M139,232l1,1Z" transform="translate(-72 -171)" style="fill:#f5b0ba"/><path d="M136,230h-1l0.67-.83Z" transform="translate(-72 -171)" style="fill:#f4a7b3"/><path d="M131,238v-1h1l1-1,2,1v1h-1l-1,1Z" transform="translate(-72 -171)" style="fill:#f8ccd2"/><path d="M137,237h-2v-2h1l1,1v1Z" transform="translate(-72 -171)" style="fill:#f9ced4"/><path d="M135,237h1l-1,1v-1Z" transform="translate(-72 -171)" style="fill:#fefefe"/><path d="M133,239l1-1Z" transform="translate(-72 -171)" style="fill:#fbe6e9"/><path d="M137,237v-1h1Z" transform="translate(-72 -171)" style="fill:#fceef0"/><path d="M139,228h1l1,1v2l-2-1v-2Z" transform="translate(-72 -171)" style="fill:#f7c5cc"/><path d="M142,232l-1-1h1v1Z" transform="translate(-72 -171)" style="fill:#f7c3ca"/><path d="M142,232v-1l1,1h-1Z" transform="translate(-72 -171)" style="fill:#fdf8f9"/><path d="M144,232l-0.67.83L143,232h1Z" transform="translate(-72 -171)" style="fill:#fdf8f9"/><path d="M169,272h1c0.41,0.33.86,0.64,1.24,1a8.48,8.48,0,0,1,.76,1l-0.83.33L172,275v1h-2c-0.15-.76.5-1.91-1-2v-2Z" transform="translate(-72 -171)" style="fill:#f4a6b1"/><path d="M172,275l-0.83-.67L172,274v1Z" transform="translate(-72 -171)" style="fill:#e62d48"/><path d="M140,228v-2l2,1v2h-1Z" transform="translate(-72 -171)" style="fill:#f8cad1"/><path d="M144,232h-1l-1-1v-2l2,1v2Z" transform="translate(-72 -171)" style="fill:#f7c4cc"/><path d="M174,281c-1.5-.09-0.85-1.24-1-2h1v2Z" transform="translate(-72 -171)" style="fill:#e41937"/><path d="M174,279h-1v-1h1v1Z" transform="translate(-72 -171)" style="fill:#f08696"/><path d="M166,281v-1h2v1h-2Z" transform="translate(-72 -171)" style="fill:#ea475f"/><path d="M167,276h1v1l-2,1v-2h1Z" transform="translate(-72 -171)" style="fill:#f5b2bc"/><path d="M168,277h2.6l-1.6,2-1-1v-1Z" transform="translate(-72 -171)" style="fill:#f18d9c"/><path d="M169,274c1.5,0.09.85,1.24,1,2h-1v-2Z" transform="translate(-72 -171)" style="fill:#fefefe"/><path d="M169,272v1c-0.76-.15-1.91.5-2-1v-2c2.32-.64,0-3,1.69-4.11C169.28,268,168.88,270,169,272Z" transform="translate(-72 -171)" style="fill:#e41937"/><path d="M167,276h-1l-1-1,3.19-1.35Z" transform="translate(-72 -171)" style="fill:#fefbfc"/><path d="M164,274l1,1Z" transform="translate(-72 -171)" style="fill:#e51e3c"/><path d="M147,269l-1,1Z" transform="translate(-72 -171)" style="fill:#f293a1"/><path d="M144,270l1-1v1h-1Z" transform="translate(-72 -171)" style="fill:#ef7b8b"/><path d="M139,267h2v1h-2v-1Z" transform="translate(-72 -171)" style="fill:#f6b2bc"/><path d="M142,268l1,1Z" transform="translate(-72 -171)" style="fill:#f08595"/><path d="M139,267v1h-1Z" transform="translate(-72 -171)" style="fill:#fbe3e6"/><path d="M129,245l1-1h1v1h-2Z" transform="translate(-72 -171)" style="fill:#fbe4e7"/><path d="M131,244h-1v-1h1v1Z" transform="translate(-72 -171)" style="fill:#f4a8b3"/><path d="M168,277v2c-0.76-.15-1.91.5-2-1Z" transform="translate(-72 -171)" style="fill:#fbe1e5"/><path d="M168,279v-1l1,1h-1Z" transform="translate(-72 -171)" style="fill:#e62b47"/><path d="M136,235h-1l-1-1v-2h1l1,1v2Z" transform="translate(-72 -171)" style="fill:#fcebed"/><path d="M135,235v2l-2-1c0.15-.76-0.5-1.91,1-2Z" transform="translate(-72 -171)" style="fill:#fdf7f8"/><path d="M133,236l-1,1Z" transform="translate(-72 -171)" style="fill:#fbe7ea"/><path d="M136,235v-2h1l1,1v2h-1Z" transform="translate(-72 -171)" style="fill:#f8c5cd"/><path d="M136,233l-1-1Z" transform="translate(-72 -171)" style="fill:#f7bec6"/><path d="M136,235l1,1Z" transform="translate(-72 -171)" style="fill:#fdf6f7"/><path d="M142,229v2h-1v-2h1Z" transform="translate(-72 -171)" style="fill:#fcedef"/><path d="M140,228l1,1Z" transform="translate(-72 -171)" style="fill:#fdf9f9"/><path d="M135,235l-1-1Z" transform="translate(-72 -171)" style="fill:#f7bbc4"/></svg>