<svg id="Layer_1" data-name="Layer 1" xmlns="http://www.w3.org/2000/svg" viewBox="0 0 498.72 102.49"><title>logo</title><path d="M416.73,199.49H500.1V302H1.37V259.32a0.68,0.68,0,0,0,.42.18c1,3.24,3.15,4.83,6.73,4.84q16.16,0,32.32,0a6.05,6.05,0,0,0,2.94-.9c3.73-2.26,5.32-5.83,5.69-10a40.72,40.72,0,0,0-2.19-16.13c-1.9-5.89-3.93-11.73-5.84-17.61-2.16-6.68-2.27-13.27,1.1-19.65l0-.52H55.32a1.32,1.32,0,0,1,0,.48c-4.13,2.81-5.25,6.86-4.71,11.55a60.27,60.27,0,0,0,2.81,11.37c2,6.13,4.11,12.22,5.5,18.48,1.68,7.6,1.63,15.24-2.4,22.34a1.49,1.49,0,0,0,0,.56c0.47,0,.95.07,1.43,0.07,10.29,0,20.58-.09,30.86.05a7.18,7.18,0,0,0,7.45-7.5c-0.11-16.57,0-33.15-.05-49.72,0-4.06-1.58-6.09-5.5-7.29q0-.2-0.06-0.39h33.84a0.82,0.82,0,0,1-.13.44,7.23,7.23,0,0,0-6.52,6.82c-0.22,3.55,1.32,5.94,5.22,7.31,1.53,0.53,3.16.77,4.73,1.19a8.31,8.31,0,0,1,2.27.83,1.12,1.12,0,0,1-.11,2.1,4.08,4.08,0,0,1-1.39.39,4.72,4.72,0,0,1-5.17-2.89l-6.71,1.25c0.7,2.6,1.38,3.71,3,5.08,4.12,3.41,12.39,3.12,16.43-.41,3.12-2.73,3.37-9.53-1.62-11.76a17.25,17.25,0,0,0-2.75-1c-1.58-.41-3.19-0.68-4.77-1.06-0.8-.19-1.68-0.51-1.59-1.54s1-1.25,1.79-1.35a4.15,4.15,0,0,1,4.44,2.39l6.17-1.92a8.42,8.42,0,0,0-4.48-4.88c-0.79-.38-1.63-0.66-2.45-1H147a2.57,2.57,0,0,1,0,.47l-4,.21-0.61,5.53-2.71.3v4.57l2.45,0.28c0,1.47,0,2.76,0,4.06s0,2.61,0,3.91a5.42,5.42,0,0,0,6,5.62c1.52-.07,3-0.38,4.67-0.61,0-1.29,0-2.41,0-3.54,0-.39-0.09-0.79-0.15-1.28h-1c-2.08,0-2.42-.27-2.48-2.33s0-3.87,0-5.84l3.54-.26V206L149,205.7V200q0-.24,0-0.48h78.46a0.88,0.88,0,0,0-.05.43,6.63,6.63,0,0,0-.29,1.36q0,10.64,0,21.28a9.17,9.17,0,0,0,.21,1.39h3.83l1-2.07c0.59,0.48,1.06.91,1.58,1.28,3.35,2.38,8.51,1.51,10.51-2.06a12.31,12.31,0,0,0-.1-12.78,6.07,6.07,0,0,0-8.37-1.94c-0.44.26-.85,0.58-1.49,1V200l0.07-.54H347.59a0.92,0.92,0,0,0,0,.44,6.76,6.76,0,0,0-.29,1.37q0,10.64,0,21.29c0,0.39,0,.78.07,1.27H353V208.18l0.31,0,4.2,15.78h4.83l3.84-14.62h0.24l0.24,0V223.9h7c0-1.47,0-2.83,0-4.2q-0.05-9.88-.11-19.75a1,1,0,0,0,0-.46h23a1,1,0,0,0,0,.46,8,8,0,0,0-.11,1q0,10.9,0,21.8a10,10,0,0,0,.12,1.12h7a46,46,0,0,1,0-4.82c0.17-1.58,1.46-2.56,2.42-4l4.08,8.8h8.27l-7.49-15.12L416.7,200ZM283.19,258.17l-4-.4c2-2.46,3.54-4.72,3.82-7.79l-6-.68-1.93,4L272.81,251a26.77,26.77,0,0,0,2.21-1.53,5.78,5.78,0,0,0-1-9.64,10.53,10.53,0,0,0-9.68.2,5.31,5.31,0,0,0-2.62,6.66c0.32,1,.83,1.9,1.29,3-0.73.41-1.45,0.77-2.11,1.2a6.58,6.58,0,0,0,.36,11.49,13.72,13.72,0,0,0,4.62,1.42,12.78,12.78,0,0,0,8.67-1.7c2.79,1.7,5.6,2.33,8.64,1.22v-5.06Zm34.73-8a43.22,43.22,0,0,0-11,.12c0,0.7,0,1.42,0,2.15s0,1.59,0,2.46l3.84,0.17c-0.33,1.87-.87,2.56-2.26,2.8a3.45,3.45,0,0,1-3.66-1.4c-1.47-2-1.38-8.9.15-10.85a2.84,2.84,0,0,1,5,.35,16.53,16.53,0,0,1,.85,2.11l6.9-.74a6.67,6.67,0,0,0-.08-1.32,9.13,9.13,0,0,0-7.91-7c-4.36-.67-8.37.06-11.2,3.82a14.53,14.53,0,0,0-2.46,12.07c1.65,8.38,10.27,11.71,17.11,6.48l1.2,2.2,3.54-.17V250.18ZM139,247.37c-1.06-5.13-3.44-7.5-8.23-8.4s-9.58.94-11.84,4.95a15,15,0,0,0-.54,14.33,10.15,10.15,0,0,0,15.4,3.43,2.74,2.74,0,0,1,.63-0.28l1,1.88H139V250.06H128.14v4.81l3.66,0.26c-0.23,1.78-.7,2.41-2,2.74a3.37,3.37,0,0,1-4.09-1.86,13.84,13.84,0,0,1,0-9.81,1.76,1.76,0,0,1,.25-0.42,2.88,2.88,0,0,1,5.15.21c0.35,0.63.57,1.32,0.9,2.09l5.38-.54Zm163.3-45.3a6.39,6.39,0,0,0-4.5-.12c-1.86.57-2.27,2.37-3,3.86a14.66,14.66,0,0,0-7.4.26c-5,1.35-6,5.61-2.33,9.15a0.34,0.34,0,1,0,0,0c-0.91,1.13-2.17,2.07-2.49,3.26s0.34,2.56.6,4.06a1.82,1.82,0,0,0-.29.25c-2.38,2.35-1.92,5.1,1.09,6.45a7.3,7.3,0,0,0,1.38.48,28,28,0,0,0,12.15,0c3.63-.79,5.35-3.67,4.46-6.9-0.68-2.47-2.38-3.81-5.46-4.1-1.78-.17-3.59-0.1-5.38-0.19-0.84,0-1.8.12-2.39-.88,0.69-1.06,1.72-.77,2.65-0.86a26.78,26.78,0,0,0,5.53-.72c3.34-1.09,4.4-4.58,2.53-7.55-0.29-.46-0.61-0.9-1-1.53l3.53-.43Zm-68.14,49.78V239.17c-2.52.13-4.77-.21-7,0.24v24h6.84c0.65-2.27-.81-5,1.95-6.68l3.24,6.71h7.41l-5.95-11.74,5.28-6.19c-1.94,0-3.38.07-4.82,0a2.72,2.72,0,0,0-2.49,1.21C237.37,248.29,235.94,249.83,234.19,251.85Zm159.47-6.38h-2.52c-3.7,0-3.7,0-6.16,2.83-0.93,1.08-1.84,2.17-2.76,3.26l-0.4-.21v-12h-6.77v23.87h6.71c0.53-2.26-.84-5,1.94-6.57l3.21,6.59h7.34l-5.87-11.59Zm84.72-21.55c0-4.5.14-8.82,0-13.13-0.15-3.51-2.26-5.27-5.78-5.3a5.7,5.7,0,0,0-4.62,1.83,1.59,1.59,0,0,1-.57.25l-0.2-1.57h-6.51v17.86h7.08c0-3.41,0-6.66,0-9.92a8.73,8.73,0,0,1,.23-2.17,1.59,1.59,0,0,1,1.91-1.14,1.36,1.36,0,0,1,1.29,1.51c0,2,0,3.92.05,5.88s0,3.87,0,5.9h7.15Zm-291.83,0c0-2,0-3.83,0-5.69,0-2.12.06-4.25,0-6.37-0.11-3.3-1.66-5.19-4.79-5.88a16.8,16.8,0,0,0-8,0c-2.66.7-4.71,2.14-5.44,5.26l6.09,0.65c1.54-1.86,2.7-2.41,4-1.87a1.38,1.38,0,0,1,.88,2.07,37.85,37.85,0,0,0-4.67.72,18,18,0,0,0-4.7,1.9,4.84,4.84,0,0,0-2.12,5.13,5,5,0,0,0,3.69,4.15c2.83,0.88,5.47.62,7.75-1.49a2,2,0,0,1,.57-0.25l0.48,1.77h5.47A5.7,5.7,0,0,0,186.55,223.9Zm312.75,0c-0.07-1.8-.17-3.48-0.2-5.17,0-2.36,0-4.73,0-7.09-0.06-2.93-1.23-4.63-4-5.45a15.32,15.32,0,0,0-10.07.24A6,6,0,0,0,481,211.2c0.78,0.11,1.41.24,2,.29,1.93,0.15,3.95,1,5.53-1.13,0.35-.46,1.67-0.39,2.49-0.24s1.3,0.9,1,2c-0.52.06-1.08,0.1-1.63,0.18-2.49.38-5,.55-7.26,1.91a5.33,5.33,0,0,0-2.7,5.58,4.87,4.87,0,0,0,3.83,4.26c2.84,0.85,5.47.56,7.66-1.66a1.27,1.27,0,0,1,.52-0.11l0.49,1.65h6.36Zm-177.22-7.42c1.07-6.37-3.17-10.43-8-10.92s-10.17,1.7-11.19,7.79c-1,5.73,2.3,10.08,7.81,10.92,3.5,0.53,6.86.06,9.54-2.56a4.48,4.48,0,0,0,1.75-4h-6.27c-0.73,1.35-1.85,2.29-3.67,1.77-1.22-.35-1.54-1-1.57-3h11.57Zm115.66,0.06c0.47-6.34-2.46-10.22-8.2-10.93A12,12,0,0,0,425,206c-3.85,1.08-5.91,3.88-6.6,7.71a8.89,8.89,0,0,0,4,9.1,11.57,11.57,0,0,0,11.89.16,6.69,6.69,0,0,0,3.57-5.19h-6.52c-1.2,1.7-2.24,2.22-3.7,1.76-1.16-.36-1.51-1-1.46-3h11.6ZM258.86,224c2,0,3.88,0,5.75,0a2.16,2.16,0,0,0,.69-0.31c0-3,0-5.88,0-8.82s0.07-6-.06-8.83H258.3c0,3.17,0,6.18,0,9.19a12,12,0,0,1-.34,2.65,1.63,1.63,0,0,1-1.84,1.29c-1-.08-1.31-0.82-1.31-1.73q0-4,0-8.07c0-1.11,0-2.23,0-3.35h-7.22c0,1.25,0,2.38,0,3.5,0,3.18-.06,6.36.05,9.54,0.13,3.76,2.3,5.6,6,5.39a6.79,6.79,0,0,0,4.79-2.48Zm199,0c0-4.55,0-8.87,0-13.18a7.16,7.16,0,0,0-.45-2.14,3.84,3.84,0,0,0-2.47-2.55c-2.7-.89-5.29-1-7.45,1.31a1.68,1.68,0,0,1-.63.24L446.58,206h-6.28v17.93h6.86c0-3.26,0-6.42,0-9.58a10.28,10.28,0,0,1,.13-2.19,1.76,1.76,0,0,1,1.94-1.51c1.21,0.06,1.41.89,1.41,1.88,0,3.18,0,6.37,0,9.55,0,0.62.1,1.24,0.15,1.9h7ZM194.63,263.31c0-4.32,0-8.47,0-12.61,0-3.84-2-5.68-5.79-5.68a5.86,5.86,0,0,0-4.62,1.83,0.68,0.68,0,0,1-.36,0l-0.35-1.27h-6.44v17.63h7.08c0-.94,0-1.74,0-2.54,0-2.77,0-5.55,0-8.32,0-1.54.79-2.4,1.88-2.38s1.54,0.73,1.57,2.33c0,2.69,0,5.39,0,8.08v2.91h7Zm144.65-7.43c0.32-3.86-.59-7-3.67-9.19a10.06,10.06,0,0,0-7.47-1.56,8.92,8.92,0,0,0-7.7,5.93,9.15,9.15,0,0,0,1.7,9.81c3.29,3.79,11.23,4.07,15,.58a5.77,5.77,0,0,0,2.13-4.05l-6.23-.47c-1.34,2-2.31,2.48-3.67,2.12s-1.75-1-1.83-3.17h11.77ZM141.62,245.54c0,1,0,1.68,0,2.4,0,3.76-.08,7.52.05,11.27,0.09,2.7,1.79,4.29,4.51,4.57a6.93,6.93,0,0,0,6.11-2.16l0.48,1.64h6.42v-17.6h-6.94c0,3.28,0,6.38,0,9.48a4.39,4.39,0,0,1-.33,2.13,3,3,0,0,1-1.79,1.38c-1,.14-1.28-0.81-1.37-1.68-0.07-.65-0.13-1.3-0.13-1.95,0-2.53,0-5.06,0-7.6,0-.62-0.11-1.23-0.17-1.9h-6.82Zm83.12-35.17a5.73,5.73,0,0,0-3.36-3.81,11.71,11.71,0,0,0-9.73-.12,5.75,5.75,0,0,0-3.75,5.75c0.2,2.51,1.76,4.22,4.68,4.95,1.58,0.39,3.19.62,4.79,0.9,0.7,0.13,1.47.12,1.74,1a4.75,4.75,0,0,1-5.79,0,2.64,2.64,0,0,0-1.34-.81c-1.57.11-3.12,0.42-4.78,0.67a6.2,6.2,0,0,0,3.61,4.41,13.19,13.19,0,0,0,11.78-.31,5.31,5.31,0,0,0,2.94-5.92,5,5,0,0,0-4-4.39,46,46,0,0,0-4.78-.86,3.54,3.54,0,0,1-2.69-1.17,3.85,3.85,0,0,1,4.61-.15,3.17,3.17,0,0,0,1.42.74C221.54,211.06,223,210.69,224.74,210.36Zm-19.08,0c-1-2.28-1.85-3.22-3.62-3.95a11.93,11.93,0,0,0-9.29-.07,5.85,5.85,0,0,0-3.94,5.87c0.22,2.48,1.81,4.2,4.73,4.91,1.66,0.4,3.37.59,5,1a8.58,8.58,0,0,1,1.71.84c-2.56,1.5-4.37,1.38-6.25-.19a1.77,1.77,0,0,0-1-.57c-1.64.17-3.27,0.45-5,.7a6.6,6.6,0,0,0,3.68,4.4,13.32,13.32,0,0,0,11.57-.2c2.44-1.15,3.36-3.18,3.14-5.81-0.19-2.27-1.48-3.87-4.06-4.61a38.09,38.09,0,0,0-4.79-.86,3.33,3.33,0,0,1-2.69-1.23,4.07,4.07,0,0,1,4.65-.08,3.14,3.14,0,0,0,1.42.73C202.47,211.05,204,210.69,205.67,210.37Zm167.2,39.37a22.5,22.5,0,0,0-2.44-2.87c-2.93-2.4-9.18-2.5-12.26-.29a5.43,5.43,0,0,0-2.56,5.22,5.11,5.11,0,0,0,3.91,4.53,42.85,42.85,0,0,0,4.77,1c0.94,0.17,1.92.16,2.55,1.07-2.06,1.68-4.16,1.39-6.85-.86l-5,.79c0.82,2.42,2,3.86,3.91,4.59a14,14,0,0,0,11.39-.44,5.28,5.28,0,0,0,3.1-5.39,5.18,5.18,0,0,0-3.83-4.87,30.06,30.06,0,0,0-4.06-.79c-1.24-.23-2.61-0.07-3.62-1.13,1.5-1.15,3-1.4,4.42-.34a3.09,3.09,0,0,0,2.71.55Zm22.33,19.79c1,0,1.86.11,2.74,0.14,4.76,0.14,6.43-1,8-5.43,1.23-3.36,2.47-6.72,3.69-10.09,1-2.81,2-5.62,3.07-8.55h-5.23L404.66,254l-0.42-.08-2.63-8.37H394c0.34,0.93.59,1.67,0.87,2.4,1.78,4.63,3.58,9.25,5.33,13.9,0.76,2,.32,2.65-1.83,2.77-1,.06-2.06,0-3.14,0v4.87Zm-1-56.83c0.16-3.84-3.61-7.4-8.75-7.19a8.92,8.92,0,0,0-8.94,9.12c-0.15,5.39,3.2,9.37,8.19,9.78s9.27-2.12,9.68-7.2l-5.76-.58a13,13,0,0,1-.94,1.84,1.85,1.85,0,0,1-3.22-.24,8.38,8.38,0,0,1,0-6.68,1.72,1.72,0,0,1,3.12,0,11.94,11.94,0,0,1,.61,1.68c1.28-.06,2.49-0.1,3.71-0.2C392.62,213,393.33,212.84,394.18,212.7Zm-169,39.54a6.71,6.71,0,0,0-2.29-5c-4.17-3.75-12.29-2.79-14.68,3.13a9.89,9.89,0,0,0,1.3,10.39c2.47,3.16,6,3.51,9.57,2.9a6.72,6.72,0,0,0,5.89-7.07l-5.47-.33a11.37,11.37,0,0,1-1,1.84,1.86,1.86,0,0,1-3.11-.23c-0.86-1.26-.86-5.6,0-6.89a1.72,1.72,0,0,1,3.13.13,16.16,16.16,0,0,1,.72,1.67Zm129.64-8.74v-4.21a58.23,58.23,0,0,0-6.18-.45c-3.75.11-5.61,2-5.94,5.79l-0.1,1.16-2.35.42v4.12l2.53,0.34v12.57h6.89V250.44H354v-4.32l-4.54-.27C350.16,242.2,352.92,244.23,354.78,243.5Zm-183.7,6.66,3.37-.25v-4.44h-3.39v-6.11l-6.23.4c-0.09,1.13-.13,2-0.23,2.9s-0.29,1.85-.43,2.69l-2.68.31v4.27l2.59,0.26c0,0.95,0,1.75,0,2.55,0,2-.06,4.09,0,6.12a5,5,0,0,0,4.57,4.91,13.44,13.44,0,0,0,5.74-.6v-4.83c-0.43,0-.74,0-1,0-2.09,0-2.27-.15-2.31-2.15S171.09,252.33,171.09,250.17Zm-4.32-38.48v-6c-2.54-.54-4.24.36-5.43,2.7L161,206h-5.94v17.87h7c0-2.51,0-4.87,0-7.22C162.17,212.49,162.57,212.06,166.77,211.69Zm102.08-5.76v18h7.09c0-2.95,0-5.78,0-8.61,0-2.39.86-3.22,3.17-3.46,0.45,0,.9-0.11,1.28-0.16v-6c-2.48-.56-4.09.48-5.29,2.63l-0.39-2.37h-5.88Zm67.36,5.81v-6c-2.66-.79-4.18.69-5.57,2.71L330.42,206h-5.93c0,3.11,0,6,0,9s0,6,0,8.85h7.21c0-2.83,0-5.51,0-8.18,0-3,.7-3.68,3.72-3.84C335.69,211.82,335.91,211.77,336.2,211.73ZM204.68,245.59h-7v17.84a35.11,35.11,0,0,0,7-.09V245.59Zm131,39.09c-1.77.1-1.82,0.08-2.07,1.09-0.44,1.82-.79,3.66-1.21,5.49-0.32,1.4-.69,2.8-1.17,4.71l-1.34-4.82c-0.5-1.8-1-3.61-1.53-5.4-0.18-.6-0.39-1.43-1.25-1.17a2,2,0,0,0-1,1.15,18.77,18.77,0,0,0-.63,2.35c-0.66,2.49-1.32,5-2.12,8-0.91-3.7-1.66-6.87-2.47-10-0.38-1.48-.43-1.47-2.37-1.18l3.62,14.32c2,0.12,2.05.13,2.44-1.27,0.67-2.43,1.28-4.88,1.94-7.32a15.26,15.26,0,0,1,.71-1.68c1,3.35,1.82,6.32,2.64,9.3a1.27,1.27,0,0,0,1.31,1.17,1.2,1.2,0,0,0,1.27-1.18c0.18-1,.48-1.89.71-2.84C334,291.88,334.77,288.41,335.65,284.68Zm52.75,0.13V288c0,3.26,0,6.52,0,9.78,0,1.46.07,1.46,1.9,1.28V287.9a2,2,0,0,1,1,.91q2.71,4.64,5.41,9.28c0.65,1.12,1.42,1.74,2.68,1V284.61h-1.66V296c-0.6-.93-0.91-1.37-1.18-1.84-1.61-2.74-3.26-5.45-4.78-8.23C391,284.56,390.13,284.21,388.41,284.81Zm-214.3-.29v14.83l1.84-.15v-6h3.88c0.72,1.7,1.46,3.4,2.17,5.11,0.46,1.11,1.18,1.43,2.48.77l-2.57-6.2a2.78,2.78,0,0,1,.36-0.43c1.95-1.49,2.57-3.07,2-5-0.54-1.73-2.14-2.79-4.39-2.84C178,284.48,176.13,284.51,174.11,284.51Zm15.46,0.23c0,4.28,0,8.35,0,12.42a7.22,7.22,0,0,0,0,1.46c0.19,0.91.75,0.9,1.59,0.36V286.91l0.9,1.53c1.89,3.23,3.82,6.45,5.66,9.71a1.81,1.81,0,0,0,2.67,1c0-4.44,0-8.84,0-13.23,0-.71-0.08-1.44-1-1.28a1.58,1.58,0,0,0-.81,1.19c-0.11,1.21,0,2.44,0,3.67q0,2.93,0,5.85a98.21,98.21,0,0,1-5.89-9.45C192,284.51,191,284.25,189.57,284.75Zm298.73,12a4.71,4.71,0,0,0,4.18,2.78,5,5,0,0,0,5.15-2.56,10.42,10.42,0,0,0,.56-9.4c-1.28-3.07-3.76-3.58-6.42-3.09A5.16,5.16,0,0,0,488,290c0.33,2.52,2.25,4,4.88,4.19,1.67,0.1,2.8-.88,4.36-1.84-0.21.91-.31,1.45-0.47,2-1.1,3.7-3.45,4.5-6.44,2.15C489.56,295.92,489,296.05,488.31,296.77Zm-30.3-.43a4.68,4.68,0,0,0,4.73,3.22,5.07,5.07,0,0,0,4.93-3,10.89,10.89,0,0,0,.65-8.09c-0.85-3-3-4.39-6.06-4.09a5.1,5.1,0,0,0-4.55,5.18,4.59,4.59,0,0,0,5,4.57,19.92,19.92,0,0,0,4.07-1.16c-0.18,1.7-.5,3.58-2.38,4.55s-3.29.39-4.55-1.15C459.62,296.13,458.89,296.33,458,296.33Zm-28.09-10-0.13-1.82c-1.67,0-3.21,0-4.74,0s-3,.07-4.48.1c-0.43,4.12-.28,13,0.26,14.77,2.63,0,5.31,0,8,0,1.4,0,1.34-.72,1-1.88h-7.15v-5c1.54,0,3,0,4.43,0a1.85,1.85,0,0,0,1.19-.6,2.53,2.53,0,0,0-.14-1.22h-5.45v-4.35h7.23Zm-273.44,5.8a29.13,29.13,0,0,0,1.36,4.42,5.13,5.13,0,0,0,4.94,3,5.28,5.28,0,0,0,5-3,9.65,9.65,0,0,0,.27-8.94,5.38,5.38,0,0,0-5.26-3.31,5.14,5.14,0,0,0-5,3.27A32,32,0,0,0,156.48,292.13Zm88.11-4.1c-1.51-3-3.49-4.07-6.46-3.63a4.11,4.11,0,0,0-3.83,3.53c-0.23,2.06.85,3.56,3.17,4.28,1.24,0.39,2.54.61,3.78,1a2.22,2.22,0,0,1,1.77,2.34,2.44,2.44,0,0,1-2.15,2.07c-2,.31-4,0.21-5.12-1.89-0.56-1-1.22-.77-2-0.39,0.77,4.12,5,4.6,7.79,4a4.42,4.42,0,0,0,3.53-4.17c0-1.95-1.06-3.32-3.29-4-1.24-.38-2.53-0.62-3.78-1-1-.3-1.83-0.78-1.78-2,0-1,.78-1.74,2.11-2,2.15-.44,3.6.54,4.62,2.4Zm119.81,7.36c1.26,3.53,4.33,5,8,3.91a4.61,4.61,0,0,0,3.48-4.22,4.32,4.32,0,0,0-3.47-3.92c-1.25-.36-2.52-0.64-3.77-1a1.92,1.92,0,0,1-1.64-1.86,2,2,0,0,1,1.7-2.08,3.71,3.71,0,0,1,4.35,1.37,1.18,1.18,0,0,0,2,.34c-0.69-4.29-7.12-4.42-9.09-2.14a3.77,3.77,0,0,0,.91,5.87,14.3,14.3,0,0,0,2.75.95c0.86,0.26,1.75.42,2.58,0.73a2,2,0,0,1,1.45,2.26,2.14,2.14,0,0,1-1.87,2c-2.1.36-4.12,0.32-5.35-1.86C365.85,294.74,365.17,295,364.4,295.39ZM206,299.27h9.48l-0.14-1.77h-7.32v-5h5.65l-0.11-1.88h-5.54v-4.37h7c0.19-.92.37-1.71-0.59-1.73-2.83-.07-5.65,0-8.48,0v14.73ZM415.32,289c-0.49-2.71-1.92-4.3-4.09-4.63a5.63,5.63,0,0,0-6.29,3.17,9.7,9.7,0,0,0,.11,8.73,5.34,5.34,0,0,0,6,3.19c2.3-.31,3.7-1.81,4.3-4.78l-1.47-.39c-0.22.44-.39,0.72-0.51,1a3.3,3.3,0,0,1-3.54,2.41,3.44,3.44,0,0,1-3.12-2.72,9.76,9.76,0,0,1,.23-6.72,3.39,3.39,0,0,1,6.17-.38c0.27,0.48.51,1,.8,1.53Zm-107.1,6.11h4.72a1.07,1.07,0,0,1,.27.22c0.35,0.91.68,1.82,1,2.73,0.53,1.37.54,1.36,2.42,0.87-1.44-4.39-2.9-8.77-4.3-13.17a1.44,1.44,0,0,0-1.48-1.3c-1,0-1.34.49-1.63,1.41-1.32,4.27-2.74,8.51-4.1,12.76a2.33,2.33,0,0,0,.17.83C307.73,299,307,296.57,308.21,295.14ZM261.86,284.6l-4.66,14.49c1.24,0.52,1.75.11,2-.83s0.64-2.12.94-3.08h5.16c0.41,1.06.85,2,1.14,3,0.37,1.27,1.07,1.44,2.36.82l-4.65-14.42h-2.32ZM128.75,299.31l-4.81-14.79-2.27.15-4.73,14.6a3.55,3.55,0,0,0,1.22.05c0.7-1.32,1.33-2.68,2-4.16h4.58C126.47,296.31,125.3,299.4,128.75,299.31Zm348.89-1.53c-1.14,0-2.18-.07-3.21,0a2.68,2.68,0,0,0-1,.77,2.56,2.56,0,0,0,1,.77c3.09,0.06,6.17,0,9.2,0,0.49-1.08.31-1.61-.74-1.62s-1.9,0-3,0c0-1.1,0-1.9,0-2.71,0-2.94,0-5.88,0-8.82a11.8,11.8,0,0,0-.33-1.87,4.74,4.74,0,0,0-1.19.36c-1.37,1-2.72,2-4.07,3.09-0.8.62-.64,1.35-0.27,2.34l3.65-2.49v10.11Zm-34.25,1.58c3.18,0,6.34.06,9.5,0,0.88,0,.85-0.77.29-1.53-0.51,0-1.08,0-1.64,0s-1.23-.1-1.93-0.17c0-4.47,0-8.75,0-13.16a3.87,3.87,0,0,0-1.28.2c-1.45,1-2.89,2.11-4.27,3.25-0.61.51-.53,1.23,0,2.12l3.51-2.59v10.36c-0.91,0-1.71,0-2.51,0S443.12,297.65,443.39,299.36ZM147.12,286.28c0,4.09,0,7.84,0,11.59,0,1.52.12,1.55,2.21,1.08V286.27h3.94v-1.64H143.16v1.65h4Zm71.56-1.54c1,1.71,1.84,3.37,2.86,4.92a10.42,10.42,0,0,1,2,7.33,16.1,16.1,0,0,0,0,2.15,4.59,4.59,0,0,0,.88.21,6.55,6.55,0,0,0,.92-0.12,2.41,2.41,0,0,0,.19-0.79c-0.67-4,.83-7.31,3-10.47a15,15,0,0,0,1-1.69c0.24-.47.4-1,0.6-1.49-1.33-.6-1.77.25-2.23,1-1,1.67-2,3.34-3.11,5.29-1.14-1.95-2.15-3.61-3.08-5.31A2.15,2.15,0,0,0,218.68,284.74Zm57.89,14.53v-13a27.35,27.35,0,0,0,3.14,0,2.57,2.57,0,0,0,.94-0.85,2.47,2.47,0,0,0-.95-0.84c-2.86-.07-5.72-0.1-8.57,0-1,0-1,.82-0.7,1.66l4.12,0.2v12.86h2Zm17.13-14.72v14.67h8.65l-0.11-1.76h-6.71V284.65ZM140.32,286.3c0.2-1,.29-1.72-0.8-1.72-2.85,0-5.69,0-8.54.1-1.1,0-1.09.67-.74,1.55l4,0.18v12.82h2V286.3h4.06ZM382.7,299.21V284.89c-1.87-.42-2-0.39-2,0.9,0,4.07,0,8.15,0,12.23C380.64,299.5,381.47,299.53,382.7,299.21Zm-185-60.33v4.71h6.92v-4.71h-6.92Zm151.9,62.66a3,3,0,0,0,.5-1.07q0-9.64,0-19.28a4.2,4.2,0,0,0-.59-1.3C348.84,281.67,348.68,298.22,349.64,301.53Z" transform="translate(-1.37 -199.49)" style="fill:#fbfcfc"/><path d="M42.54,200c-3.37,6.38-3.26,13-1.1,19.65,1.91,5.88,3.94,11.72,5.84,17.61a40.72,40.72,0,0,1,2.19,16.13c-0.36,4.18-2,7.75-5.69,10a6.05,6.05,0,0,1-2.94.9q-16.16.1-32.32,0c-3.58,0-5.71-1.6-6.73-4.84q0-26.32.05-52.63a2.76,2.76,0,0,0-.47-1v-1.47c1.34-1.8,2.55-3.74,4.91-4.41Z" transform="translate(-1.37 -199.49)" style="fill:#018165"/><path d="M130.84,199.49c0.82,0.32,1.66.61,2.45,1a8.42,8.42,0,0,1,4.48,4.88l-6.17,1.92a4.15,4.15,0,0,0-4.44-2.39c-0.82.1-1.71,0.35-1.79,1.35s0.79,1.35,1.59,1.54c1.58,0.38,3.2.66,4.77,1.06a17.25,17.25,0,0,1,2.75,1c5,2.24,4.74,9,1.62,11.76-4,3.53-12.31,3.83-16.43.41-1.65-1.37-2.33-2.48-3-5.08l6.71-1.25a4.72,4.72,0,0,0,5.17,2.89,4.08,4.08,0,0,0,1.39-.39,1.12,1.12,0,0,0,.11-2.1,8.31,8.31,0,0,0-2.27-.83c-1.57-.42-3.2-0.65-4.73-1.19-3.91-1.37-5.45-3.76-5.22-7.31a7.23,7.23,0,0,1,6.52-6.82l1.6-.44h4.9Z" transform="translate(-1.37 -199.49)" style="fill:#068468"/><path d="M356.9,199.49h6.87l0.07,0.56-3.06,11.71a6,6,0,0,1-1-2.1L357,199.9A1.06,1.06,0,0,0,356.9,199.49Z" transform="translate(-1.37 -199.49)" style="fill:#f4f9f8"/><path d="M403.49,199.49h6.87a1,1,0,0,0-.07.37l-6.35,9-0.47-.16q0-4.35,0-8.7Z" transform="translate(-1.37 -199.49)" style="fill:#eff7f5"/><path d="M1.37,205.87a2.76,2.76,0,0,1,.47,1q0,26.32-.05,52.63a0.68,0.68,0,0,1-.42-0.18V205.87Z" transform="translate(-1.37 -199.49)" style="fill:#11896f"/><path d="M42.54,200L6.28,200v-0.5H42.57Z" transform="translate(-1.37 -199.49)" style="fill:#86c3b6"/><path d="M90.62,199.49q0,0.2.06,0.39c-0.48,0-1,.09-1.45.09H55.31a1.32,1.32,0,0,0,0-.48H90.62Z" transform="translate(-1.37 -199.49)" style="fill:#87a9ca"/><path d="M6.28,199.49V200c-2.36.67-3.57,2.61-4.91,4.41v-4.9h4.9Z" transform="translate(-1.37 -199.49)" style="fill:#f4f9f8"/><path d="M363.84,200l-0.07-.56h9.81a1,1,0,0,1,0,.46Z" transform="translate(-1.37 -199.49)" style="fill:#86c3b6"/><path d="M356.9,199.49a1.06,1.06,0,0,1,.06.41l-9.42,0a0.92,0.92,0,0,1,0-.44h9.32Z" transform="translate(-1.37 -199.49)" style="fill:#78bcad"/><path d="M234.31,199.49l-0.07.54-6.85-.11a0.88,0.88,0,0,1,.05-0.43h6.87Z" transform="translate(-1.37 -199.49)" style="fill:#78bcad"/><path d="M403.49,199.49l0,0.51-6.87-.05a1,1,0,0,1,0-.46h6.87Z" transform="translate(-1.37 -199.49)" style="fill:#86c3b6"/><path d="M410.29,199.86a1,1,0,0,1,.07-0.37h6.37l0,0.52Z" transform="translate(-1.37 -199.49)" style="fill:#86c3b6"/><path d="M147,200a2.57,2.57,0,0,0,0-.47h2q0,0.24,0,.48Z" transform="translate(-1.37 -199.49)" style="fill:#beded7"/><path d="M125.93,199.49l-1.6.44a0.82,0.82,0,0,0,.13-0.44h1.47Z" transform="translate(-1.37 -199.49)" style="fill:#11896f"/><path d="M55.31,200H89.23c0.48,0,1-.06,1.45-0.09,3.92,1.2,5.5,3.23,5.5,7.29,0,16.57-.06,33.15.05,49.72a7.18,7.18,0,0,1-7.45,7.5c-10.29-.14-20.57,0-30.86-0.05-0.48,0-1,0-1.43-.07a1.49,1.49,0,0,1,0-.56c4-7.1,4.08-14.74,2.4-22.34-1.39-6.26-3.55-12.36-5.5-18.48a60.27,60.27,0,0,1-2.81-11.37C50.05,206.83,51.18,202.78,55.31,200Z" transform="translate(-1.37 -199.49)" style="fill:#014a90"/><path d="M347.54,199.93l9.42,0,2.86,9.76a6,6,0,0,0,1,2.1L363.84,200l9.76-.1q0.06,9.88.11,19.75c0,1.36,0,2.72,0,4.2h-7V209.31l-0.08-1.62h-0.22l-0.17,1.62-3.84,14.62h-4.83l-4.2-15.78-0.31,0v15.68h-5.72c0-.49-0.07-0.88-0.07-1.27q0-10.64,0-21.29A6.76,6.76,0,0,1,347.54,199.93Z" transform="translate(-1.37 -199.49)" style="fill:#038366"/><path d="M283.19,258.17v5.06c-3,1.11-5.85.48-8.64-1.22a12.78,12.78,0,0,1-8.67,1.7,13.72,13.72,0,0,1-4.62-1.42,6.58,6.58,0,0,1-.36-11.49c0.66-.43,1.38-0.79,2.11-1.2-0.47-1-1-2-1.29-3a5.31,5.31,0,0,1,2.62-6.66,10.53,10.53,0,0,1,9.68-.2,5.78,5.78,0,0,1,1,9.64,26.77,26.77,0,0,1-2.21,1.53l2.24,2.38,1.93-4,6,0.68c-0.28,3.08-1.79,5.34-3.82,7.79ZM266.7,253.3c-1.69,1.51-2,2.88-1.2,4.07s3,1.43,5,.17c-0.69-.8-1.36-1.6-2.06-2.38C267.94,254.57,267.37,254,266.7,253.3Zm3.1-6.14c1.77-1.49,2-2.41,1-3.41a1.71,1.71,0,0,0-2.4,0C267.57,244.62,268,245.66,269.8,247.17Z" transform="translate(-1.37 -199.49)" style="fill:#068468"/><path d="M317.91,250.18v13.21l-3.54.17-1.2-2.2c-6.84,5.23-15.46,1.9-17.11-6.48a14.53,14.53,0,0,1,2.46-12.07c2.82-3.76,6.84-4.49,11.2-3.82a9.13,9.13,0,0,1,7.91,7,6.67,6.67,0,0,1,.08,1.32l-6.9.74a16.53,16.53,0,0,0-.85-2.11,2.84,2.84,0,0,0-5-.35c-1.53,2-1.62,8.85-.15,10.85a3.45,3.45,0,0,0,3.66,1.4c1.38-.25,1.93-0.93,2.26-2.8l-3.84-.17c0-.87,0-1.67,0-2.46s0-1.46,0-2.15A43.22,43.22,0,0,1,317.91,250.18Z" transform="translate(-1.37 -199.49)" style="fill:#078569"/><path d="M139,247.37l-1.62.16-5.38.54c-0.33-.77-0.56-1.46-0.9-2.09a2.88,2.88,0,0,0-5.15-.21,1.76,1.76,0,0,0-.25.42,13.84,13.84,0,0,0,0,9.81,3.37,3.37,0,0,0,4.09,1.86c1.27-.33,1.74-1,2-2.74l-3.66-.26v-4.81H139v13.22h-3.6l-1-1.88a2.74,2.74,0,0,0-.63.28,10.15,10.15,0,0,1-15.4-3.43,15,15,0,0,1,.54-14.33c2.26-4,6.92-5.88,11.84-4.95S138,242.24,139,247.37Z" transform="translate(-1.37 -199.49)" style="fill:#068468"/><path d="M302.32,202.07L302,206.56l-3.53.43c0.43,0.64.76,1.07,1,1.53,1.87,3,.81,6.46-2.53,7.55a26.78,26.78,0,0,1-5.53.72c-0.93.09-2-.19-2.65,0.86,0.6,1,1.55.84,2.39,0.88,1.79,0.08,3.6,0,5.38.19,3.08,0.28,4.78,1.63,5.46,4.1,0.89,3.23-.84,6.11-4.46,6.9a28,28,0,0,1-12.15,0,7.3,7.3,0,0,1-1.38-.48c-3-1.35-3.47-4.1-1.09-6.45a1.82,1.82,0,0,1,.29-0.25c-0.26-1.5-.91-2.91-0.6-4.06s1.58-2.13,2.49-3.26a0.34,0.34,0,1,1,0,0c-3.68-3.54-2.63-7.8,2.33-9.15a14.66,14.66,0,0,1,7.4-.26c0.7-1.5,1.11-3.29,3-3.86A6.39,6.39,0,0,1,302.32,202.07ZM291.46,224v-0.12a19.19,19.19,0,0,0-2.67,0,4.5,4.5,0,0,0-1.38.75c0.37,0.46.69,1.28,1.1,1.33a44.58,44.58,0,0,0,6,.32,1.81,1.81,0,0,0,1.15-1.26c0.13-.79-0.6-1-1.31-1C293.41,224,292.44,224,291.46,224Zm-1.75-12.69a2,2,0,1,0,4-.12,1.81,1.81,0,0,0-1.95-2A1.85,1.85,0,0,0,289.71,211.31Z" transform="translate(-1.37 -199.49)" style="fill:#078569"/><path d="M410.29,199.86L416.7,200l-5.82,8.72,7.49,15.12H410.1L406,215c-1,1.41-2.25,2.39-2.42,4a46,46,0,0,0,0,4.82h-7a10,10,0,0,1-.12-1.12q0-10.9,0-21.8a8,8,0,0,1,.11-1l6.87,0.05v8.7l0.47,0.16Z" transform="translate(-1.37 -199.49)" style="fill:#038366"/><path d="M227.39,199.92l6.85,0.11v7.37c0.65-.45,1.06-0.76,1.49-1a6.07,6.07,0,0,1,8.37,1.94,12.31,12.31,0,0,1,.1,12.78c-2,3.57-7.16,4.45-10.51,2.06-0.52-.37-1-0.8-1.58-1.28l-1,2.07h-3.83a9.17,9.17,0,0,1-.21-1.39q0-10.64,0-21.28A6.63,6.63,0,0,1,227.39,199.92Zm6.91,14.87h0.09a28.1,28.1,0,0,0,0,3.4,1.79,1.79,0,0,0,1.79,1.69,1.93,1.93,0,0,0,2-1.52,12,12,0,0,0,0-6.73,2,2,0,0,0-3.86.47C234.26,213,234.3,213.9,234.3,214.8Z" transform="translate(-1.37 -199.49)" style="fill:#048367"/><path d="M234.19,251.85c1.76-2,3.18-3.56,4.5-5.19a2.72,2.72,0,0,1,2.49-1.21c1.44,0.09,2.88,0,4.82,0l-5.28,6.19,5.95,11.74h-7.41L236,256.68c-2.76,1.7-1.29,4.41-1.95,6.68h-6.84v-24c2.2-.44,4.46-0.1,7-0.24v12.68Z" transform="translate(-1.37 -199.49)" style="fill:#098569"/><path d="M393.66,245.47l-5.26,6.2,5.87,11.59h-7.34l-3.21-6.59c-2.78,1.59-1.41,4.31-1.94,6.57h-6.71V239.38h6.77v12l0.4,0.21c0.92-1.09,1.83-2.18,2.76-3.26,2.46-2.84,2.46-2.84,6.16-2.83h2.52Z" transform="translate(-1.37 -199.49)" style="fill:#048366"/><path d="M478.38,223.92h-7.15c0-2,0-4,0-5.9s0-3.92-.05-5.88a1.36,1.36,0,0,0-1.29-1.51,1.59,1.59,0,0,0-1.91,1.14,8.73,8.73,0,0,0-.23,2.17c0,3.26,0,6.51,0,9.92h-7.08V206h6.51l0.2,1.57a1.59,1.59,0,0,0,.57-0.25,5.7,5.7,0,0,1,4.62-1.83c3.52,0,5.63,1.79,5.78,5.3C478.52,215.1,478.38,219.42,478.38,223.92Z" transform="translate(-1.37 -199.49)" style="fill:#0a866b"/><path d="M186.55,223.9a5.7,5.7,0,0,1-.82.11h-5.47l-0.48-1.77a2,2,0,0,0-.57.25c-2.27,2.11-4.92,2.37-7.75,1.49a5,5,0,0,1-3.69-4.15,4.84,4.84,0,0,1,2.12-5.13,18,18,0,0,1,4.7-1.9,37.85,37.85,0,0,1,4.67-.72,1.38,1.38,0,0,0-.88-2.07c-1.28-.54-2.44,0-4,1.87l-6.09-.65c0.73-3.12,2.78-4.56,5.44-5.26a16.8,16.8,0,0,1,8,0c3.13,0.69,4.68,2.59,4.79,5.88,0.07,2.12,0,4.25,0,6.37C186.55,220.06,186.55,221.92,186.55,223.9Zm-6.86-8.41c-1.55.39-2.83,0.46-3.81,1.43a1.69,1.69,0,0,0-.6,2.13,1.84,1.84,0,0,0,2,1,2.17,2.17,0,0,0,2.06-1.74C179.52,217.56,179.54,216.76,179.69,215.49Z" transform="translate(-1.37 -199.49)" style="fill:#078468"/><path d="M499.3,223.9h-6.36l-0.49-1.65a1.27,1.27,0,0,0-.52.11c-2.2,2.22-4.82,2.51-7.66,1.66a4.87,4.87,0,0,1-3.83-4.26,5.33,5.33,0,0,1,2.7-5.58c2.22-1.35,4.77-1.53,7.26-1.91,0.55-.08,1.11-0.12,1.63-0.18,0.32-1.08-.09-1.82-1-2s-2.15-.22-2.49.24c-1.59,2.12-3.6,1.28-5.53,1.13-0.64-.05-1.27-0.18-2-0.29a6,6,0,0,1,4.06-4.78,15.32,15.32,0,0,1,10.07-.24c2.75,0.83,3.92,2.53,4,5.45,0,2.36,0,4.73,0,7.09C499.13,220.42,499.23,222.11,499.3,223.9Zm-7-8.61a33.44,33.44,0,0,0-3.65,1.55,1.69,1.69,0,0,0-.64,2.35,1.66,1.66,0,0,0,2.31.75A4.44,4.44,0,0,0,492,218.1C492.33,217.52,492.17,216.69,492.26,215.29Z" transform="translate(-1.37 -199.49)" style="fill:#078468"/><path d="M322.08,216.49H310.51c0,2.08.35,2.68,1.57,3,1.82,0.53,2.94-.42,3.67-1.77H322a4.48,4.48,0,0,1-1.75,4c-2.68,2.62-6,3.1-9.54,2.56-5.5-.84-8.76-5.19-7.81-10.92,1-6.09,6.33-8.29,11.19-7.79S323.15,210.12,322.08,216.49Zm-7-3.84c-0.35-2.2-1.1-3-2.61-2.84s-2,1-1.92,2.84h4.54Z" transform="translate(-1.37 -199.49)" style="fill:#098569"/><path d="M437.74,216.54h-11.6c-0.06,1.95.3,2.63,1.46,3,1.45,0.46,2.5-.06,3.7-1.76h6.52a6.69,6.69,0,0,1-3.57,5.19,11.57,11.57,0,0,1-11.89-.16,8.89,8.89,0,0,1-4-9.1c0.69-3.83,2.75-6.64,6.6-7.71a12,12,0,0,1,4.59-.39C435.28,206.32,438.2,210.2,437.74,216.54Zm-7.19-3.87c-0.29-2.24-.75-2.81-2.16-2.87s-2.17.63-2.54,2.87h4.7Z" transform="translate(-1.37 -199.49)" style="fill:#098569"/><path d="M258.86,224l-0.42-2.05a6.79,6.79,0,0,1-4.79,2.48c-3.73.21-5.89-1.64-6-5.39-0.11-3.18,0-6.36-.05-9.54,0-1.13,0-2.25,0-3.5h7.22c0,1.12,0,2.23,0,3.35q0,4,0,8.07c0,0.91.28,1.65,1.31,1.73a1.63,1.63,0,0,0,1.84-1.29,12,12,0,0,0,.34-2.65c0-3,0-6,0-9.19h6.94c0.13,2.88,0,5.86.06,8.83s0,5.87,0,8.82a2.16,2.16,0,0,1-.69.31C262.74,224,260.87,224,258.86,224Z" transform="translate(-1.37 -199.49)" style="fill:#068468"/><path d="M457.81,224h-7c-0.05-.65-0.15-1.27-0.15-1.9,0-3.18,0-6.37,0-9.55,0-1-.2-1.82-1.41-1.88a1.76,1.76,0,0,0-1.94,1.51,10.28,10.28,0,0,0-.13,2.19c0,3.16,0,6.32,0,9.58h-6.86V206h6.28l0.21,1.65a1.68,1.68,0,0,0,.63-0.24c2.16-2.3,4.76-2.2,7.45-1.31a3.84,3.84,0,0,1,2.47,2.55,7.16,7.16,0,0,1,.45,2.14C457.83,215.09,457.81,219.4,457.81,224Z" transform="translate(-1.37 -199.49)" style="fill:#068468"/><path d="M194.63,263.31h-7v-2.91c0-2.69,0-5.39,0-8.08,0-1.61-.56-2.32-1.57-2.33s-1.85.84-1.88,2.38c-0.06,2.77,0,5.55,0,8.32,0,0.8,0,1.6,0,2.54h-7.08V245.62h6.44l0.35,1.27a0.68,0.68,0,0,0,.36,0,5.86,5.86,0,0,1,4.62-1.83c3.82,0,5.74,1.84,5.79,5.68C194.67,254.85,194.63,259,194.63,263.31Z" transform="translate(-1.37 -199.49)" style="fill:#058467"/><path d="M339.29,255.88H327.52c0.08,2.15.49,2.81,1.83,3.17s2.33-.16,3.67-2.12l6.23,0.47a5.77,5.77,0,0,1-2.13,4.05c-3.74,3.49-11.68,3.22-15-.58a9.15,9.15,0,0,1-1.7-9.81,8.92,8.92,0,0,1,7.7-5.93,10.06,10.06,0,0,1,7.47,1.56C338.69,248.9,339.61,252,339.29,255.88Zm-7.06-3.69c-0.29-2.22-1.27-3.23-2.78-3s-2,1.21-1.75,3h4.53Z" transform="translate(-1.37 -199.49)" style="fill:#068468"/><path d="M141.62,245.54h6.82c0.06,0.66.17,1.28,0.17,1.9,0,2.53,0,5.06,0,7.6,0,0.65.06,1.3,0.13,1.95,0.09,0.86.39,1.81,1.37,1.68a3,3,0,0,0,1.79-1.38,4.39,4.39,0,0,0,.33-2.13c0-3.1,0-6.2,0-9.48h6.94v17.6h-6.42l-0.48-1.64a6.93,6.93,0,0,1-6.11,2.16c-2.71-.29-4.42-1.87-4.51-4.57-0.13-3.75,0-7.51-.05-11.27C141.62,247.21,141.62,246.49,141.62,245.54Z" transform="translate(-1.37 -199.49)" style="fill:#038366"/><path d="M224.74,210.36c-1.72.33-3.21,0.69-4.71,0.85a3.17,3.17,0,0,1-1.42-.74,3.85,3.85,0,0,0-4.61.15,3.54,3.54,0,0,0,2.69,1.17,46,46,0,0,1,4.78.86,5,5,0,0,1,4,4.39,5.31,5.31,0,0,1-2.94,5.92,13.19,13.19,0,0,1-11.78.31,6.2,6.2,0,0,1-3.61-4.41c1.67-.25,3.22-0.56,4.78-0.67a2.64,2.64,0,0,1,1.34.81,4.75,4.75,0,0,0,5.79,0c-0.27-.87-1-0.87-1.74-1-1.6-.29-3.22-0.51-4.79-0.9-2.92-.73-4.48-2.44-4.68-4.95a5.75,5.75,0,0,1,3.75-5.75,11.71,11.71,0,0,1,9.73.12A5.73,5.73,0,0,1,224.74,210.36Z" transform="translate(-1.37 -199.49)" style="fill:#088569"/><path d="M205.67,210.37c-1.72.33-3.2,0.69-4.71,0.85a3.14,3.14,0,0,1-1.42-.73,4.07,4.07,0,0,0-4.65.08,3.33,3.33,0,0,0,2.69,1.23,38.09,38.09,0,0,1,4.79.86c2.59,0.73,3.88,2.34,4.06,4.61,0.22,2.63-.7,4.66-3.14,5.81a13.32,13.32,0,0,1-11.57.2,6.6,6.6,0,0,1-3.68-4.4c1.76-.26,3.39-0.53,5-0.7a1.77,1.77,0,0,1,1,.57c1.88,1.57,3.69,1.7,6.25.19a8.58,8.58,0,0,0-1.71-.84c-1.67-.37-3.38-0.56-5-1-2.92-.71-4.52-2.43-4.73-4.91a5.85,5.85,0,0,1,3.94-5.87,11.93,11.93,0,0,1,9.29.07C203.82,207.15,204.64,208.09,205.67,210.37Z" transform="translate(-1.37 -199.49)" style="fill:#098569"/><path d="M372.87,249.74l-3.92.75a3.09,3.09,0,0,1-2.71-.55c-1.39-1.05-2.92-.8-4.42.34,1,1.05,2.38.9,3.62,1.13a30.06,30.06,0,0,1,4.06.79,5.18,5.18,0,0,1,3.83,4.87,5.28,5.28,0,0,1-3.1,5.39,14,14,0,0,1-11.39.44c-2-.73-3.09-2.17-3.91-4.59l5-.79c2.69,2.26,4.79,2.55,6.85.86-0.63-.91-1.61-0.9-2.55-1.07a42.85,42.85,0,0,1-4.77-1,5.11,5.11,0,0,1-3.91-4.53,5.43,5.43,0,0,1,2.56-5.22c3.08-2.22,9.33-2.11,12.26.29A22.5,22.5,0,0,1,372.87,249.74Z" transform="translate(-1.37 -199.49)" style="fill:#078468"/><path d="M395.2,269.53v-4.87c1.08,0,2.11,0,3.14,0,2.14-.12,2.59-0.75,1.83-2.77-1.75-4.64-3.56-9.26-5.33-13.9-0.28-.73-0.53-1.47-0.87-2.4h7.65l2.63,8.37,0.42,0.08,2.87-8.43h5.23c-1.05,2.93-2.05,5.74-3.07,8.55-1.22,3.36-2.46,6.72-3.69,10.09-1.62,4.44-3.28,5.57-8,5.43C397.07,269.64,396.19,269.58,395.2,269.53Z" transform="translate(-1.37 -199.49)" style="fill:#058467"/><path d="M394.18,212.7c-0.85.14-1.57,0.31-2.29,0.37-1.21.1-2.43,0.13-3.71,0.2a11.94,11.94,0,0,0-.61-1.68,1.72,1.72,0,0,0-3.12,0,8.38,8.38,0,0,0,0,6.68,1.85,1.85,0,0,0,3.22.24,13,13,0,0,0,.94-1.84l5.76,0.58c-0.41,5.08-4.73,7.61-9.68,7.2s-8.34-4.39-8.19-9.78a8.92,8.92,0,0,1,8.94-9.12C390.57,205.3,394.34,208.86,394.18,212.7Z" transform="translate(-1.37 -199.49)" style="fill:#078569"/><path d="M225.14,252.24l-6,.51a16.16,16.16,0,0,0-.72-1.67,1.72,1.72,0,0,0-3.13-.13c-0.86,1.29-.86,5.63,0,6.89a1.86,1.86,0,0,0,3.11.23,11.37,11.37,0,0,0,1-1.84l5.47,0.33a6.72,6.72,0,0,1-5.89,7.07c-3.61.61-7.1,0.27-9.57-2.9a9.89,9.89,0,0,1-1.3-10.39c2.39-5.92,10.51-6.87,14.68-3.13A6.71,6.71,0,0,1,225.14,252.24Z" transform="translate(-1.37 -199.49)" style="fill:#068468"/><path d="M354.78,243.5c-1.86.73-4.62-1.3-5.29,2.34l4.54,0.27v4.32h-4.41v12.82h-6.89V250.68l-2.53-.34v-4.12l2.35-.42,0.1-1.16c0.32-3.75,2.18-5.68,5.94-5.79a58.23,58.23,0,0,1,6.18.45v4.21Z" transform="translate(-1.37 -199.49)" style="fill:#038366"/><path d="M147,200l2,0v5.73l3.67,0.28v4.59l-3.54.26c0,2,0,3.91,0,5.84s0.4,2.34,2.48,2.33h1c0.06,0.5.14,0.89,0.15,1.28,0,1.13,0,2.26,0,3.54-1.65.22-3.15,0.54-4.67,0.61a5.42,5.42,0,0,1-6-5.62c0-1.3,0-2.61,0-3.91s0-2.59,0-4.06l-2.45-.28V206l2.71-.3,0.61-5.53Z" transform="translate(-1.37 -199.49)" style="fill:#078468"/><path d="M171.09,250.17c0,2.16,0,4.12,0,6.07s0.22,2.15,2.31,2.15c0.31,0,.61,0,1,0v4.83a13.44,13.44,0,0,1-5.74.6,5,5,0,0,1-4.57-4.91c-0.1-2,0-4.08,0-6.12,0-.8,0-1.6,0-2.55l-2.59-.26v-4.27l2.68-.31c0.14-.84.32-1.76,0.43-2.69s0.15-1.77.23-2.9l6.23-.4v6.11h3.39v4.44Z" transform="translate(-1.37 -199.49)" style="fill:#048366"/><path d="M166.77,211.69c-4.2.38-4.6,0.8-4.63,5,0,2.36,0,4.71,0,7.22h-7V206H161l0.31,2.37c1.19-2.34,2.89-3.25,5.43-2.7v6Z" transform="translate(-1.37 -199.49)" style="fill:#0a866b"/><path d="M268.85,205.92h5.88l0.39,2.37c1.2-2.16,2.81-3.2,5.29-2.63v6c-0.38,0-.83.12-1.28,0.16-2.31.24-3.13,1.07-3.17,3.46-0.05,2.83,0,5.66,0,8.61h-7.09v-18Z" transform="translate(-1.37 -199.49)" style="fill:#088569"/><path d="M336.2,211.73c-0.29,0-.52.09-0.74,0.1-3,.15-3.7.84-3.72,3.84,0,2.68,0,5.35,0,8.18h-7.21c-0.05-2.9,0-5.87,0-8.85s0-5.86,0-9h5.93l0.21,2.36c1.39-2,2.91-3.5,5.57-2.71v6Z" transform="translate(-1.37 -199.49)" style="fill:#078569"/><path d="M204.68,245.59v17.75a35.11,35.11,0,0,1-7,.09V245.59h7Z" transform="translate(-1.37 -199.49)" style="fill:#0a866b"/><path d="M335.65,284.68c-0.88,3.73-1.7,7.2-2.52,10.67-0.23.95-.53,1.88-0.71,2.84a1.2,1.2,0,0,1-1.27,1.18,1.27,1.27,0,0,1-1.31-1.17c-0.83-3-1.69-5.95-2.64-9.3a15.26,15.26,0,0,0-.71,1.68c-0.66,2.44-1.27,4.89-1.94,7.32-0.39,1.4-.43,1.39-2.44,1.27l-3.62-14.32c1.95-.28,2-0.3,2.37,1.18,0.81,3.15,1.56,6.31,2.47,10,0.8-3,1.46-5.49,2.12-8a18.77,18.77,0,0,1,.63-2.35,2,2,0,0,1,1-1.15c0.86-.26,1.07.57,1.25,1.17,0.54,1.79,1,3.6,1.53,5.4l1.34,4.82c0.48-1.91.85-3.31,1.17-4.71,0.42-1.83.78-3.67,1.21-5.49C333.83,284.76,333.88,284.78,335.65,284.68Z" transform="translate(-1.37 -199.49)" style="fill:#165999"/><path d="M388.41,284.81c1.72-.6,2.64-0.25,3.36,1.08,1.52,2.78,3.17,5.5,4.78,8.23,0.27,0.47.58,0.91,1.18,1.84V284.61h1.66v14.51c-1.26.72-2,.1-2.68-1q-2.69-4.65-5.41-9.28a2,2,0,0,0-1-.91v11.17c-1.83.18-1.88,0.18-1.9-1.28,0-3.26,0-6.52,0-9.78v-3.21Z" transform="translate(-1.37 -199.49)" style="fill:#24639f"/><path d="M174.11,284.51c2,0,3.88,0,5.74,0,2.25,0.05,3.85,1.12,4.39,2.84,0.61,2,0,3.54-2,5a2.78,2.78,0,0,0-.36.43l2.57,6.2c-1.31.66-2,.34-2.48-0.77-0.71-1.71-1.45-3.42-2.17-5.11H176v6l-1.84.15V284.51Zm1.79,6.73c1.66,0,3,.1,4.4,0a2.38,2.38,0,0,0,2.09-2.57,2.24,2.24,0,0,0-2.1-2.29c-1.42-.12-2.86,0-4.39,0v4.92Z" transform="translate(-1.37 -199.49)" style="fill:#185a9a"/><path d="M189.57,284.75c1.47-.5,2.39-0.23,3.13,1.11a98.21,98.21,0,0,0,5.89,9.45q0-2.93,0-5.85c0-1.22-.07-2.45,0-3.67a1.58,1.58,0,0,1,.81-1.19c0.89-.16,1,0.57,1,1.28,0,4.39,0,8.79,0,13.23a1.81,1.81,0,0,1-2.67-1c-1.84-3.26-3.76-6.48-5.66-9.71l-0.9-1.53V299c-0.84.54-1.4,0.55-1.59-.36a7.22,7.22,0,0,1,0-1.46C189.57,293.09,189.57,289,189.57,284.75Z" transform="translate(-1.37 -199.49)" style="fill:#185a9a"/><path d="M488.31,296.77c0.72-.71,1.25-0.84,2-0.26,3,2.35,5.34,1.55,6.44-2.15,0.16-.53.26-1.07,0.47-2-1.56,1-2.69,1.94-4.36,1.84-2.63-.15-4.55-1.67-4.88-4.19a5.16,5.16,0,0,1,3.8-5.54c2.66-.49,5.14,0,6.42,3.09a10.42,10.42,0,0,1-.56,9.4,5,5,0,0,1-5.15,2.56A4.71,4.71,0,0,1,488.31,296.77Zm8.41-7.42A3.36,3.36,0,0,0,493.3,286a3.45,3.45,0,0,0-3.42,3.16,3.35,3.35,0,0,0,3.28,3.5A3.52,3.52,0,0,0,496.71,289.35Z" transform="translate(-1.37 -199.49)" style="fill:#155899"/><path d="M458,296.33c0.88,0,1.61-.2,1.81,0,1.27,1.54,2.8,2.05,4.55,1.15s2.19-2.85,2.38-4.55a19.92,19.92,0,0,1-4.07,1.16,4.59,4.59,0,0,1-5-4.57,5.1,5.1,0,0,1,4.55-5.18c3.11-.3,5.21,1.08,6.06,4.09a10.89,10.89,0,0,1-.65,8.09,5.07,5.07,0,0,1-4.93,3A4.68,4.68,0,0,1,458,296.33Zm5.09-3.7A3.34,3.34,0,1,0,463,286a3.33,3.33,0,0,0-3.23,3.56A3.16,3.16,0,0,0,463.09,292.63Z" transform="translate(-1.37 -199.49)" style="fill:#155899"/><path d="M429.92,286.33h-7.23v4.35h5.45a2.53,2.53,0,0,1,.14,1.22,1.85,1.85,0,0,1-1.19.6c-1.44.07-2.89,0-4.43,0v5h7.15c0.36,1.16.41,1.89-1,1.88-2.68,0-5.36,0-8,0-0.54-1.8-.69-10.65-0.26-14.77,1.46,0,3-.08,4.48-0.1s3.07,0,4.74,0Z" transform="translate(-1.37 -199.49)" style="fill:#1b5d9c"/><path d="M156.48,292.13a32,32,0,0,1,1.29-4.51,5.14,5.14,0,0,1,5-3.27,5.38,5.38,0,0,1,5.26,3.31,9.65,9.65,0,0,1-.27,8.94,5.28,5.28,0,0,1-5,3,5.13,5.13,0,0,1-4.94-3A29.13,29.13,0,0,1,156.48,292.13ZM167,291.7a18,18,0,0,0-1.07-3.72,3.4,3.4,0,0,0-6.12,0,8.27,8.27,0,0,0,0,8,3.33,3.33,0,0,0,3.15,2,3.21,3.21,0,0,0,3-2.14A32.25,32.25,0,0,0,167,291.7Z" transform="translate(-1.37 -199.49)" style="fill:#155899"/><path d="M244.59,288l-1.61.52c-1-1.86-2.46-2.84-4.62-2.4-1.33.27-2.07,1-2.11,2-0.05,1.24.81,1.72,1.78,2,1.24,0.38,2.53.62,3.78,1,2.23,0.68,3.33,2.06,3.29,4a4.42,4.42,0,0,1-3.53,4.17c-2.77.6-7,.11-7.79-4,0.75-.38,1.41-0.64,2,0.39,1.15,2.09,3.09,2.19,5.12,1.89a2.44,2.44,0,0,0,2.15-2.07,2.22,2.22,0,0,0-1.77-2.34c-1.24-.41-2.54-0.63-3.78-1-2.32-.72-3.4-2.23-3.17-4.28a4.11,4.11,0,0,1,3.83-3.53C241.1,284,243.08,285,244.59,288Z" transform="translate(-1.37 -199.49)" style="fill:#155899"/><path d="M364.4,295.39c0.77-.43,1.44-0.66,2,0.35,1.22,2.17,3.24,2.22,5.35,1.86a2.14,2.14,0,0,0,1.87-2,2,2,0,0,0-1.45-2.26c-0.84-.31-1.73-0.47-2.58-0.73a14.3,14.3,0,0,1-2.75-.95,3.77,3.77,0,0,1-.91-5.87c2-2.28,8.4-2.15,9.09,2.14a1.18,1.18,0,0,1-2-.34,3.71,3.71,0,0,0-4.35-1.37,2,2,0,0,0-1.7,2.08,1.92,1.92,0,0,0,1.64,1.86c1.25,0.35,2.52.63,3.77,1a4.32,4.32,0,0,1,3.47,3.92,4.61,4.61,0,0,1-3.48,4.22C368.73,300.41,365.66,298.92,364.4,295.39Z" transform="translate(-1.37 -199.49)" style="fill:#155899"/><path d="M206,299.27V284.54c2.82,0,5.65,0,8.48,0,1,0,.79.82,0.59,1.73h-7v4.37h5.54l0.11,1.88h-5.65v5h7.32l0.14,1.77H206Z" transform="translate(-1.37 -199.49)" style="fill:#185a9a"/><path d="M415.32,289l-1.42.45c-0.3-.57-0.53-1.06-0.8-1.53a3.39,3.39,0,0,0-6.17.38,9.76,9.76,0,0,0-.23,6.72,3.44,3.44,0,0,0,3.12,2.72,3.3,3.3,0,0,0,3.54-2.41c0.12-.3.29-0.58,0.51-1l1.47,0.39c-0.6,3-2,4.47-4.3,4.78a5.34,5.34,0,0,1-6-3.19,9.7,9.7,0,0,1-.11-8.73,5.63,5.63,0,0,1,6.29-3.17C413.4,284.73,414.83,286.32,415.32,289Z" transform="translate(-1.37 -199.49)" style="fill:#165999"/><path d="M308.21,295.14c-1.2,1.43-.48,3.81-2.89,4.36a2.33,2.33,0,0,1-.17-0.83c1.36-4.25,2.79-8.49,4.1-12.76,0.28-.91.6-1.42,1.63-1.41a1.44,1.44,0,0,1,1.48,1.3c1.41,4.4,2.86,8.77,4.3,13.17-1.88.5-1.88,0.5-2.42-.87-0.35-.91-0.69-1.82-1-2.73a1.07,1.07,0,0,0-.27-0.22h-4.72Zm2.64-7.65c-0.82,2.05-2.07,3.83-2,6h3.92Z" transform="translate(-1.37 -199.49)" style="fill:#165999"/><path d="M261.86,284.6h2.32L268.83,299c-1.28.62-2,.46-2.36-0.82-0.29-1-.74-2-1.14-3h-5.16c-0.29,1-.63,2-0.94,3.08s-0.79,1.35-2,.83Zm1.21,2.84-0.4-.06-2,6.11h4.2Z" transform="translate(-1.37 -199.49)" style="fill:#165999"/><path d="M128.75,299.31c-3.46.09-2.28-3-4-4.15h-4.58c-0.71,1.48-1.34,2.84-2,4.16a3.55,3.55,0,0,1-1.22-.05l4.73-14.6,2.27-.15Zm-8.24-5.84h4.22l-2.08-6.59Z" transform="translate(-1.37 -199.49)" style="fill:#155899"/><path d="M477.64,297.78V287.67L474,290.16c-0.37-1-.53-1.72.27-2.34,1.35-1,2.7-2.08,4.07-3.09a4.74,4.74,0,0,1,1.19-.36,11.8,11.8,0,0,1,.33,1.87c0,2.94,0,5.88,0,8.82,0,0.8,0,1.61,0,2.71,1.13,0,2.08,0,3,0s1.23,0.55.74,1.62c-3,0-6.11,0-9.2,0a2.56,2.56,0,0,1-1-.77,2.68,2.68,0,0,1,1-.77C475.46,297.71,476.5,297.78,477.64,297.78Z" transform="translate(-1.37 -199.49)" style="fill:#24639f"/><path d="M443.39,299.36c-0.28-1.71.77-1.54,1.62-1.56s1.6,0,2.51,0V287.43L444,290c-0.51-.89-0.6-1.61,0-2.12,1.37-1.14,2.82-2.2,4.27-3.25a3.87,3.87,0,0,1,1.28-.2c0.05,4.41,0,8.7,0,13.16,0.71,0.06,1.32.14,1.93,0.17s1.13,0,1.64,0c0.56,0.76.59,1.5-.29,1.53C449.74,299.43,446.57,299.36,443.39,299.36Z" transform="translate(-1.37 -199.49)" style="fill:#1b5d9c"/><path d="M147.12,286.28h-4v-1.65h10.12v1.64h-3.94V299c-2.09.47-2.19,0.45-2.21-1.08C147.09,294.13,147.12,290.38,147.12,286.28Z" transform="translate(-1.37 -199.49)" style="fill:#155899"/><path d="M218.68,284.74a2.15,2.15,0,0,1,3,1.06c0.93,1.7,1.94,3.36,3.08,5.31,1.15-1.95,2.12-3.62,3.11-5.29,0.46-.77.89-1.62,2.23-1-0.2.51-.37,1-0.6,1.49a15,15,0,0,1-1,1.69c-2.16,3.16-3.67,6.5-3,10.47a2.41,2.41,0,0,1-.19.79,6.55,6.55,0,0,1-.92.12,4.59,4.59,0,0,1-.88-0.21,16.1,16.1,0,0,1,0-2.15,10.42,10.42,0,0,0-2-7.33C220.52,288.11,219.67,286.46,218.68,284.74Z" transform="translate(-1.37 -199.49)" style="fill:#0f5496"/><path d="M276.58,299.27h-2V286.42l-4.12-.2c-0.28-.83-0.34-1.62.7-1.66,2.86-.09,5.72-0.05,8.57,0a2.47,2.47,0,0,1,.95.84,2.57,2.57,0,0,1-.94.85,27.35,27.35,0,0,1-3.14,0v13Z" transform="translate(-1.37 -199.49)" style="fill:#0f5496"/><path d="M293.71,284.56l1.83,0.09v12.82h6.71l0.11,1.76h-8.65V284.56Z" transform="translate(-1.37 -199.49)" style="fill:#1b5d9c"/><path d="M140.32,286.3h-4.06v12.93h-2V286.4l-4-.18c-0.35-.88-0.36-1.53.74-1.55,2.85-.06,5.69-0.11,8.54-0.1C140.61,284.58,140.52,285.33,140.32,286.3Z" transform="translate(-1.37 -199.49)" style="fill:#0f5496"/><path d="M382.7,299.21c-1.23.32-2.06,0.3-2.06-1.19,0-4.08,0-8.15,0-12.23,0-1.29.17-1.32,2-.9v14.32Z" transform="translate(-1.37 -199.49)" style="fill:#1b5d9c"/><path d="M197.74,238.87h6.92v4.71h-6.92v-4.71Z" transform="translate(-1.37 -199.49)" style="fill:#11896f"/><path d="M349.64,301.53c-1-3.31-.8-19.86-0.09-21.65a4.2,4.2,0,0,1,.59,1.3q0,9.64,0,19.28A3,3,0,0,1,349.64,301.53Z" transform="translate(-1.37 -199.49)" style="fill:#038366"/><path d="M366.21,209.29l0.17-1.62h0.22l0.08,1.62-0.24,0h-0.24Z" transform="translate(-1.37 -199.49)" style="fill:#beded7"/><path d="M266.7,253.3c0.67,0.7,1.24,1.27,1.77,1.87,0.7,0.78,1.37,1.58,2.06,2.38-2.05,1.26-4.09,1.17-5-.17S265,254.81,266.7,253.3Z" transform="translate(-1.37 -199.49)" style="fill:#f4f9f8"/><path d="M269.8,247.17c-1.83-1.51-2.22-2.55-1.39-3.43a1.71,1.71,0,0,1,2.4,0C271.81,244.76,271.56,245.68,269.8,247.17Z" transform="translate(-1.37 -199.49)" style="fill:#e8eef4"/><path d="M291.46,224c1,0,1.94,0,2.92,0,0.71,0,1.44.26,1.31,1a1.81,1.81,0,0,1-1.15,1.26,44.58,44.58,0,0,1-6-.32c-0.42,0-.74-0.86-1.1-1.33a4.5,4.5,0,0,1,1.38-.75,19.19,19.19,0,0,1,2.67,0V224Z" transform="translate(-1.37 -199.49)" style="fill:#eff7f5"/><path d="M289.71,211.31a1.85,1.85,0,0,1,2.07-2.11,1.81,1.81,0,0,1,1.95,2A2,2,0,1,1,289.71,211.31Z" transform="translate(-1.37 -199.49)" style="fill:#eff7f5"/><path d="M234.3,214.8c0-.89,0-1.79,0-2.68a2,2,0,0,1,3.86-.47,12,12,0,0,1,0,6.73,1.93,1.93,0,0,1-2,1.52,1.79,1.79,0,0,1-1.79-1.69,28.1,28.1,0,0,1,0-3.4H234.3Z" transform="translate(-1.37 -199.49)" style="fill:#f4f9f8"/><path d="M179.69,215.49c-0.15,1.26-.18,2.07-0.35,2.83a2.17,2.17,0,0,1-2.06,1.74,1.84,1.84,0,0,1-2-1,1.69,1.69,0,0,1,.6-2.13C176.86,216,178.15,215.88,179.69,215.49Z" transform="translate(-1.37 -199.49)" style="fill:#eff7f5"/><path d="M492.26,215.29c-0.09,1.4.07,2.23-.23,2.81a4.44,4.44,0,0,1-1.76,1.84,1.66,1.66,0,0,1-2.31-.75,1.69,1.69,0,0,1,.64-2.35A33.44,33.44,0,0,1,492.26,215.29Z" transform="translate(-1.37 -199.49)" style="fill:#eff7f5"/><path d="M315.11,212.64h-4.54c-0.12-1.83.47-2.7,1.92-2.84S314.75,210.44,315.11,212.64Z" transform="translate(-1.37 -199.49)" style="fill:#eff7f5"/><path d="M430.55,212.67h-4.7c0.36-2.24,1-2.93,2.54-2.87S430.27,210.43,430.55,212.67Z" transform="translate(-1.37 -199.49)" style="fill:#eff7f5"/><path d="M332.23,252.19H327.7c-0.27-1.78.3-2.76,1.75-3S331.93,250,332.23,252.19Z" transform="translate(-1.37 -199.49)" style="fill:#e8eef4"/><path d="M175.9,291.25v-4.92c1.53,0,3-.1,4.39,0a2.24,2.24,0,0,1,2.1,2.29,2.38,2.38,0,0,1-2.09,2.57C178.95,291.35,177.57,291.25,175.9,291.25Z" transform="translate(-1.37 -199.49)" style="fill:#f6f9fb"/><path d="M496.71,289.35a3.52,3.52,0,0,1-3.56,3.28,3.35,3.35,0,0,1-3.28-3.5A3.45,3.45,0,0,1,493.3,286,3.36,3.36,0,0,1,496.71,289.35Z" transform="translate(-1.37 -199.49)" style="fill:#f6f9fb"/><path d="M463.09,292.63a3.16,3.16,0,0,1-3.36-3.11A3.33,3.33,0,0,1,463,286,3.34,3.34,0,1,1,463.09,292.63Z" transform="translate(-1.37 -199.49)" style="fill:#f4f9f8"/><path d="M167,291.7a32.25,32.25,0,0,1-1,4.08,3.21,3.21,0,0,1-3,2.14,3.33,3.33,0,0,1-3.15-2,8.27,8.27,0,0,1,0-8,3.4,3.4,0,0,1,6.12,0A18,18,0,0,1,167,291.7Z" transform="translate(-1.37 -199.49)" style="fill:#f6f9fb"/><path d="M310.85,287.48l1.91,6h-3.92C308.78,291.31,310,289.54,310.85,287.48Z" transform="translate(-1.37 -199.49)" style="fill:#e8eef4"/><path d="M263.07,287.45l1.85,6.06h-4.2l2-6.11Z" transform="translate(-1.37 -199.49)" style="fill:#e8eef4"/><path d="M120.51,293.47l2.15-6.59,2.08,6.59h-4.22Z" transform="translate(-1.37 -199.49)" style="fill:#e8eef4"/></svg>