<?xml version="1.0" encoding="utf-8"?>
<!-- Generator: Adobe Illustrator 18.0.0, SVG Export Plug-In . SVG Version: 6.00 Build 0)  -->
<!DOCTYPE svg PUBLIC "-//W3C//DTD SVG 1.1//EN" "http://www.w3.org/Graphics/SVG/1.1/DTD/svg11.dtd">
<svg version="1.1" id="Layer_1" xmlns="http://www.w3.org/2000/svg" xmlns:xlink="http://www.w3.org/1999/xlink" x="0px" y="0px"
	 viewBox="0 0 225 224" enable-background="new 0 0 225 224" xml:space="preserve">
<g>
	<g>
		<path fill="#3cf" d="M113.2,208.8c-54.4,0.4-97.2-45.3-95.9-99.9c1.2-51.3,47.8-95.4,98.8-94.9c53.8,0.6,99.3,48.7,96.2,102
			C209.2,170,166,211.1,113.2,208.8z M71.6,38.3c2.3-1.8,4.5-3.6,6.8-5.4c-0.2-0.4-0.4-0.8-0.6-1.2c-3.6,1.5-7.1,3-10.7,4.5
			c0.1,0.4,0.3,0.8,0.4,1.3c1.4,0.3,2.8,0.5,4.2,0.8c-2.2,2.3-4.4,4.5-6.8,7.1c2.4,0.4,4.1,0.7,6.2,1.1c-1.6,2.2-2.8,3.9-4.7,6.3
			c3.9,0,7,0,10,0c-2,2.5-4,5-6.2,7.7c7.3,1.7,12.7,0.1,16.3-6.6c-3.5-0.3-6.9-0.7-10.2-1c1.4-1.9,2.8-3.9,4.5-6.1
			c-2.9-0.3-5.5-0.5-9.1-0.8c3-2.9,5-4.8,7.9-7.6C76.1,38.3,73.8,38.3,71.6,38.3z M116.9,26.5c-4.2,1.8-7.4,3.2-11.6,4.9
			c3.7,0.9,6.2,1.5,9.4,2.3c-2.4,1.8-4.2,3.1-6.2,4.6c2.8,1,5,1.7,7.9,2.7c-1.9,1.4-3.1,2.3-4.3,3.2c-1.1,0.9-2.2,1.7-3.8,3
			c2.7,0.8,4.8,1.4,7.2,2.1c-2,2.1-3.4,3.7-5.1,5.5c10.6,4,11.9,3.8,15.6-2.3c-2.9-1.1-5.8-2.1-9.3-3.4c2.6-2.1,4.7-3.8,7-5.6
			c-2.2-1.1-3.8-1.8-5.9-2.8c2.3-1.5,4.1-2.7,6.3-4.1c-2.8-1-5.2-1.8-8.3-2.9c3.5-1.8,5.9-3,8.8-4.5c-1.9-1.1-3.3-1.8-4.9-2.6
			c2.3-0.7,4-1.3,5.8-1.8c-0.1-0.5-0.1-1-0.2-1.5c-4.6,0.3-9.2,0.6-13.8,0.8c0,0.5,0,1,0,1.4C112.9,25.7,114.3,26,116.9,26.5z
			 M84.3,45.6c4.5,0.3,7.7,0.5,11.8,0.8c-2,2.4-3.4,4-5.1,6.1c5.4,0.3,10.3,1.6,13.2-4.5c-2.4-0.4-4.4-0.8-7.4-1.4
			c3.4-2.9,5.9-5,9-7.6c-3.6-0.7-6.4-1.3-10.1-2c2.8-1.9,4.6-3,7.3-4.8c-3.3-0.5-5.6-0.9-9.4-1.5c4.4-2,7.6-3.5,10.7-5
			c-0.2-0.6-0.4-1.2-0.6-1.8c-6.1,1.8-12.2,3.6-18.3,5.4c0.1,0.4,0.2,0.8,0.3,1.3c1.8,0.2,3.6,0.5,6.4,0.8c-2.9,1.9-5,3.3-7,4.7
			c0.2,0.4,0.3,0.7,0.5,1.1c2.7,0,5.4,0,9.3,0C91,40.2,88.1,42.5,84.3,45.6z M160,56.2c-2.6-2.3-4.8-4.3-7.2-6.5
			c2.2-1.4,3.8-2.4,5.5-3.5c-2.5-2-4.5-3.6-7.1-5.6c3.3-0.9,5.6-1.5,8.2-2.2c-4.9-4.8-9.8-5.8-15.9-2.5c2.2,1.6,4.1,3,6.3,4.5
			c-2.4,1.1-4.4,2-7.2,3.3c3.4,2.2,6.1,3.9,9.1,5.8c-2,1.5-3.6,2.8-5.3,4C153.7,60,153.8,60.1,160,56.2z M133.1,39.3
			c2.8-1.4,5-2.5,7.5-3.8c-1.6-1.2-2.8-2-4.3-3.1c2.3-0.9,4.1-1.7,6.3-2.6c-7.9-4.1-9.6-4.2-14.4-0.6c2.1,1,4.1,1.9,6.8,3.2
			c-3.2,1.5-5.6,2.6-8.4,3.9c2,1.2,3.4,2.1,5,3.1c-2,1.4-3.5,2.5-5.2,3.7c7.7,5,9.4,5,14,0.4C138.2,42.1,135.9,40.9,133.1,39.3z
			 M131.9,63.8c-9.3-6.2-12.1-5.8-15.7,2C124.7,71,125.7,70.9,131.9,63.8z M148,65.4c1.9,1.6,3.8,2.9,5.4,4.5
			c4.8,4.6,5.1,4.6,9.5-1.4c-1.7-1.5-3.6-2.8-5-4.6C154.6,59.6,151.8,60.7,148,65.4z M97.4,70c9,4.2,10.8,3.8,14.2-3
			C102.1,63,100.2,63.5,97.4,70z M128.5,52.5c9.2,6.8,10.5,6.8,15.8,0.9C135.6,46.7,135.3,46.7,128.5,52.5z M117.7,78.7
			c-11-6.1-9.6-4.9-13.3,1.6C113.1,85.9,114.3,85.7,117.7,78.7z M160.9,46.8c5.8,7.6,7.4,8.2,15.2,5.5
			C170.3,44.2,168.3,43.4,160.9,46.8z M133,75.3c-7.2-4.7-8.7-4.3-11.9,3C128.3,83.2,128.9,83.1,133,75.3z M107,55.9
			c-7-2.5-10-1.3-13.6,5.2C100.7,63.6,100.7,63.6,107,55.9z M175.1,62.9c-3.7-7.5-6.6-9-11.9-5.9C170.1,65.2,171,65.6,175.1,62.9z
			 M88.9,62.9c-8.4-1.3-10-0.6-12.1,5.6C81.9,69.3,86.5,69,88.9,62.9z M82.1,75.5c7,2.5,8.9,1.8,11-3.9
			C86.9,68.9,84.6,69.7,82.1,75.5z M145,64.4c-4.8-5.7-5.9-5.8-9.7-1.3C141,68.2,141.8,68.3,145,64.4z"/>
	</g>
</g>
</svg>
