<?xml version="1.0" encoding="utf-8"?>
<!-- Generator: Adobe Illustrator 18.0.0, SVG Export Plug-In . SVG Version: 6.00 Build 0)  -->
<!DOCTYPE svg PUBLIC "-//W3C//DTD SVG 1.1//EN" "http://www.w3.org/Graphics/SVG/1.1/DTD/svg11.dtd">
<svg version="1.1" xmlns="http://www.w3.org/2000/svg" xmlns:xlink="http://www.w3.org/1999/xlink" x="0px" y="0px"
	 viewBox="0 0 1000 1000" enable-background="new 0 0 1000 1000" xml:space="preserve">
<g id="Shape_2_xA0_Image_1_">
	<g>
		<g>
			<path fill="#00C4F9" d="M501.2,887.5c-6.9-14.8-13.3-29.8-20.7-44.2c-22.9-44.4-51.1-85.4-79.2-126.5
				c-35.1-51.3-70.6-102.2-104.8-154.1c-27.2-41.1-51.3-84.1-68.9-130.4c-11.9-31.3-19.2-63.3-17.4-97.1c3.8-69.6,27-131.7,72.2-185
				c42.8-50.4,96.4-83.7,161.5-96.6c87.3-17.2,166.5,2.2,235.9,57.8c57.9,46.4,92.3,107.3,107,179.9c11.3,56,2.9,109-20.2,160.7
				c-22.1,49.3-49.7,95.3-79.8,139.9c-36.3,53.8-73.6,107-110.2,160.7c-23.2,34.2-45.3,69.1-62.9,106.5
				C509.2,868.6,505.3,878.1,501.2,887.5z"/>
		</g>
	</g>
</g>
<g id="Shape_3_xA0_Image_1_">
	<g>
		<g>
			<path fill="#1589F9" d="M292,320c18.2-19.2,38.8-35.1,64.8-42.1c27.4-7.4,49.8,1.3,67.3,23.2c3.4,4.3,6.2,9.1,8.8,13.9
				c2.8,5.1,1.6,9.6-2.5,11.6c-4.1,2.1-7.6-0.1-11-4.8c-5.2-7.4-10.3-15.5-17.1-21.2c-16.8-14.2-35.7-12.2-54.5-3.8
				c-13.4,6-24.9,14.7-35.9,24.2c-3.6,3.1-7.4,6-11.1,8.9c-3,0-6,0-9,0C292,326.7,292,323.3,292,320z"/>
			<path fill="#1589F9" d="M709,311c-6.4,7.6-11.4,6.8-15.9-2.4c-7.6-15.7-18.7-27.8-36.5-31.2c-14.1-2.8-27.7,0.7-40,7.5
				c-10.9,6-21,13.4-31.4,20.3c-2.2,1.5-4.1,3.5-6.2,5c-3.7,2.6-7.6,2.2-10.3-1c-2.7-3.1-2.7-7.5,0.7-10.3
				c19.5-16.7,40.2-31.3,66.2-36.3c1.5-0.3,3-1.1,4.4-1.6c4.7,0,9.3,0,14,0c0.7,0.3,1.3,0.9,2,1c11.3,1.5,21.3,6,30.1,13.2
				c10.5,8.6,17.6,19.6,22.9,31.8C709,308.3,709,309.7,709,311z"/>
		</g>
	</g>
</g>
<g id="Shape_5_xA0_Image_1_">
	<g>
		<g>
			<path fill="#1287F9" d="M593,447c0,3.3,0,6.7,0,10c-4,11.3-11.1,20.3-21.8,25.4c-10.6,5-21.8,8.8-33,12.5
				c-6.5,2.1-13.4,2.8-20.2,4.1c-12,0-24,0-36,0c-1-0.4-2-1-3-1.2c-6.9-1.3-13.9-2.1-20.6-3.9c-21.4-6-41.7-13.5-50.4-36.9
				c0-3.7,0-7.3,0-11c4-11.3,11.1-20.3,21.9-25.4c10.6-5,21.8-8.8,33-12.5c6.2-2,12.8-2.8,19.2-4.1c12,0,24,0,36,0
				c1,0.4,2,0.9,3,1.1c9.6,2,19.4,3.2,28.7,6.1C568.8,417.3,586.5,425.5,593,447z"/>
		</g>
	</g>
</g>
<g id="Shape_4_xA0_Image_1_">
	<g>
		<g>
			<path fill="#1387F9" d="M214,513c5.3-14.5,17.7-24.1,25.5-36.9c1.3-2,5-3.8,7.4-3.6c2.1,0.2,5.1,2.8,5.9,5
				c3.4,9.5,6.2,19.2,9.1,28.9c3.8,12.3,1.7,23.5-7.8,32.4c-3.3,3.1-8,4.8-12.1,7.1c-3,0-6,0-9,0c-7.2-3.7-13.9-8-16.7-16.3
				c-0.7-2-1.5-3.8-2.3-5.7C214,520.3,214,516.7,214,513z"/>
			<path fill="#1388F9" d="M343,514c-0.8,2.1-1.6,4.2-2.4,6.3c-5.3,14.5-19.9,21.9-32.5,16.6c-13.3-5.6-19.2-24.1-11.9-38
				c2.1-4.1,5.1-7.8,7.8-11.5c4.6-6.3,9.2-12.6,14.3-18.5c1.7-1.9,5.1-3.6,7.5-3.4c2.2,0.2,5,2.9,5.8,5.2c3.1,8.4,5.5,17,8.1,25.6
				c1.2,3.9,2.2,7.8,3.3,11.7C343,510,343,512,343,514z"/>
			<path fill="#1388F9" d="M324,357c4.1,2.2,5.5,5.6,6.6,10.2c2,8.4,5.4,16.4,8,24.6c2.5,8,2.6,16-1.3,23.8
				c-5.4,10.9-16.3,17.2-26.6,15.2c-10.8-2.2-18.7-12-19.6-24.1c-0.6-7.5,1.6-14.2,5.9-20.1c6.5-8.8,13.2-17.5,19.9-26.2
				c1-1.3,2.7-2.2,4.1-3.3C322,357,323,357,324,357z"/>
		</g>
	</g>
</g>
<g id="Shape_4_copy_xA0_Image_1_">
	<g>
		<g>
			<path fill="#1388F9" d="M692,325c2.4,2.3,4.9,4.6,7.2,7c4.8,5.3,9.5,10.7,14.3,16c7.6,8.5,12.8,17.8,10.6,29.8
				c-1.8,9.8-6.7,17.3-16.6,19.8c-9.9,2.5-18.2-1.2-24.1-9.3c-3.1-4.3-5-9.5-7.4-14.3c0-3,0-6,0-9c2.5-9.9,5.5-19.6,7.2-29.6
				c0.9-4.9,2.4-8.3,6.8-10.4C690.7,325,691.3,325,692,325z"/>
			<path fill="#1387F9" d="M783,509c-0.3-0.3-0.6-0.8-1-0.9c-17.4-4.8-26.2-19-22.6-36.8c2.1-10.1,4.1-20.2,6.7-30.1
				c0.6-2.2,3.3-4.8,5.5-5.5c2-0.6,5.5,0.6,6.9,2.3c7,7.7,14,15.5,20.2,23.9c3.5,4.8,5.5,10.7,8.2,16.1c0,3.3,0,6.7,0,10
				c-0.7,1.6-1.5,3.1-2.1,4.7c-3.1,7.9-8.5,13.2-16.9,15.1c-1,0.2-2,0.8-2.9,1.1C784.3,509,783.7,509,783,509z"/>
			<path fill="#1387F9" d="M682.4,475.9c1.1-5.2,2.1-10.4,3.2-15.6c1.5-7,2.7-14,4.6-20.9c0.7-2.4,2.9-5.3,5-6c2.1-0.7,6,0.3,7.5,2
				c7.3,8,14.3,16.2,21,24.7c7.3,9.1,9.3,19.4,5.2,30.5c-5.6,15.4-22.9,19.8-35.4,9.2C686.7,494.1,682.8,485.2,682.4,475.9z"/>
		</g>
	</g>
</g>
</svg>
