<?xml version="1.0" encoding="utf-8"?>
<!-- Generator: Adobe Illustrator 18.0.0, SVG Export Plug-In . SVG Version: 6.00 Build 0)  -->
<!DOCTYPE svg PUBLIC "-//W3C//DTD SVG 1.1//EN" "http://www.w3.org/Graphics/SVG/1.1/DTD/svg11.dtd">
<svg version="1.1" id="Layer_1" xmlns="http://www.w3.org/2000/svg" xmlns:xlink="http://www.w3.org/1999/xlink" x="0px" y="0px"
	 viewBox="0 0 612 792" enable-background="new 0 0 612 792" xml:space="preserve" preserveAspectRatio="xMidYMid meet">
	 <defs>
    <linearGradient id="waterLevel" x1="0%" y1="0%" x2="0%" y2="100%">
      <stop offset="0%" style="stop-color:rgb(255,255,255);stop-opacity:1" />

        <stop id="upperWaterLimit"  offset="50%" style="stop-color:rgb(255,255,255);stop-opacity:1" />
        <stop id="lowerWaterLimit" offset="50%" style="stop-color:rgb(24,126,251);stop-opacity:1" />
      <stop offset="100%" style="stop-color:rgb(24,126,251);stop-opacity:1" />
    </linearGradient>
    <clipPath id="edge">
    	<path d="
			M305.4,116.5c-1.7,2.1-1.9,4.7-2.6,7.1c-2.6,8.6-6.1,16.7-9.8,24.8c-3.7,7.9-7.9,15.6-12.1,23.3c-8.7,15.7-18.3,30.8-28.2,45.8
			c-8.4,12.8-17,25.4-25.6,38.1c-8.4,12.3-16.9,24.6-25.2,36.9c-10.8,15.9-21.5,32-31.6,48.4c-5.9,9.5-11.6,19.2-17.1,28.9
			c-6.8,12.2-13.2,24.6-18.9,37.3c-6.2,13.9-11.4,28.2-14.7,43.1c-1.3,5.7-2.2,11.5-2.9,17.3c-0.7,6.2-1,12.5-0.7,18.7
			c0.3,6.3,0.7,12.5,1.5,18.7c0.9,7.5,2.1,14.9,3.8,22.2c2.1,9.1,4.8,18.1,8.1,26.9c5,13,11.2,25.5,18.7,37.3
			c10,15.6,22,29.6,35.8,41.9c9.7,8.6,20.2,16.1,31.4,22.5c7.5,4.3,15.3,8,23.4,11.2c7.5,3,15.2,5.5,23,7.5
			c5.9,1.5,11.9,2.6,17.9,3.4c10,1.4,20,2.2,30.1,1.9c6.5-0.2,12.9-0.7,19.4-1.5c8.5-1.1,16.8-2.7,25-5c13.8-3.9,26.9-9.3,39.6-16.2
			c17.6-9.6,33.2-21.9,47-36.3c10.3-10.8,19.1-22.7,26.7-35.6c7.3-12.3,13.1-25.2,17.7-38.7c3-8.7,5.4-17.6,7-26.7
			c1.4-7.8,2.6-15.6,3-23.6c0.4-6.5,0.9-13,0.7-19.6c-0.2-5-0.8-10.1-1.5-15.1c-1.8-12.4-5.3-24.3-9.5-36
			c-2.4-6.6-5.1-13.1-7.9-19.6c-3.4-7.7-7.2-15.3-11.1-22.8c-4.3-8.2-8.9-16.2-13.5-24.3c-8-14-16.6-27.6-25.4-41
			c-9.5-14.6-19.5-29-29.3-43.4c-11.9-17.5-23.8-34.9-35.6-52.3c-8-11.8-15.6-23.8-23-36c-6.8-11.3-13.4-22.9-19.1-34.8
			c-3.6-7.4-6.8-14.9-9.5-22.8c-1.2-3.6-2.2-7.2-3.4-10.8c-0.2-0.5-0.5-0.9-0.8-1.2"/>
    </clipPath>
  </defs>
<g>
	<g id="drop">

			<path fill="url(#waterLevel)" stroke="#000000" stroke-width="2" stroke-linecap="round" stroke-linejoin="round" stroke-miterlimit="10" d="
			M305.4,116.5c-1.7,2.1-1.9,4.7-2.6,7.1c-2.6,8.6-6.1,16.7-9.8,24.8c-3.7,7.9-7.9,15.6-12.1,23.3c-8.7,15.7-18.3,30.8-28.2,45.8
			c-8.4,12.8-17,25.4-25.6,38.1c-8.4,12.3-16.9,24.6-25.2,36.9c-10.8,15.9-21.5,32-31.6,48.4c-5.9,9.5-11.6,19.2-17.1,28.9
			c-6.8,12.2-13.2,24.6-18.9,37.3c-6.2,13.9-11.4,28.2-14.7,43.1c-1.3,5.7-2.2,11.5-2.9,17.3c-0.7,6.2-1,12.5-0.7,18.7
			c0.3,6.3,0.7,12.5,1.5,18.7c0.9,7.5,2.1,14.9,3.8,22.2c2.1,9.1,4.8,18.1,8.1,26.9c5,13,11.2,25.5,18.7,37.3
			c10,15.6,22,29.6,35.8,41.9c9.7,8.6,20.2,16.1,31.4,22.5c7.5,4.3,15.3,8,23.4,11.2c7.5,3,15.2,5.5,23,7.5
			c5.9,1.5,11.9,2.6,17.9,3.4c10,1.4,20,2.2,30.1,1.9c6.5-0.2,12.9-0.7,19.4-1.5c8.5-1.1,16.8-2.7,25-5c13.8-3.9,26.9-9.3,39.6-16.2
			c17.6-9.6,33.2-21.9,47-36.3c10.3-10.8,19.1-22.7,26.7-35.6c7.3-12.3,13.1-25.2,17.7-38.7c3-8.7,5.4-17.6,7-26.7
			c1.4-7.8,2.6-15.6,3-23.6c0.4-6.5,0.9-13,0.7-19.6c-0.2-5-0.8-10.1-1.5-15.1c-1.8-12.4-5.3-24.3-9.5-36
			c-2.4-6.6-5.1-13.1-7.9-19.6c-3.4-7.7-7.2-15.3-11.1-22.8c-4.3-8.2-8.9-16.2-13.5-24.3c-8-14-16.6-27.6-25.4-41
			c-9.5-14.6-19.5-29-29.3-43.4c-11.9-17.5-23.8-34.9-35.6-52.3c-8-11.8-15.6-23.8-23-36c-6.8-11.3-13.4-22.9-19.1-34.8
			c-3.6-7.4-6.8-14.9-9.5-22.8c-1.2-3.6-2.2-7.2-3.4-10.8c-0.2-0.5-0.5-0.9-0.8-1.2"/>
	</g>
</g>

</svg>
